<svg xmlns="http://www.w3.org/2000/svg" viewBox="0 0 4064.34 1030.2"><defs><style>.cls-1{fill:#a31b3f;}.cls-2{fill:#ffd643;}.cls-3{fill:#ffff74;}.cls-4{fill:#ff9b37;}</style></defs><g id="Layer_2" data-name="Layer 2"><g id="Layer_1-2" data-name="Layer 1"><path class="cls-1" d="M1211.78,409.89H1143.3V383.94h68.48Zm25.94,331.53V715.49h69V383.94h95v-69h25.94v94.95h-94.95V741.42Z"/><path class="cls-1" d="M1464,741.42V715.49h69V603.93h142.16v26H1558.9V741.42Zm69-198.71V431.15h47.21V383.94h47.21v25.95h-21.27V457.1H1558.9v85.61Zm142.16-85.61h-21.8v-26h21.8Zm0-120.37V314.94h25.94v21.79Zm25.94,404.69V715.49h68.48V409.89h25.94V741.42Zm47.21-378.74v21.26h-25.94V362.68Z"/><path class="cls-1" d="M1857.74,741.42V715.49h69V383.94H1974v25.95h-21.27V741.42ZM1974,336.73V314.94h25.94v21.79ZM1999.9,457.1v-26h21.27v26Zm21.27-73.16V362.68h25.94v21.26Zm25.94,357.48V715.49h69V431.15h47.21V383.94h47.23v25.95h-21.29V457.1h-47.21V741.42ZM2305.5,362.68h25.94V741.42H2236.5V715.49h69Zm-47.22-25.95V314.94h25.94v21.79Z"/><path class="cls-1" d="M2393.69,741.42V715.49h69V603.93h142.16v26H2488.64V741.42Zm69-198.71V431.15h47.21V383.94h47.22v25.95h-21.27V457.1h-47.22v85.61Zm142.16-85.61h-21.79v-26h21.79Zm0-120.37V314.94h25.94v21.79Zm25.94,404.69V715.49h68.49V409.89h25.94V741.42ZM2678,362.68v21.26h-25.94V362.68Z"/><path class="cls-1" d="M2787.48,741.42V715.49h163.43V668.26h47.21V620.54h47.74V409.89h25.94V646.47h-47.73v47.74h-47.22v47.21Zm163.43-331.53h-69V620.54H2856V383.94h94.95Zm0-73.16V314.94h25.94v21.79Zm73.16,25.95v21.26h-26V362.68Z"/><path class="cls-1" d="M3134.07,694.21v-26h21.27v26Zm47.21,47.21V715.49h164V668.26h47.21V362.68h25.94V694.21h-47.21v47.21ZM3297.5,409.89H3229V620.54h-25.94V383.94h94.42Zm73.68-94.95v21.79h-25.94V314.94Z"/><path class="cls-1" d="M3480.65,694.21v-26h21.79v26Zm47.73,47.21V715.49H3644.6V668.26h47.22v26h-21.27v47.21Zm21.28-120.88V383.94h142.16v-69h25.94v94.95H3575.6V620.54Zm73.15-61.74V532.85h21.79V558.8ZM3765,741.42h-47.21V715.49H3739V497.56H3765Z"/><path class="cls-1" d="M3827.23,694.21v-26H3849v26ZM3875,741.42V715.49H4038.4v-69h25.94v94.95ZM4038.4,314.94h25.94v94.95H3922.18v61.74h-25.94V383.94H4038.4Zm-142.16,305.6V532.85H4038.4V497.56h25.94V558.8H3922.18v61.74Z"/><path class="cls-2" d="M1211.78,383.94h-94.42V289h284.32v94.95h-95V715.49h-95Z"/><path class="cls-2" d="M1722.33,383.94h47.21V715.49h-94.42V603.93H1533V715.49h-95V383.94h47.72V336.73H1533V289h142.16v47.74h47.21Zm-47.21,47.21h-47.74V383.94h-47.21v47.21H1533V542.71h142.16Z"/><path class="cls-2" d="M2258.28,336.73h47.22V715.49h-94.94V383.94h-47.23v47.21h-47.21V715.49h-94.95V431.15H1974V383.94h-47.21V715.49h-95V336.73H1879V289h95v47.74h47.21v47.21h94.95V336.73h47.21V289h95Z"/><path class="cls-2" d="M2652.08,383.94h47.21V715.49h-94.43V603.93H2462.7V715.49h-94.95V383.94h47.73V336.73h47.22V289h142.16v47.74h47.22Zm-47.22,47.21h-47.73V383.94h-47.22v47.21H2462.7V542.71h142.16Z"/><path class="cls-2" d="M2998.12,383.94h47.74v236.6h-47.74v47.72h-47.21v47.23H2761.54V289h189.37v47.74h47.21Zm-47.21,0H2856v236.6h94.95Z"/><path class="cls-2" d="M3345.24,336.73h47.21V668.26h-47.21v47.23h-189.9V668.26h-47.21V336.73h47.21V289h189.9Zm-47.74,47.21h-94.42v236.6h94.42Z"/><path class="cls-2" d="M3739,715.49h-47.21V668.26H3644.6v47.23H3502.44V668.26h-47.73V336.73h47.73V289h189.38v94.95H3549.66v236.6h94.94V532.85h-47.73V471.63H3739Z"/><path class="cls-2" d="M3849,289H4038.4v94.95H3896.24v87.69H4038.4v61.22H3896.24v87.69H4038.4v95H3849V668.26h-47.73V336.73H3849Z"/><path class="cls-3" d="M2163.29,289v47.71h-47.14V384h18.72V355.46h47.24V307.75h76.22V289ZM2210.52,384V715.46h18.82V384ZM1992.7,412.39V384H1974V431.2h47.23V715.46h18.72V412.39ZM1879,289v47.71H1831.8V715.46h18.73v-360h47.23V307.75H1974V289ZM2116.15,384V336.74m0,47.23h23.24M1974,307.75h-33.89"/><path class="cls-3" d="M2761.56,289V715.46h18.72V307.75h170.58V289ZM2950.86,384V620.51h18.82V384Zm0,0V620.51h18.82V384Zm0,0V620.51h18.82V384Z"/><path class="cls-3" d="M3155.34,289v47.71h-47.23V668.23h18.82V355.46h47.13V307.75h171.17V289Z"/><rect class="cls-3" x="3297.52" y="383.97" width="18.72" height="236.54"/><rect class="cls-3" x="3202.57" y="620.51" width="113.66" height="18.72"/><path class="cls-3" d="M3691.79,668.23v47.23h18.81V668.23Zm-94.95-196.61v61.25h47.71v87.64h18.82V514.05h-47.71V490.44H3739V471.62ZM3502.48,289v47.71h-47.81V668.23h47.81v47.23h18.72v-66h-47.71v-294h47.71V307.75h170.59V289Z"/><path class="cls-3" d="M3849,289v47.71h-47.72V668.23H3820V355.46h47.71V307.75h170.69V289Z"/><rect class="cls-3" x="3849.04" y="668.23" width="18.72" height="47.23"/><path class="cls-3" d="M1401.63,307.75V289H1117.38V384h94.37V715.46h18.81V365.16H1136.1V307.75Z"/><path class="cls-3" d="M1533,289v47.71h-47.23V384H1438V715.46h18.72V402.69h47.81V355.46h47.13V307.75h123.46V289Z"/><polygon class="cls-3" points="1693.86 412.39 1693.86 542.66 1675.14 542.66 1675.14 431.11 1627.42 431.11 1627.42 383.97 1646.14 383.97 1646.14 412.39 1693.86 412.39"/><path class="cls-3" d="M2462.7,289v47.71h-47.23V384h-47.72V715.46h18.73V402.69h47.8V355.46h47.14V307.75h123.45V289Z"/><polygon class="cls-3" points="2623.59 412.39 2623.59 542.66 2604.87 542.66 2604.87 431.11 2557.16 431.11 2557.16 383.97 2575.88 383.97 2575.88 412.39 2623.59 412.39"/><line class="cls-3" x1="1675.14" y1="542.66" x2="1675.14" y2="431.11"/><rect class="cls-3" x="1675.14" y="603.91" width="18.72" height="111.55"/><rect class="cls-3" x="2604.87" y="603.91" width="18.72" height="111.55"/><path class="cls-3" d="M2950.86,384V620.51h-94.94v18.82h113.76V384Z"/><polygon class="cls-3" points="1693.94 561.43 1532.94 561.43 1532.94 542.66 1675.17 542.66 1675.17 431.11 1693.94 431.11 1693.94 561.43"/><polygon class="cls-3" points="2623.59 561.43 2462.59 561.43 2462.59 542.66 2604.83 542.66 2604.83 431.11 2623.59 431.11 2623.59 561.43"/><rect class="cls-1" x="1760.38" y="910.06" width="94.92" height="94.92"/><rect class="cls-2" x="1734.38" y="884.06" width="94.92" height="94.92"/><path class="cls-3" d="M1734.39,884.06v95h18.72V902.78h76.22V884.06Z"/><rect class="cls-1" x="2630.59" y="71.48" width="94.92" height="94.92"/><rect class="cls-2" x="2604.58" y="45.47" width="94.92" height="94.92"/><path class="cls-3" d="M2604.6,45.48v94.94h18.72V64.2h76.22V45.48Z"/><rect class="cls-1" x="1219.6" y="84.71" width="94.92" height="94.92"/><rect class="cls-2" x="1193.59" y="58.71" width="94.92" height="94.92"/><path class="cls-3" d="M1193.61,58.72v94.94h18.71V77.44h76.23V58.72Z"/><rect class="cls-1" x="2998.62" y="910.06" width="94.92" height="94.92"/><rect class="cls-2" x="2972.61" y="884.06" width="94.92" height="94.92"/><path class="cls-3" d="M2972.63,884.06v95h18.71V902.78h76.23V884.06Z"/><rect class="cls-1" x="1397.72" y="16.02" width="58.49" height="58.49"/><rect class="cls-2" x="1381.7" width="58.49" height="58.49"/><path class="cls-3" d="M1381.71,0v58.5h11.53v-47h47V0Z"/><rect class="cls-1" x="3750.55" y="877.08" width="94.92" height="94.92"/><rect class="cls-2" x="3724.55" y="851.08" width="94.92" height="94.92"/><path class="cls-3" d="M3724.56,851.09V946h18.72V869.81h76.22V851.09Z"/><rect class="cls-1" x="3933.56" y="971.71" width="58.49" height="58.49"/><rect class="cls-2" x="3917.54" y="955.69" width="58.49" height="58.49" transform="translate(4931.71 -2961.85) rotate(90)"/><path class="cls-3" d="M3917.54,1014.19h11.54v-47h47V955.7h-58.51Z"/><path class="cls-4" d="M430.87,127.4h95.75v-16H399v16Z"/><path class="cls-4" d="M383,143.36H399v-16H351.08v16Z"/><path class="cls-4" d="M542.58,143.36h31.91v-16H526.62v16Z"/><path class="cls-4" d="M335.12,159.32h16v-16H303.2v16Z"/><path class="cls-4" d="M590.45,159.32h31.92v-16H574.49v16Z"/><path class="cls-4" d="M303.2,175.28v-16H271.29v16Z"/><path class="cls-4" d="M638.33,175.28h15.95v-16H622.37v16Z"/><rect class="cls-4" x="255.33" y="175.28" width="15.96" height="15.96"/><rect class="cls-4" x="654.28" y="175.28" width="15.96" height="15.96"/><path class="cls-4" d="M255.33,207.19V191.24H223.41v15.95Z"/><path class="cls-4" d="M686.2,207.19h16V191.24H670.24v15.95Z"/><rect class="cls-4" x="207.46" y="207.19" width="15.96" height="15.96"/><rect class="cls-4" x="702.16" y="207.19" width="15.96" height="15.96"/><rect class="cls-4" x="191.5" y="223.15" width="15.96" height="15.96"/><rect class="cls-4" x="718.12" y="223.15" width="15.96" height="15.96"/><rect class="cls-4" x="175.54" y="239.11" width="15.96" height="15.96"/><rect class="cls-4" x="734.07" y="239.11" width="15.96" height="15.96"/><rect class="cls-4" x="159.58" y="255.07" width="15.96" height="15.96"/><rect class="cls-4" x="750.03" y="255.07" width="15.96" height="15.96"/><rect class="cls-4" x="143.64" y="271.04" width="15.92" height="31.94"/><rect class="cls-4" x="766.03" y="271.04" width="15.92" height="31.94"/><rect class="cls-4" x="127.62" y="302.98" width="16.02" height="15.92"/><rect class="cls-4" x="781.95" y="302.98" width="15.92" height="15.92"/><rect class="cls-4" x="111.7" y="318.91" width="15.92" height="31.94"/><path class="cls-4" d="M797.91,350.82h16V318.9h-16Z"/><path class="cls-4" d="M813.86,382.73v16h16V350.82h-16Z"/><rect class="cls-4" x="95.77" y="350.85" width="15.92" height="47.86"/><path class="cls-4" d="M829.82,430.61v16h16V398.69h-16Z"/><rect class="cls-4" x="79.76" y="398.71" width="16.02" height="47.86"/><path class="cls-4" d="M861.74,526.36V446.57h-16V574.23h16Z"/><rect class="cls-4" x="63.83" y="446.57" width="15.92" height="127.66"/><path class="cls-4" d="M829.82,590.19v31.92h16V574.23h-16Z"/><polygon class="cls-2" points="845.83 446.57 845.83 574.23 829.81 574.23 829.81 622.09 813.89 622.09 813.89 669.96 797.87 669.96 797.87 701.89 781.95 701.89 781.95 717.82 766.02 717.82 766.02 749.76 750.01 749.76 750.01 765.77 734.09 765.77 734.09 781.7 718.07 781.7 718.07 797.62 702.15 797.62 702.15 813.63 670.21 813.63 670.21 829.56 654.29 829.56 654.29 845.48 622.35 845.48 622.35 861.5 574.49 861.5 574.49 877.42 526.62 877.42 526.62 893.43 398.96 893.43 398.96 877.42 351.1 877.42 351.1 861.5 303.24 861.5 303.24 845.48 271.3 845.48 271.3 829.56 255.38 829.56 255.38 813.63 223.44 813.63 223.44 797.62 207.42 797.62 207.42 781.7 191.5 781.7 191.5 765.77 175.58 765.77 175.58 749.76 159.56 749.76 159.56 717.82 143.63 717.82 143.63 701.89 127.62 701.89 127.62 669.96 111.7 669.96 111.7 622.09 95.78 622.09 95.78 574.23 79.76 574.23 79.76 446.57 95.78 446.57 95.78 398.71 111.7 398.71 111.7 350.85 127.62 350.85 127.62 318.91 143.63 318.91 143.63 302.98 159.56 302.98 159.56 271.05 175.58 271.05 175.58 255.03 191.5 255.03 191.5 239.11 207.42 239.11 207.42 223.18 223.44 223.18 223.44 207.17 255.38 207.17 255.38 191.24 271.3 191.24 271.3 175.32 303.24 175.32 303.24 159.31 351.1 159.31 351.1 143.38 398.96 143.38 398.96 127.37 526.62 127.37 526.62 143.38 574.49 143.38 574.49 159.31 622.35 159.31 622.35 175.32 654.29 175.32 654.29 191.24 670.21 191.24 670.21 207.17 702.15 207.17 702.15 223.18 718.07 223.18 718.07 239.11 734.09 239.11 734.09 255.03 750.01 255.03 750.01 271.05 766.02 271.05 766.02 302.98 781.95 302.98 781.95 318.91 797.87 318.91 797.87 350.85 813.89 350.85 813.89 398.71 829.81 398.71 829.81 446.57 845.83 446.57"/><rect class="cls-4" x="79.76" y="574.23" width="16.02" height="47.86"/><path class="cls-4" d="M813.86,638.06V670h16V622.11h-16Z"/><rect class="cls-4" x="95.77" y="622.09" width="15.92" height="47.86"/><rect class="cls-4" x="111.7" y="669.96" width="15.92" height="31.94"/><path class="cls-4" d="M797.91,685.94v16h16V670h-16Z"/><rect class="cls-4" x="127.62" y="701.89" width="16.02" height="15.92"/><rect class="cls-4" x="781.95" y="701.89" width="15.92" height="15.92"/><rect class="cls-4" x="143.64" y="717.82" width="15.92" height="31.94"/><rect class="cls-4" x="766.03" y="717.82" width="15.92" height="31.94"/><rect class="cls-4" x="159.56" y="749.76" width="16.02" height="16.02"/><rect class="cls-4" x="750.01" y="749.76" width="16.02" height="16.02"/><rect class="cls-4" x="175.58" y="765.77" width="15.92" height="15.92"/><rect class="cls-4" x="734.09" y="765.77" width="15.92" height="15.92"/><rect class="cls-4" x="191.5" y="781.7" width="15.92" height="15.92"/><rect class="cls-4" x="718.07" y="781.7" width="16.02" height="15.92"/><rect class="cls-4" x="207.42" y="797.62" width="16.02" height="16.02"/><rect class="cls-4" x="702.15" y="797.62" width="15.92" height="16.02"/><rect class="cls-4" x="223.44" y="813.63" width="31.94" height="15.92"/><rect class="cls-4" x="670.21" y="813.63" width="31.94" height="15.92"/><rect class="cls-4" x="255.38" y="829.56" width="15.92" height="15.92"/><rect class="cls-4" x="654.29" y="829.56" width="15.92" height="15.92"/><rect class="cls-4" x="271.3" y="845.48" width="31.94" height="16.02"/><rect class="cls-4" x="622.35" y="845.48" width="31.94" height="16.02"/><rect class="cls-4" x="574.48" y="861.5" width="47.86" height="15.92"/><rect class="cls-4" x="351.1" y="877.42" width="47.86" height="16.02"/><rect class="cls-4" x="526.62" y="877.42" width="47.86" height="16.02"/><rect class="cls-4" x="398.96" y="893.43" width="127.66" height="15.92"/><path class="cls-3" d="M399,63.57H558.53v-16H367v16Z"/><path class="cls-3" d="M351.08,79.53h16v-16H319.16v16Z"/><path class="cls-3" d="M303.2,95.49h16v-16H271.29v16Z"/><path class="cls-3" d="M271.29,111.45v-16H239.37v16Z"/><rect class="cls-3" x="223.41" y="111.45" width="15.96" height="15.96"/><path class="cls-3" d="M223.41,143.36v-16H191.5v16Z"/><rect class="cls-3" x="175.54" y="143.36" width="15.96" height="15.96"/><rect class="cls-3" x="159.58" y="159.32" width="15.96" height="15.96"/><rect class="cls-3" x="143.62" y="175.28" width="15.96" height="15.96"/><rect class="cls-3" x="127.67" y="191.24" width="15.96" height="15.96"/><rect class="cls-3" x="111.71" y="207.19" width="15.96" height="15.96"/><rect class="cls-3" x="95.75" y="223.15" width="15.96" height="15.96"/><path class="cls-3" d="M95.75,255.07v-16h-16V271h16Z"/><rect class="cls-3" x="63.83" y="271.03" width="15.96" height="15.96"/><path class="cls-3" d="M63.83,302.94V287h-16V318.9h16Z"/><path class="cls-3" d="M47.87,350.82V318.9H31.92v47.88H47.87Z"/><path class="cls-3" d="M31.92,398.69V366.78H16v47.87h16Z"/><path class="cls-3" d="M16,574.23V414.65H0v191.5H16Z"/><path class="cls-3" d="M31.92,622.11v-16H16V654h16Z"/><path class="cls-3" d="M47.87,670V654H31.92V701.9H47.87Z"/><path class="cls-3" d="M63.83,701.9h-16v31.91h16Z"/><rect class="cls-3" x="63.83" y="733.81" width="15.96" height="15.96"/><path class="cls-3" d="M95.75,749.77h-16v31.92h16Z"/><rect class="cls-3" x="95.75" y="781.69" width="15.96" height="15.96"/><rect class="cls-3" x="111.71" y="797.64" width="15.96" height="15.96"/><rect class="cls-3" x="127.67" y="813.6" width="15.96" height="15.96"/><rect class="cls-3" x="143.62" y="829.56" width="15.96" height="15.96"/><rect class="cls-3" x="159.58" y="845.52" width="15.96" height="15.96"/><rect class="cls-3" x="175.54" y="861.48" width="15.96" height="15.96"/><path class="cls-3" d="M207.46,877.44h-16v15.95h31.91V877.44Z"/><rect class="cls-3" x="223.41" y="893.39" width="15.96" height="15.96"/><path class="cls-3" d="M255.33,909.35h-16v16h31.92v-16Z"/><path class="cls-3" d="M303.2,925.31H271.29v16h47.87v-16Z"/><path class="cls-3" d="M351.08,941.27H319.16v16H367v-16Z"/><rect class="cls-1" x="909.59" y="510.39" width="16.03" height="95.71"/><rect class="cls-1" x="893.65" y="606.1" width="15.93" height="47.9"/><rect class="cls-1" x="877.71" y="654" width="15.93" height="47.9"/><rect class="cls-1" x="861.78" y="701.91" width="15.94" height="31.87"/><rect class="cls-1" x="845.75" y="733.78" width="16.03" height="16.03"/><rect class="cls-1" x="829.81" y="749.81" width="15.94" height="31.87"/><rect class="cls-1" x="813.87" y="781.68" width="15.93" height="15.93"/><rect class="cls-1" x="797.94" y="797.62" width="15.93" height="16.03"/><rect class="cls-1" x="781.91" y="813.65" width="16.03" height="15.94"/><rect class="cls-1" x="765.97" y="829.59" width="15.94" height="15.93"/><rect class="cls-1" x="750.03" y="845.52" width="15.93" height="15.94"/><rect class="cls-1" x="734.1" y="861.46" width="15.93" height="15.94"/><rect class="cls-1" x="702.13" y="877.39" width="31.97" height="16.03"/><rect class="cls-1" x="686.19" y="893.43" width="15.94" height="15.94"/><rect class="cls-1" x="654.32" y="909.36" width="31.87" height="15.94"/><rect class="cls-1" x="606.42" y="925.3" width="47.91" height="15.93"/><rect class="cls-1" x="558.52" y="941.23" width="47.9" height="16.03"/><rect class="cls-1" x="341.46" y="957.26" width="219.91" height="15.94"/><rect class="cls-1" x="919.19" y="510.39" width="16.03" height="105.31"/><rect class="cls-1" x="909.58" y="606.1" width="9.6" height="9.6"/><rect class="cls-1" x="903.25" y="615.7" width="15.93" height="47.9"/><rect class="cls-1" x="893.65" y="654" width="9.6" height="9.6"/><rect class="cls-1" x="887.31" y="663.6" width="15.93" height="47.9"/><rect class="cls-1" x="877.71" y="701.91" width="9.6" height="9.6"/><rect class="cls-1" x="871.38" y="711.51" width="15.94" height="31.87"/><rect class="cls-1" x="861.78" y="733.78" width="9.6" height="9.6"/><rect class="cls-1" x="855.35" y="743.38" width="16.03" height="16.03"/><rect class="cls-1" x="845.75" y="749.81" width="9.6" height="9.6"/><rect class="cls-1" x="839.41" y="759.41" width="15.94" height="31.87"/><rect class="cls-1" x="829.81" y="781.68" width="9.6" height="9.6"/><rect class="cls-1" x="823.47" y="791.28" width="15.93" height="15.93"/><rect class="cls-1" x="813.87" y="797.62" width="9.6" height="9.6"/><rect class="cls-1" x="807.54" y="807.22" width="15.93" height="16.03"/><rect class="cls-1" x="797.94" y="813.65" width="9.6" height="9.6"/><rect class="cls-1" x="791.51" y="823.25" width="16.03" height="15.94"/><rect class="cls-1" x="781.91" y="829.59" width="9.6" height="9.6"/><rect class="cls-1" x="775.57" y="839.19" width="15.94" height="15.93"/><rect class="cls-1" x="765.97" y="845.52" width="9.6" height="9.6"/><rect class="cls-1" x="759.63" y="855.12" width="15.93" height="15.94"/><rect class="cls-1" x="750.03" y="861.46" width="9.6" height="9.6"/><rect class="cls-1" x="743.7" y="871.06" width="15.93" height="15.94"/><rect class="cls-1" x="734.1" y="877.39" width="9.6" height="9.6"/><rect class="cls-1" x="711.73" y="886.99" width="31.97" height="16.03"/><rect class="cls-1" x="702.13" y="893.43" width="9.6" height="9.6"/><rect class="cls-1" x="695.79" y="903.03" width="15.94" height="15.94"/><rect class="cls-1" x="686.19" y="909.36" width="9.6" height="9.6"/><rect class="cls-1" x="663.92" y="918.96" width="31.87" height="15.94"/><rect class="cls-1" x="654.32" y="925.3" width="9.6" height="9.6"/><rect class="cls-1" x="616.02" y="934.9" width="47.91" height="15.93"/><rect class="cls-1" x="606.42" y="941.23" width="9.6" height="9.6"/><rect class="cls-1" x="568.12" y="950.83" width="47.9" height="16.03"/><rect class="cls-1" x="558.52" y="957.26" width="9.6" height="9.6"/><rect class="cls-1" x="376.6" y="966.86" width="191.52" height="15.94"/><rect class="cls-1" x="909.59" y="414.68" width="16.03" height="95.71"/><rect class="cls-1" x="893.65" y="366.78" width="15.93" height="47.9"/><rect class="cls-1" x="877.71" y="318.88" width="15.93" height="47.9"/><rect class="cls-1" x="861.78" y="287" width="15.94" height="31.87"/><rect class="cls-1" x="845.75" y="270.97" width="16.03" height="16.03"/><rect class="cls-1" x="829.81" y="239.1" width="15.94" height="31.87"/><rect class="cls-1" x="813.87" y="223.17" width="15.93" height="15.93"/><rect class="cls-1" x="797.94" y="207.13" width="15.93" height="16.03"/><rect class="cls-1" x="781.91" y="191.2" width="16.03" height="15.94"/><rect class="cls-1" x="765.97" y="175.26" width="15.94" height="15.93"/><rect class="cls-1" x="750.03" y="159.33" width="15.93" height="15.94"/><rect class="cls-1" x="734.1" y="143.39" width="15.93" height="15.94"/><rect class="cls-1" x="702.13" y="127.36" width="31.97" height="16.03"/><rect class="cls-1" x="686.19" y="111.42" width="15.94" height="15.94"/><rect class="cls-1" x="654.32" y="95.49" width="31.87" height="15.94"/><rect class="cls-1" x="606.42" y="79.55" width="47.91" height="15.93"/><rect class="cls-1" x="558.52" y="63.52" width="47.9" height="16.03"/><rect class="cls-1" x="919.19" y="405.08" width="16.03" height="105.31"/><rect class="cls-1" x="909.58" y="405.08" width="9.6" height="9.6"/><rect class="cls-1" x="903.25" y="357.18" width="15.93" height="47.9"/><rect class="cls-1" x="893.65" y="357.18" width="9.6" height="9.6"/><rect class="cls-1" x="887.31" y="309.28" width="15.93" height="47.9"/><rect class="cls-1" x="877.71" y="309.28" width="9.6" height="9.6"/><rect class="cls-1" x="871.38" y="277.4" width="15.94" height="31.87"/><rect class="cls-1" x="861.78" y="277.4" width="9.6" height="9.6"/><rect class="cls-1" x="855.35" y="261.37" width="16.03" height="16.03"/><rect class="cls-1" x="845.75" y="261.37" width="9.6" height="9.6"/><rect class="cls-1" x="839.41" y="229.5" width="15.94" height="31.87"/><rect class="cls-1" x="829.81" y="229.5" width="9.6" height="9.6"/><rect class="cls-1" x="823.47" y="213.57" width="15.93" height="15.93"/><rect class="cls-1" x="813.87" y="213.57" width="9.6" height="9.6"/><rect class="cls-1" x="807.54" y="197.53" width="15.93" height="16.03"/><rect class="cls-1" x="797.94" y="197.53" width="9.6" height="9.6"/><rect class="cls-1" x="791.51" y="181.6" width="16.03" height="15.94"/><rect class="cls-1" x="781.91" y="181.6" width="9.6" height="9.6"/><rect class="cls-1" x="775.57" y="165.66" width="15.94" height="15.93"/><rect class="cls-1" x="765.97" y="165.66" width="9.6" height="9.6"/><rect class="cls-1" x="759.63" y="149.73" width="15.93" height="15.94"/><rect class="cls-1" x="750.03" y="149.73" width="9.6" height="9.6"/><rect class="cls-1" x="743.7" y="133.79" width="15.93" height="15.94"/><rect class="cls-1" x="734.1" y="133.79" width="9.6" height="9.6"/><rect class="cls-1" x="711.73" y="117.76" width="31.97" height="16.03"/><rect class="cls-1" x="702.13" y="117.76" width="9.6" height="9.6"/><rect class="cls-1" x="695.79" y="101.82" width="15.94" height="15.94"/><rect class="cls-1" x="686.19" y="101.82" width="9.6" height="9.6"/><rect class="cls-1" x="663.92" y="85.89" width="31.87" height="15.94"/><rect class="cls-1" x="654.32" y="85.89" width="9.6" height="9.6"/><rect class="cls-1" x="616.02" y="69.95" width="47.91" height="15.93"/><rect class="cls-1" x="606.42" y="69.95" width="9.6" height="9.6"/><rect class="cls-1" x="568.12" y="53.92" width="47.9" height="16.03"/><rect class="cls-1" x="558.52" y="53.92" width="9.6" height="9.6"/><path class="cls-1" d="M312.13,670.59h0v.16h.16v16.59h16.6v.16H329v16.58h16.6v.16h.15v16.58h16.6V721h.15v16.58h16.6v.16h.16v16.6h-41v.15h.16v16.59H371.8v.15H372v16.22H572.81V771.21H573v-.15h33.35V754.47h.16v-.15h16.6v-16.6h.15v-.15h16.6V721H640v-.16h16.61V704.24h.15v-.16h16.6V687.5h.15v-.17h16.6V670.75h.16v-.15h16.64V637.25H707v-.09h16.25V553.53H707v-.1h-.09V520H690.22V520h-.1V503.29H673.47v-.09h-.09V469.81H656.72v-.1h-.1q0-16.69,0-33.39h.1v-.1h16.65V402.84h.11v-.1h16.65V386.09h.1V386h16.27V268.89H690.22v-.1h-.09V252.57H656.71V268.8h-.09v.1H623.2v16.64h-.09v.09H606.46v16.66h-.1v.09H589.69V319h-.08v.1H573v16.65h-.09v.1H539.45v-.09h-.1c0-5.44-9.51,12.51-9.51,7.13-45.1,0-22.2,53.42-66.81,53.42v16.26h-.1v.09H429.52v-.1h-.09V395.93H412.77v-.1h-.1V379.18H396v-.09h-.09V362.44H379.26v-.09h-.09V345.7H345.76v-.1h-.09V329.37H312.25V345.6h-.09v.11H295.89V462.79h16.27v.1h.1v16.66h16.65v.09h.1V513h16.65v.1h.1q0,16.7,0,33.39h-.09v.09H329V580h-.1v.09h40.93v16.65h-.09v.09H353.1v33.4H353v.1H336.75c0,28.33-57.6-21-57.6,6.8h16.26v.1h.1v33.35Z"/><path class="cls-2" d="M893.65,414.68v-47.9H877.71V318.87H861.78V287H845.84V271.06h-16v-32H813.87V223.16h-16v-16H781.91V191.29H766.07V175.35H750v-16H734.1V143.39h-32v-16H686.19V111.42H654.32V95.48h-47.9V79.55h-47.9V63.61H367V79.55H319.19V95.48h-47.9v15.94h-32v15.93H223.48v16h-32v15.93H175.58v16h-16v15.94H143.61v15.84h-16v16H111.74V239.1H95.8v32h-16V287H63.83v31.87H47.9v47.91h-16v47.9H15.93V606.2H31.87V654h16v47.91H63.83v32H79.77v15.83h16v32h15.94v15.94h15.84v16h16v15.94h15.93v15.93h16v15.94h15.93v15.93h32v16h15.84v15.93h32V925.3h47.9v16H367v15.93H558.52V941.33h47.9v-16h47.9V909.36h31.87V893.43h15.94v-16h32V861.46H750V845.52h16V829.59h15.84V813.65h15.93v-16h16V781.68h15.94v-32h16V733.88h15.94v-32h15.93V654h15.94V606.2h15.93V414.68ZM861.78,574.23H845.84v47.9h-16v47.81H813.87v32h-16v15.93H781.91v31.87H766.07v16H750v15.93H734.1v15.94h-16v16H702.13v15.94h-32v15.93H654.32v15.94h-32v15.93H574.45v16H526.64v15.93H399V893.43H351.06v-16H303.25V861.46h-32V845.52H255.35V829.59H223.48V813.65h-16v-16H191.51V781.68H175.58V765.75h-16v-16H143.61V717.84h-16V701.91H111.74v-32H95.8V622.13h-16v-47.9H63.83V446.55H79.77V398.74h16v-47.9h15.94v-32h15.84V303h16v-32h15.93V255h16V239.1h15.93V223.16h15.94v-16h16V191.29h31.87V175.35h15.94v-16h32V143.39h47.81v-16H399V111.42H526.64v15.93h47.81v16h47.91v15.93h32v16h15.84v15.94h32v15.84h15.94v16h16V239.1H750V255h16v16h15.84v32h15.93v15.84h16v32h15.94v47.9h16v47.81h15.94Z"/><rect class="cls-4" x="303.24" y="861.5" width="47.86" height="15.92"/><path class="cls-1" d="M563.21,761.46v16.37H362.36V761.46l-.16.15H563.37Z"/><path class="cls-3" d="M395.82,326.26V309.92H529.75v16.34l.09-.09H395.73Z"/><path class="cls-3" d="M245.05,376.39H228.68V259.3h16.37l-.09-.1V376.49Z"/><path class="cls-1" d="M680.54,259.29h16.35V376.4H680.52l.1.09V259.19Z"/><path class="cls-3" d="M228.3,627.54H212V543.93H228.3l-.1-.1q0,41.91,0,83.81Z"/><path class="cls-1" d="M697.28,543.93h16.35v83.63H697.29l.08.09V543.83Z"/><path class="cls-3" d="M245.08,661H228.3V627.54l-.09.1,16.56-.07q.07,16.78.16,33.58Z"/><path class="cls-3" d="M278.56,426.62H261.8V393.15l-.1.09h16.76v33.48Z"/><path class="cls-1" d="M663.76,393.14v33.48H647l.1.1V393.24h16.75Z"/><path class="cls-1" d="M697.29,627.56V661h-16.8l.15.15.12-33.49h16.61Z"/><path class="cls-3" d="M278.55,460.2q0-16.79,0-33.58l-.1.1h16.32v33.4H278.46Z"/><path class="cls-1" d="M647,426.62q0,16.78,0,33.58l.1-.09H630.79V426.72h16.32Z"/><path class="cls-3" d="M362.23,326.26h33.59l-.09-.09V342.9H362.2l.13.13V326.17Z"/><path class="cls-1" d="M362.36,761.46H328.85V744.72l-.16.15H362.2v16.74Z"/><path class="cls-3" d="M529.75,326.26h33.6l-.09-.1q0,8.43,0,16.86l.12-.13H529.84V326.17Z"/><path class="cls-1" d="M680.52,510.44h16.76v33.49l.09-.1H680.62V510.35Z"/><path class="cls-1" d="M596.72,744.71v16.75H563.21l.16.15V744.87h33.51Z"/><path class="cls-3" d="M261.8,493.7V460.2h16.75l-.09-.08V493.6H261.71Z"/><path class="cls-3" d="M613.6,276V259.3h33.51l-.09-.1v16.74H613.51Z"/><path class="cls-3" d="M278.46,259.29H312V276l.09-.09H278.55V259.2Z"/><path class="cls-1" d="M647,460.2h16.75v33.49l.09-.09H647.12V460.11Z"/><path class="cls-3" d="M647.11,259.3V243h33.43v16.33l.08-.1H647Z"/><path class="cls-3" d="M228.3,543.93v-33.5H245l-.09-.09v33.49H228.2Z"/><path class="cls-3" d="M245.05,259.3V243h33.41v16.33l.09-.09H245Z"/><path class="cls-3" d="M245,510.43V493.7H261.8l-.09-.1v16.74H245Z"/><path class="cls-1" d="M663.77,493.69h16.75v16.75l.1-.09H663.86V493.6Z"/><path class="cls-1" d="M680.52,376.4v16.74H663.76l.1.1V376.49h16.76Z"/><path class="cls-3" d="M261.8,393.15H245.05V376.39l-.09.1H261.7v16.75Z"/><path class="cls-3" d="M261.83,677.74H245.08V661l-.15.16h16.75V677.9Z"/><path class="cls-1" d="M680.49,661v16.73H663.74l.15.17V661.15h16.75Z"/><path class="cls-3" d="M278.59,694.48H261.83V677.74l-.15.16h16.76v16.74Z"/><path class="cls-1" d="M663.74,677.73v16.75H647l.15.16V677.9h16.75Z"/><path class="cls-3" d="M563.35,326.27V309.52h16.74l-.09-.1v16.75H563.26Z"/><path class="cls-3" d="M295.34,711.22H278.59V694.48l-.15.16h16.75v16.74Z"/><path class="cls-1" d="M647,694.48v16.74H630.23l.15.16V694.64h16.76Z"/><path class="cls-3" d="M312.1,728H295.34V711.22l-.15.16h16.75v16.74Z"/><path class="cls-1" d="M630.23,711.22V728H613.48l.15.15V711.38h16.75Z"/><path class="cls-3" d="M328.85,744.72H312.1V728l-.16.15h16.75v16.75Z"/><path class="cls-1" d="M613.48,728v16.74H596.72l.16.16V728.12h16.75Z"/><path class="cls-3" d="M345.47,309.53h16.76v16.73l.09-.09H345.56V309.43Z"/><path class="cls-3" d="M580.09,309.52V292.78h16.77l-.1-.09v16.73H580Z"/><path class="cls-3" d="M328.72,292.78h16.75v16.75l.09-.1H328.81V292.69Z"/><path class="cls-3" d="M596.86,292.78V276H613.6l-.09-.09v16.75H596.76Z"/><path class="cls-3" d="M312,276h16.75v16.75l.09-.09H312.06V275.94Z"/><path class="cls-2" d="M613.63,728.12H596.88v16.75H563.37v16.74H362.2V744.87H328.69V728.12H311.94V711.38H295.19V694.64H278.44V677.9H261.68V661.15H244.93q-.08-16.78-.16-33.58V560.3h17V543.75h16.79V527.67h50.26V560.8h16.86v16H379.3V560.34h16.76V543.56h16.77V527.72h100.5v16.49h16.75V561h16.83v16h33.32V560.4H597V527.59h50.31V544.2h16.75v16.74h16.67v66.72l-.12,33.49H663.89V677.9H647.14v16.74H630.38v16.74H613.63ZM496.51,677.85h33.75v-17h33.11v-16.6h16.31v-33H563.06v16.63H546.2v16H496.1V627.89H429.24V644H378.89V627.39H362v-16.1H346v33.42h16.71v16.6H395.8v16.52H429v33.75H446.4v16.15h33.2v-16.6h16.91Zm-83.68-117v33.34h16.55v16.31h67.1V593.88h16.14V560.3H495.94V544.36H428.85v16.48Z"/><path class="cls-4" d="M680.76,627.66V560.94H664.09V544.2H647.34V527.59H597V560.4h-16.8V577H546.91V561H530.08V544.21H513.33V527.72H412.83v15.84H396.06v16.78H379.3v16.49H345.73v-16H328.87V527.67H278.61v16.08H261.82V560.3h-17v67.27l-16.56.07q0-41.91,0-83.81H245V510.34h16.76V493.6h16.75V460.12h16.32v-33.4H278.46V393.24H261.7V376.49H245V259.2h33.59v16.74h33.51v16.75h16.75v16.74h16.75v16.74h16.76V343H345.86v16.23H362.2V342.9h33.53V326.17H529.84V342.9h33.52v16.44h16.25V343H563.24q0-8.43,0-16.86H580V309.42h16.76V292.69h16.75V275.94H647V259.2h33.6v117.3H663.86v16.75H647.11v33.48H630.79v33.39h16.33V493.6h16.74v16.75h16.76v33.48h16.75v83.82ZM630.25,376.39h17V359.44h16V293.1H630.14v16.55H613.38v16.78H597.32V359.3h16.44V343.42h16.61v33.09H613.93v16.18h16.32Zm-334.95,0v16.38h16.21V376.52H295.2V343.38h17.11v15.84H328.4V326.08H311.84V309.29H295v-16H262.18V360h16.58v16.43Zm267.59,117.1V460.67H529.65V477H513.59v33H530V493.51ZM362.74,460.32V494h33.31v15.89h16.12V476.79h-16.7V460.32Zm150.52-17.45h32.83V410.53H513.26Zm-101.3.37V410.4H379.6v32.84Z"/><path class="cls-1" d="M429,677.83H395.8V661.31H362.68v-16.6H346V611.29H362v16.1h16.86V644h50.35V627.89H496.1v15.94h50.1v-16h16.86V611.24h16.62v33H563.37v16.6H530.26v17H496.51V661.52H429Z"/><path class="cls-1" d="M412.83,560.84h16V544.36h67.09V560.3h16.68v33.58H496.48v16.61h-67.1V594.18H412.83Z"/><path class="cls-4" d="M429,677.83V661.52h67.47v49.61H479.6v16.6H446.4V711.58H429Z"/><path class="cls-2" d="M295.3,376.41H278.76V360H262.18v-66.7H295v16h16.82v16.79H328.4v33.14H312.31V343.38H295.2v33.14Z"/><path class="cls-2" d="M630.37,376.51V343.42H613.76V359.3H597.32V326.43h16.06V309.65h16.76V293.1h33.17v66.34h-16v16.95h-17Z"/><path class="cls-1" d="M562.89,493.51H530V510H513.59V477h16.06V460.67h33.24Z"/><path class="cls-1" d="M362.74,460.32h32.73v16.47h16.7v33.07H396.05V494H362.74Z"/><path class="cls-2" d="M513.26,442.87V410.53h32.83v32.34Z"/><path class="cls-2" d="M412,443.24H379.6V410.4H412Z"/><path class="cls-2" d="M630.25,376.39v16.3H613.93V376.51h16.44Z"/><path class="cls-2" d="M295.2,376.52h16.31v16.27H295.3V376.41Z"/><path class="cls-3" d="M563.24,343h16.37v16.31H563.36V342.9Z"/><path class="cls-3" d="M362.2,342.9v16.36H345.86V343h16.47Z"/></g></g></svg>