<svg xmlns="http://www.w3.org/2000/svg" width="188.554" height="250" viewBox="0 0 188.554 250">
  <g id="Layer_1-2" transform="translate(-0.008)">
    <g id="Group_3021" data-name="Group 3021" transform="translate(0.008)">
      <g id="Group_3014" data-name="Group 3014" transform="translate(0)">
        <path id="Path_6872" data-name="Path 6872" d="M165.015,369.766c.682.726,1.358,1.457,2.04,2.188l3.62-3.028c.593-.054.9.365,1.235.726,1.709,1.823,3.408,3.66,5.117,5.482.272.286.524.672,1.027.44l-3.038-3.368a6.9,6.9,0,0,1,2.129-2.4,16.911,16.911,0,0,0-12.135-.035Z" transform="translate(-83.515 -186.578)" fill="#9fb9ad"/>
        <path id="Path_6873" data-name="Path 6873" d="M162.34,353.165l-.015-.015s-.01.01-.015.015.01.01.015.015S162.335,353.17,162.34,353.165Z" transform="translate(-82.149 -178.728)" fill="#9fb9ad"/>
        <path id="Path_6874" data-name="Path 6874" d="M161.561,257.466c1.739-1.664,3.576-3.23,5.142-4.939-.2-1.9-2.183-2.465-2.573-4.134a6.94,6.94,0,0,1,1.808-1.99q7.1-6.7,14.219-13.395c.647-.612,1.506-1.092,1.674-2.178-.5-1.506-2.208-2.193-2.771-3.685.306-.993,1.136-1.482,1.788-2.1q9.016-8.512,18.052-17a5.821,5.821,0,0,0,1.842-2.188q-1.585-1.748-3.171-3.487H197.5c-2.144,1.981-4.292,3.951-6.421,5.947q-7.031,6.586-14.037,13.2a7.346,7.346,0,0,0-1.837,2.035c.553,1.492,2.079,2.193,2.692,3.487a1.129,1.129,0,0,1-.39.953q-8.29,7.8-16.59,15.6a6.742,6.742,0,0,1-.889.593,12.912,12.912,0,0,1-3.047-2.988,2.686,2.686,0,0,1,1.19-1.8q3.63-3.445,7.29-6.86c.6-.568,1.21-1.136,1.655-1.556a1.5,1.5,0,0,0-.528-1.551c-.716-.8-1.437-1.585-2.03-2.237a2.051,2.051,0,0,1,.963-1.645c2.6-2.47,5.225-4.914,7.833-7.379a7.666,7.666,0,0,0,1.65-1.753c0-.963-.726-1.358-1.19-1.911s-1.012-1.092-1.378-1.477c-.1-1.067.533-1.437,1-1.877,2.544-2.41,5.107-4.8,7.646-7.211a4.948,4.948,0,0,0,1.645-1.966c-.257-1.7-2.277-2.3-2.786-4.1,2-2.346,4.549-4.248,6.692-6.584-.509-1.655-2.158-2.381-2.756-3.68a2.357,2.357,0,0,1,1.032-1.536c2.608-2.465,5.225-4.914,7.833-7.379a6.538,6.538,0,0,0,1.684-1.9c-.568-1.442-2.064-2.163-2.7-3.467,0-.84.632-1.2,1.1-1.64,2.544-2.41,5.107-4.8,7.646-7.211.593-.563,1.348-1,1.6-1.966-.282-1.521-2.005-2.119-2.514-3.551,0-.775.617-1.146,1.087-1.59,2.479-2.351,4.983-4.687,7.468-7.038a7.511,7.511,0,0,0,1.694-1.867c-.252-.973-1.047-1.5-1.635-2.173-.548-.627-1.161-1.2-1.739-1.793q-5.356,5.09-10.708,10.179c-.1.1-.119.3-.237.612.578,1.274,2.025,2.04,2.652,3.289-.02.79-.558,1.116-.968,1.5-2.608,2.47-5.235,4.914-7.838,7.389a5.259,5.259,0,0,0-1.684,1.966c.479,1.4,2.015,2.094,2.657,3.452.025.785-.6,1.146-1.072,1.59-2.544,2.415-5.112,4.8-7.656,7.216a4.656,4.656,0,0,0-1.62,1.941c.262,1.556,1.99,2.153,2.514,3.571.03.677-.474,1.032-.889,1.427-1.388,1.324-2.8,2.628-4.188,3.956a3.206,3.206,0,0,0-1.338,1.926c.514,1.4,2.124,2.148,2.756,3.517-.04.761-.573,1.082-.988,1.472-2.608,2.47-5.235,4.914-7.838,7.389a5.022,5.022,0,0,0-1.669,1.966c.5,1.393,2.015,2.1,2.672,3.447,0,.78-.617,1.151-1.087,1.6-2.544,2.41-5.107,4.811-7.66,7.211-.6.568-1.205,1.131-1.7,1.6.02,1.2.84,1.625,1.338,2.262.454.578,1.141.988,1.289,1.842a2.2,2.2,0,0,1-.326.622q-4.638,4.393-9.305,8.752a2.846,2.846,0,0,1-.761.341,9.611,9.611,0,0,1-2.736-2.85c.454-1.63,2.3-2.153,2.944-3.734-.647-1.447-2.193-2.228-2.9-3.63.054-.884.8-1.25,1.3-1.773s1.077-1.027,1.437-1.363a1.582,1.582,0,0,0-.533-1.6,12.334,12.334,0,0,1-2.114-2.588c1.936-2.519,4.628-4.292,6.589-6.618.153-.7-.247-1.037-.568-1.413a15.879,15.879,0,0,1-2.144-2.558c.864-1.4,2.3-2.218,3.245-3.457q-1.83-1.978-3.66-3.961c-1.121,1.1-2.242,2.193-3.388,3.319.588,1.59,2.114,2.292,2.756,3.64.084.588-.331.909-.687,1.25-1.388,1.324-2.8,2.623-4.183,3.951a7.068,7.068,0,0,0-1.669,1.788,1.665,1.665,0,0,0,.6,1.585,10.86,10.86,0,0,1,1.926,2.376,7.89,7.89,0,0,1-2.884,2.874,31.358,31.358,0,0,1-6.391-6.678c.089-.726.726-1.062,1.161-1.541.548-.607,1.348-1.012,1.531-1.916q-3.5-3.7-6.989-7.394c-1.013,1.2-2.371,2.069-3.329,3.452,1.887,2.667,4.391,4.662,6.243,7.053-.109,1.027-.84,1.388-1.343,1.911s-1.082,1.027-1.472,1.4a1.81,1.81,0,0,0,.731,1.739c1.99,2.139,4,4.262,6,6.4a28.541,28.541,0,0,1,3.645-3.186,12.076,12.076,0,0,1,3.121,3.191c-.766,1.566-2.321,2.366-3.349,3.635,1.052,1.146,2.109,2.292,3.23,3.507a12.778,12.778,0,0,1-3.26,3.24c-1.541-.775-2.361-2.292-3.606-3.329a31.58,31.58,0,0,0-3.591,3.5c.385,1.65,2.134,2.321,2.751,3.872a10.376,10.376,0,0,1-2.716,2.736,1.193,1.193,0,0,1-1.175-.454q-6.082-6.468-12.15-12.945a3.466,3.466,0,0,1-.365-.588c-.079-.741.464-1.067.854-1.477a11.26,11.26,0,0,0,1.976-2.1c-.114-.958-.79-1.383-1.284-1.911q-6.66-7.12-13.35-14.219c-.854-.909-1.7-1.832-2.553-2.746-1.477.854-2.435,2.316-3.838,3.26.657.751,1.284,1.526,1.966,2.252q6.823,7.283,13.661,14.545c.568.6,1.077,1.259,1.61,1.892-.938,1.442-2.667,2.213-3.477,4q6.92,7.379,13.785,14.7s.01-.01.015-.015l.015.015c1.175-1.017,2.351-2.03,3.487-3.013,1.546.85,5.551,4.988,6.964,7.186a8.823,8.823,0,0,1-3.028,2.84c-.938-.054-1.3-.662-1.753-1.126q-2.845-2.934-5.67-5.882s-.01.01-.015.015-.01-.01-.015-.015c-1.092,1.19-2.529,2.069-3.314,3.438a2.368,2.368,0,0,0,.262.6q2.193,2.356,4.4,4.707a16.911,16.911,0,0,1,12.135.035c.282-.232.573-.464.854-.716a16.768,16.768,0,0,1,2.025,1.916,33.809,33.809,0,0,1,6.52,4.223c1.541-1.442,3.072-2.87,4.583-4.317Zm-16.245-13.7a12.447,12.447,0,0,1-3.176-3.235,9.525,9.525,0,0,1,3.349-3.166,13.218,13.218,0,0,1,3.151,3.255,14.552,14.552,0,0,1-3.319,3.141Zm7.389.5a8.845,8.845,0,0,1-.948-.716c-.751-.77-1.477-1.561-2.247-2.381.677-1.64,2.06-2.386,3.235-3.507a12.84,12.84,0,0,1,3.042,3.181C155.309,242.421,153.94,243.133,152.706,244.274ZM148.774,254.9a13.777,13.777,0,0,1-3.186-3.354,12.08,12.08,0,0,1,3.141-3.082,7.311,7.311,0,0,1,3.176,3.349A14.173,14.173,0,0,1,148.774,254.9Zm7.275.02c-1.422-.756-1.521-.845-3.245-3.072.677-1.541,2.144-2.425,3.324-3.531s2.163-2.519,3.9-3.176c.706.751,1.4,1.467,2.065,2.2.272.3.489.642.711.938a35.443,35.443,0,0,1-6.752,6.638Z" transform="translate(-53.944 -73.136)" fill="#9fb9ad"/>
        <path id="Path_6875" data-name="Path 6875" d="M204.157,382.073c-.731-1.343-2.292-2.119-2.924-3.778l.706-.662a34.281,34.281,0,0,0-6.52-4.223c.479.519.933,1.042,1.4,1.556a51.426,51.426,0,0,1,7.147,7.621c.054-.153.109-.3.188-.514Z" transform="translate(-98.905 -188.981)" fill="#9fb9ad"/>
        <path id="Path_6876" data-name="Path 6876" d="M7.844,106.232l.094-.084.035-.128h.133q8.223,8.727,16.447,17.469a1.779,1.779,0,0,1,.7,1.4c-.617,1.25-2.173,1.872-2.8,3.121a2.513,2.513,0,0,0,.958,1.561q13.358,14.2,26.72,28.4c0,1.062.914,1.516,1.457,2.227.484.637,1.324,1.052,1.289,1.99-.761,1.329-2.3,1.951-2.924,3.363a10.882,10.882,0,0,0,1.916,2.351c.361.435.879.8.775,1.477-.706,1.324-2.3,1.911-2.9,3.4a5.787,5.787,0,0,0,.558.83q3.178,3.341,6.386,6.658l-.025-.119-7.547,7.043a.868.868,0,0,0-.232.4v-.148c-1.126-1.18-2.05-2.578-3.64-3.5-1.205,1.131-2.346,2.2-3.487,3.28H41.8c-.232-.237-.469-.474-.7-.716q-13.78-14.639-27.555-29.288l.04.069c1.013-1.289,2.568-2.1,3.413-3.754-3.413-3.808-6.974-7.418-10.392-11.162-1.778-1.906-3.561-3.8-5.329-5.719A4.489,4.489,0,0,1,.08,135.136c1.8,1.847,3.586,3.7,5.393,5.542.449.454.79,1.1,1.739,1.126a9.458,9.458,0,0,0,2.83-2.87,6.161,6.161,0,0,0-.583-.879q-3.1-3.252-6.223-6.48l-.089-.2.178-.138a20.335,20.335,0,0,0,3.492-3.467c-.785-1.571-2.242-2.474-3.166-3.808v.044c1.166-1.126,2.578-2.03,3.457-3.615l-3.24-3.512v.049c1.205-1.141,2.445-2.252,3.615-3.428,1.151-1.151,2.563-2.069,3.428-3.566-1.062-1.289-2.06-2.489-3.052-3.694Z" transform="translate(-0.045 -53.656)" fill="#b0003d"/>
        <path id="Path_6877" data-name="Path 6877" d="M253.6,21.553c1.23-1.1,2.46-2.208,3.793-3.4,1.892,1.818,3.541,3.689,5.255,5.492s3.423,3.635,5.146,5.468c1.66-.736,2.479-2.351,3.912-3.087,1.966,1.58,34.371,35.808,41.34,43.636a1.618,1.618,0,0,1,.6,1.259c-1.012.988-2.134,2.084-3.255,3.181a.259.259,0,0,0-.291.277h.03q-4.527-4.83-9.053-9.666Q285.5,48.137,269.919,31.569c-.612-.652-1.274-1.264-1.916-1.9-1.59.711-2.336,2.307-3.793,2.9a3.987,3.987,0,0,1-.7-.445q-4.964-5.282-9.913-10.574v-.01Z" transform="translate(-128.35 -9.186)" fill="#060404"/>
        <path id="Path_6878" data-name="Path 6878" d="M327.567,123.074q1.445,1.519,2.889,3.042c.237.252.38.519.138.85q-1.763-1.86-3.531-3.714c-1.289-1.1-2.139-2.687-3.754-3.487a8.55,8.55,0,0,0-2.84,2.83,22.879,22.879,0,0,0,3.314,3.689c-.232,0-.548.114-.677,0-.563-.494-1.077-1.037-1.59-1.58q-6.156-6.557-12.3-13.128l-.114-.054a.637.637,0,0,0,.37-.188c.79-.741,1.585-1.477,2.366-2.228a1.426,1.426,0,0,0,.632-1.363c-.262-.321-.553-.726-.894-1.087q-6.016-6.349-12.051-12.688a.492.492,0,0,0-.212-.128,2.96,2.96,0,0,0-.479-.035,33.726,33.726,0,0,0-3.191,2.85.859.859,0,0,0-.232.37l.01-.119-7.181-7.567c-1.788-1.916-3.581-3.823-5.354-5.749-.543-.593-1.25-1.087-1.373-1.976,1.363-.909,2.326-2.336,3.852-3.156,2.553,2.06,4.3,4.761,6.786,6.707a8.881,8.881,0,0,0,2.42-1.892,1.894,1.894,0,0,1,1.793-.706c7.977,8.48,16.116,17.143,24.261,25.806a.589.589,0,0,1,.227.38,6.308,6.308,0,0,0-3.665,3.28c2.257,2.445,4.465,4.821,6.732,7.142q1.822,1.956,3.645,3.907Z" transform="translate(-142.475 -39.708)" fill="#b0003d"/>
        <path id="Path_6879" data-name="Path 6879" d="M321.024,179.35c-1.783,1.635-3.581,3.255-5.354,4.9q-3.667,3.415-7.295,6.865a5.518,5.518,0,0,0-1.679,1.936c.385,1.536,2.312,2.124,2.578,3.887a32.615,32.615,0,0,1-4.188,4.193c-1.492,1.462-3.033,2.865-4.554,4.3q-2.193,2.06-4.381,4.119-2.282,2.141-4.564,4.287-2.186,2.06-4.371,4.124h-.064a19.246,19.246,0,0,1-3.443-3.9,8.313,8.313,0,0,1,1.9-2.094q9.016-8.49,18.037-16.975c.642-.607,1.472-1.1,1.729-2.055-.7-1.383-2.148-2.144-2.8-3.571a8.062,8.062,0,0,1,1.872-2.055q6.357-6.023,12.718-12.036a24.377,24.377,0,0,1,3.857,4.085Z" transform="translate(-143.589 -88.709)" fill="#9fb9ad"/>
        <path id="Path_6880" data-name="Path 6880" d="M129.05,6.875c2.43-2.282,4.855-4.569,7.315-6.875,1.551.79,2.277,2.316,3.64,3.289,1.413-.677,2.262-2.109,3.561-2.958.617-.089.884.39,1.225.736.81.82,1.605,1.655,2.5,2.588,1.259-1.116,2.42-2.144,3.645-3.23,1.4.958,2.242,2.356,3.591,3.418,1.4-.761,2.292-2.129,3.561-3,.622-.1.864.405,1.215.736A16.862,16.862,0,0,0,161.954,4.1q1.689-1.585,3.428-3.225c1.58.815,2.311,2.341,3.675,3.309,1.4-.687,2.257-2.114,3.556-2.963.612-.079.889.39,1.225.741,1.61,1.694,3.2,3.408,4.811,5.1a3.335,3.335,0,0,0,1.5,1.18l3.309-3.112a2.6,2.6,0,0,1,.6.291q3.267,3.46,6.51,6.934v.01q-1.785,1.734-3.576,3.472c-1.966-2.035-3.922-4.075-5.9-6.1-.385-.4-.672-.978-1.373-.938-1.343.78-2.163,2.262-3.507,2.87a3.92,3.92,0,0,1-1.674-1.353c-1.5-1.566-2.963-3.156-4.46-4.722-.326-.341-.6-.815-1.353-.716-1.2.746-2.05,2.188-3.5,2.879-1.373-.968-2.129-2.46-3.61-3.28-1.215,1.146-2.361,2.223-3.507,3.3-1.279-1.027-2.153-2.5-3.571-3.359-1.506.756-2.277,2.311-3.764,2.934-1.492-.736-2.089-2.47-3.61-2.983a9.708,9.708,0,0,0-2.39,1.9,1.872,1.872,0,0,1-1.8.682c-.84-.889-1.847-1.966-2.756-2.934a2.413,2.413,0,0,0-1.669.933c-1.585,1.472-3.146,2.963-4.732,4.43-.41.38-.761.9-1.645.845C131.2,9.2,130.132,8.056,129.06,6.91V6.855Z" transform="translate(-65.316)" fill="#060404"/>
        <path id="Path_6881" data-name="Path 6881" d="M23.721,209.67l27.555,29.289c.227.242.464.479.7.716L48.7,242.752a1.33,1.33,0,0,1-1.3-.568q-13.35-14.2-26.7-28.4a7.54,7.54,0,0,1-.519-.726,9.537,9.537,0,0,1,1.679-1.719c.6-.573,1.24-1.111,1.857-1.664Z" transform="translate(-10.217 -106.113)" fill="#060404"/>
        <path id="Path_6882" data-name="Path 6882" d="M69.35,23.6q4.038-3.712,8.07-7.428c.973-.894,1.926-1.808,2.894-2.716,1.576.805,2.252,2.39,3.6,3.215.588.1.914-.311,1.274-.647q4.1-3.838,8.184-7.69c.6-.563,1.2-1.126,1.832-1.719a39.848,39.848,0,0,1,3.63,3.615l0,.054Q93.9,14.9,88.963,19.521c-.469.44-.869,1.047-1.664.958-1.245-.805-1.931-2.267-3.487-3.1-3.571,3.4-7.206,6.687-10.693,10.14a7.41,7.41,0,0,1-1.808-1.59,6.684,6.684,0,0,0-1.773-1.62c-.059-.252-.119-.5-.183-.756l-.015.044Z" transform="translate(-35.097 -3.345)" fill="#060404"/>
        <path id="Path_6883" data-name="Path 6883" d="M344.948,164.273a23.98,23.98,0,0,0-3.857-4.085q-4.993-5.408-9.987-10.826a.52.52,0,0,1-.119-.217,2.414,2.414,0,0,1,.04-.459c1-.988,2.109-2.089,3.22-3.2q6.149,6.564,12.3,13.128c.514.543,1.027,1.092,1.59,1.58.128.114.444,0,.677,0a18.022,18.022,0,0,0,3.28-3.033q1.763,1.86,3.531,3.714c-2.341,2.2-4.687,4.406-7,6.579-.657.109-.919-.375-1.255-.711-.815-.82-1.62-1.65-2.425-2.479Z" transform="translate(-167.512 -73.632)" fill="#060404"/>
        <path id="Path_6884" data-name="Path 6884" d="M27.836,55.515l-3.087-3.284a1.432,1.432,0,0,1,.632-1.264Q33.842,43,42.312,35.058a6.784,6.784,0,0,1,.81-.568,31.544,31.544,0,0,0,3.393,3.452c-.573.6-1.116,1.225-1.719,1.793Q39.27,44.951,33.733,50.152a7.09,7.09,0,0,0-1.684,1.813c-.731.637-1.457,1.274-2.193,1.906a7.646,7.646,0,0,1-2.074,1.655h.064Z" transform="translate(-12.529 -17.455)" fill="#060404"/>
        <path id="Path_6885" data-name="Path 6885" d="M12.669,91.487l-3.22-3.6c-.089-.77.385-1.037.736-1.363q4.082-3.852,8.169-7.7c.6-.568,1.156-1.185,1.734-1.783l-.064,0A23.826,23.826,0,0,1,23.466,80.8c-.089.282-.094.484-.193.583q-5.208,4.993-10.431,9.962h-.133l-.035.133Z" transform="translate(-4.781 -38.995)" fill="#060404"/>
        <path id="Path_6886" data-name="Path 6886" d="M9.671,179.61c3.418,3.744,6.984,7.354,10.392,11.162-.845,1.655-2.4,2.465-3.413,3.754L7.9,185.092c-.553-.593-1.1-1.2-1.758-1.911l3.526-3.571Z" transform="translate(-3.111 -90.9)" fill="#060404"/>
        <path id="Path_6887" data-name="Path 6887" d="M360.947,135.848a.624.624,0,0,0-.227-.38A31.645,31.645,0,0,1,364.345,132h-.03q3.4,3.608,6.8,7.221a15.62,15.62,0,0,1-3.418,3.5l-.153.015c-.138-.1-.277-.2-.415-.3Q364.042,139.142,360.947,135.848Z" transform="translate(-182.563 -66.805)" fill="#060404"/>
        <path id="Path_6888" data-name="Path 6888" d="M8.371,106.45c.993,1.205,1.99,2.41,3.052,3.694-.869,1.5-2.282,2.41-3.428,3.566C6.825,114.886,5.59,116,4.38,117.138q-1.63-1.852-3.26-3.7a4.067,4.067,0,0,1,.459-.731q3.386-3.141,6.791-6.258Z" transform="translate(-0.571 -53.874)" fill="#060404"/>
        <path id="Path_6889" data-name="Path 6889" d="M3.195,157.745q3.112,3.238,6.223,6.48A6.614,6.614,0,0,1,10,165.1a9.348,9.348,0,0,1-2.83,2.87c-.948-.025-1.289-.667-1.739-1.126-1.808-1.837-3.6-3.689-5.393-5.542a1.051,1.051,0,0,1,.42-1.077q1.371-1.245,2.736-2.489Z" transform="translate(-0.008 -79.832)" fill="#060404"/>
        <path id="Path_6890" data-name="Path 6890" d="M371.025,161.153q-1.823-1.956-3.645-3.907,1.608-1.578,3.21-3.161c.109-.123.212-.247.321-.37l.153-.015c1.1,1.24,2.2,2.484,3.334,3.764C373.559,159.019,371.924,159.76,371.025,161.153Z" transform="translate(-185.934 -77.787)" fill="#060404"/>
        <path id="Path_6891" data-name="Path 6891" d="M84.46,267.06c1.141-1.072,2.282-2.148,3.487-3.28,1.59.929,2.514,2.326,3.64,3.5l-3.5,3.284c-1.477-1.032-2.371-2.47-3.63-3.512Z" transform="translate(-42.749 -133.498)" fill="#060404"/>
        <path id="Path_6892" data-name="Path 6892" d="M3.827,142.33c.929,1.334,2.381,2.237,3.166,3.808A20.159,20.159,0,0,1,3.5,149.605c-1.067-1.131-2.129-2.267-3.047-3.24a1.572,1.572,0,0,1,.736-1.452q1.311-1.3,2.633-2.583Z" transform="translate(-0.231 -72.033)" fill="#060404"/>
        <path id="Path_6893" data-name="Path 6893" d="M4.01,127.985,7.25,131.5c-.879,1.585-2.292,2.489-3.457,3.615-1.1-1.185-2.247-2.326-3.4-3.685,1.245-1.259,2.45-2.336,3.62-3.447Z" transform="translate(-0.201 -64.77)" fill="#060404"/>
        <path id="Path_6894" data-name="Path 6894" d="M98.885,270.775a.894.894,0,0,1,.232-.4q1.771,1.756,3.541,3.517c.657.751,1.284,1.526,1.966,2.252q6.823,7.283,13.661,14.546c.568.6,1.077,1.259,1.61,1.892-1.788-1.872-3.586-3.734-5.369-5.606s-3.581-3.739-5.314-5.66c-3.3-3.66-6.87-7.043-10.332-10.54Z" transform="translate(-50.047 -136.838)" fill="#709282"/>
        <path id="Path_6895" data-name="Path 6895" d="M374.791,138.937q-3.4-3.608-6.8-7.221a.259.259,0,0,1,.291-.277c1.877,2.04,3.764,4.07,5.631,6.119C374.277,137.96,374.855,138.256,374.791,138.937Z" transform="translate(-186.242 -66.521)" fill="#973311"/>
        <path id="Path_6896" data-name="Path 6896" d="M65.323,37.865a31.544,31.544,0,0,1-3.393-3.452.665.665,0,0,1,.83.247c.943.993,1.892,1.981,2.835,2.973l.015-.044a.386.386,0,0,1-.291.277Z" transform="translate(-31.347 -17.383)" fill="#973311"/>
        <path id="Path_6897" data-name="Path 6897" d="M106.912,256.11c1.077,1.22,2.148,2.445,3.324,3.778-1.215,1.225-2.356,2.376-3.5,3.522-1.477.854-2.435,2.316-3.838,3.26q-1.771-1.756-3.541-3.517l7.547-7.043Z" transform="translate(-50.29 -129.616)" fill="#060404"/>
        <path id="Path_6898" data-name="Path 6898" d="M16.325,87.715q5.216-4.979,10.431-9.962c.1-.1.1-.3.193-.583a23.825,23.825,0,0,0-3.443-3.749,7.645,7.645,0,0,0,2.074-1.655c.736-.632,1.462-1.269,2.193-1.906,1.141,1.22,2.3,2.425,3.413,3.665a26.214,26.214,0,0,1,3.255,3.719c-.825,1.645-2.568,2.326-3.309,3.813a3.233,3.233,0,0,0,.361.751q6.075,6.5,12.165,12.98a1.83,1.83,0,0,0,1.635.612,13.99,13.99,0,0,0,2.223-1.911c.435-.375.815-.864,1.516-.736a7.5,7.5,0,0,1,1.808,1.684c1.274,1.324,2.519,2.672,3.783,4.006a1.6,1.6,0,0,0,1.541.657c3.363-3.151,6.89-6.455,10.421-9.76a1.2,1.2,0,0,0,.188-.168A6.767,6.767,0,0,0,68.289,91.1q4.475,4.771,8.959,9.522c-.647.647-1.284,1.309-1.951,1.936q-5.734,5.4-11.473,10.8c-.464.44-1.1.8-1.032,1.605.691,1.319,2.163,2.05,2.805,3.576-2.045,2.5-4.776,4.346-6.821,6.841a10.3,10.3,0,0,0,2.065,2.573c.351.44.924.756.83,1.452-.85,1.309-2.4,2.02-3.131,3.462.731,1.5,2.311,2.257,2.939,3.867-1.082,1.012-2.1,1.976-3.131,2.944q-13.365-14.195-26.72-28.4a2.513,2.513,0,0,1-.958-1.561c.622-1.25,2.178-1.872,2.8-3.121a1.772,1.772,0,0,0-.7-1.4Q24.551,96.452,16.32,87.72Z" transform="translate(-8.264 -35.356)" fill="#ffcb00"/>
        <path id="Path_6899" data-name="Path 6899" d="M101.02,157.541c1.027-.963,2.05-1.926,3.131-2.944-.627-1.61-2.208-2.371-2.939-3.867.736-1.437,2.282-2.148,3.131-3.462.094-.7-.474-1.012-.83-1.452a10.3,10.3,0,0,1-2.065-2.573c2.045-2.494,4.776-4.332,6.821-6.841-.642-1.526-2.114-2.257-2.805-3.576-.069-.81.568-1.166,1.032-1.605q5.727-5.408,11.473-10.8c.667-.627,1.3-1.289,1.951-1.936,2.677-2.084,4.816-4.786,7.6-6.771a10.933,10.933,0,0,1,2.3,2.1c.415.4.761.909,1.467.835A6.789,6.789,0,0,0,133.2,113.1c2.5-2.331,4.979-4.687,7.483-7.013.469-.435.864-1.047,1.818-.9,1.082,1.087,2.252,2.262,3.423,3.443-.933.82-1.892,1.62-2.8,2.47-2.736,2.549-5.458,5.122-8.238,7.735-1.571-.775-2.277-2.44-3.61-3.23a1.889,1.889,0,0,0-1.136.672q-6.645,6.238-13.276,12.486a6,6,0,0,0-.479.573,12.5,12.5,0,0,0-4.025,3.754,19.1,19.1,0,0,0-3.27,3.171.691.691,0,0,0,.212.845c.933,1.008,1.857,2.025,2.786,3.037-2.356,2.218-4.712,4.43-7.122,6.692.78,1.64,2.316,2.5,3.21,4-1.161,1.161-2.262,2.252-3.472,3.457,1.1,1.245,2.119,2.41,3.117,3.546-.178.879-.924,1.21-1.393,1.773-.578.687-1.516,1.062-1.768,2.03.049.227.025.514.153.662a16.974,16.974,0,0,0,2.825,2.884c-.079.864-.894,1.141-1.358,1.694-.573.687-1.467,1.106-1.837,2.188,2.188,2.326,4.4,4.682,6.7,7.122-1.264,1.294-2.415,2.47-3.566,3.645q-3.193-3.326-6.386-6.658a5.921,5.921,0,0,1-.558-.83c.6-1.492,2.193-2.079,2.9-3.4.1-.682-.415-1.042-.775-1.477a10.881,10.881,0,0,1-1.916-2.351c.622-1.413,2.163-2.035,2.924-3.363.03-.938-.805-1.353-1.289-1.99-.538-.706-1.457-1.166-1.457-2.228Z" transform="translate(-50.932 -53.223)" fill="#060404"/>
        <path id="Path_6900" data-name="Path 6900" d="M306.453,77.878a32.066,32.066,0,0,0-3.625,3.467L278.567,55.539a1.894,1.894,0,0,0-1.793.706,8.881,8.881,0,0,1-2.42,1.892c-2.489-1.946-4.233-4.648-6.786-6.707-1.531.82-2.494,2.247-3.852,3.156-1.111-1.393-2.568-2.489-3.5-4.045.548-.509,1.121-1,1.64-1.536.563-.578,1.358-.983,1.521-1.867a5.274,5.274,0,0,0-1.536-1.985c-3.927-4.2-7.868-8.372-11.8-12.565-1.25-1.334-2.47-2.7-3.7-4.055q1.785-1.734,3.576-3.472,4.956,5.29,9.913,10.574a3.561,3.561,0,0,0,.7.445c1.457-.6,2.2-2.2,3.793-2.9.642.632,1.3,1.245,1.916,1.9q15.588,16.566,31.155,33.141,4.534,4.823,9.053,9.666Z" transform="translate(-124.676 -12.683)" fill="#b0003d"/>
        <path id="Path_6901" data-name="Path 6901" d="M252.278,73.133c.924,1.556,2.386,2.652,3.492,4.045.118.889.825,1.383,1.368,1.976,1.773,1.926,3.566,3.833,5.354,5.749-1.156,1.047-2.311,2.089-3.546,3.21-.538-.5-.973-.869-1.368-1.279-1.492-1.566-2.959-3.151-4.45-4.712-.385-.405-.7-.958-1.4-.924-1.378.721-2.129,2.292-3.62,2.835-1.334-.968-2.094-2.435-3.457-3.225-1.531.741-2.292,2.321-3.744,2.875-1.5-.81-2.1-2.509-3.8-3.136-1.136,1.072-2.282,2.144-3.423,3.215a9.983,9.983,0,0,0-2-2.474c-.351-.435-.884-.761-.815-1.664.568-.558,1.274-1.23,1.961-1.921.4-.4.914-.736.81-1.566-.948-1.077-1.971-2.247-3-3.418a23.921,23.921,0,0,1,3.512-3.018c1.487.756,2.119,2.3,3.5,2.983a9.353,9.353,0,0,0,2.356-1.877,1.878,1.878,0,0,1,1.758-.7c.929.978,1.981,2.139,3.092,3.245s1.956,2.445,3.408,3.215c1.571-.968,2.633-2.4,4.015-3.438Z" transform="translate(-116.73 -35.275)" fill="#ffcb00"/>
        <path id="Path_6902" data-name="Path 6902" d="M236.517,94.89c1.141-1.077,2.287-2.148,3.423-3.22,1.7.622,2.3,2.326,3.8,3.136,1.457-.553,2.213-2.134,3.744-2.875,1.363.79,2.129,2.257,3.457,3.225,1.492-.548,2.242-2.114,3.62-2.835.7-.035,1.013.519,1.4.924,1.492,1.561,2.958,3.146,4.45,4.712.39.41.825.775,1.368,1.279,1.24-1.121,2.391-2.163,3.546-3.21l7.181,7.567c-1.161,1.052-2.326,2.1-3.581,3.245-2.608-2.208-4.588-4.9-7.112-7.2-1.383.84-2.307,2.163-3.709,3.151-2.509-2.158-4.495-4.821-7.028-7.147-1.338.914-2.3,2.2-3.65,3.181-1.388-.8-2.153-2.267-3.4-3.191-.691-.1-1.013.464-1.427.83-.8.7-1.576,1.437-2.4,2.2-1.674-.958-2.465-2.662-3.946-3.576v-.04l.173,0,.094-.143Z" transform="translate(-119.569 -46.394)" fill="#060404"/>
        <path id="Path_6903" data-name="Path 6903" d="M310.12,112.37a34.35,34.35,0,0,1,3.191-2.85,2.96,2.96,0,0,1,.479.035.584.584,0,0,1,.212.128q6.031,6.342,12.051,12.688c.341.361.632.766.894,1.087a1.435,1.435,0,0,1-.632,1.363c-.78.751-1.576,1.487-2.366,2.228l-13.824-14.684Z" transform="translate(-156.955 -55.428)" fill="#060404"/>
        <path id="Path_6904" data-name="Path 6904" d="M306.178,115.29,320,129.974a.637.637,0,0,1-.37.188c-2.223-2.331-4.445-4.658-6.638-6.954-1.635.8-3.546,2.484-7.493,6.549-1.032-1.166-2.06-2.336-3.171-3.6,2.045-2.514,4.628-4.346,6.643-6.608.089-.785-.449-1.126-.825-1.541-.721-.8-1.472-1.571-2.208-2.351a.859.859,0,0,1,.232-.37Z" transform="translate(-153.012 -58.348)" fill="#709282"/>
        <path id="Path_6905" data-name="Path 6905" d="M363.7,147.04q-1.608,1.578-3.21,3.161c-2.267-2.321-4.475-4.692-6.732-7.142a6.322,6.322,0,0,1,3.665-3.28q3.089,3.289,6.179,6.584c.035.222.064.449.1.672Z" transform="translate(-179.041 -70.742)" fill="#c44921"/>
        <path id="Path_6906" data-name="Path 6906" d="M366.974,165.567a17.693,17.693,0,0,1-3.28,3.033,22.629,22.629,0,0,1-3.314-3.689,8.549,8.549,0,0,1,2.84-2.83C364.835,162.875,365.685,164.466,366.974,165.567Z" transform="translate(-182.391 -82.028)" fill="#c44921"/>
        <path id="Path_6907" data-name="Path 6907" d="M76.737,28.307c3.487-3.447,7.122-6.737,10.693-10.14,1.556.83,2.237,2.3,3.487,3.1.8.089,1.19-.519,1.664-.958q4.942-4.608,9.863-9.241c1.072,1.141,2.148,2.282,3.117,3.319.879.059,1.23-.464,1.645-.845,1.585-1.467,3.151-2.958,4.732-4.43a2.42,2.42,0,0,1,1.669-.933c.909.963,1.921,2.04,2.756,2.934a1.872,1.872,0,0,0,1.8-.682,9.6,9.6,0,0,1,2.391-1.9c1.516.509,2.119,2.247,3.61,2.983,1.487-.622,2.257-2.178,3.764-2.934,1.417.854,2.292,2.331,3.566,3.359q1.193,1.282,2.391,2.558,6.683,7.112,13.36,14.229c.548.588,1.309,1.062,1.393,2.05-.711,1.289-2.218,1.946-2.954,3.339.894,1.605,2.4,2.608,3.4,4.02a4.194,4.194,0,0,0-2.287,1.422c-.548.474-.963,1.19-2.015,1.141-1.082-.884-1.966-2.376-3.912-2.45-.524.494-1.131,1.062-1.734,1.63-1.338,1.255-2.677,2.514-4.02,3.764a1.441,1.441,0,0,1-1.319.573c-1.3-.7-1.852-2.351-3.314-2.786a6.821,6.821,0,0,0-2.035,1.605c-1.353,1.24-2.677,2.509-4.02,3.764a1.633,1.633,0,0,1-1.324.647c-1.348-.607-1.867-2.311-3.294-2.781a5.107,5.107,0,0,0-2.06,1.541c-2.568,2.386-5.107,4.8-7.67,7.191-.474.44-.869,1.037-1.753,1.037-1.388-.736-2.069-2.474-3.788-3.265-2.524,2.193-4.865,4.559-7.325,6.786a1.014,1.014,0,0,1-.188.168c-.6-.691-1.18-1.4-1.8-2.065-3.413-3.645-6.846-7.275-10.253-10.93-.548-.588-1.3-1.072-1.373-2.1.316-.948,1.235-1.457,1.9-2.178.385-.42.914-.761.78-1.65-3.191-3.393-6.495-6.91-9.8-10.421.084-.158.173-.311.257-.469Z" transform="translate(-38.71 -4.14)" fill="#b0003d"/>
        <path id="Path_6908" data-name="Path 6908" d="M205.443,38.6c-1-1.413-2.509-2.415-3.4-4.02.736-1.393,2.247-2.05,2.954-3.339-.084-.988-.84-1.462-1.393-2.05q-6.66-7.127-13.36-14.229c-.8-.85-1.6-1.709-2.391-2.558,1.146-1.077,2.292-2.153,3.507-3.3,1.482.82,2.237,2.316,3.61,3.28,1.447-.7,2.3-2.139,3.5-2.879.751-.1,1.027.375,1.353.716,1.5,1.566,2.963,3.156,4.46,4.722a4.019,4.019,0,0,0,1.674,1.353c1.343-.612,2.163-2.089,3.507-2.87.7-.04.988.543,1.373.938,1.976,2.025,3.931,4.065,5.9,6.1,1.235,1.353,2.455,2.716,3.7,4.055q5.89,6.29,11.8,12.565a5.4,5.4,0,0,1,1.536,1.985c-.163.884-.958,1.289-1.521,1.867-.524.538-1.092,1.027-1.64,1.536-1.378,1.042-2.44,2.465-4.01,3.438-1.452-.766-2.311-2.124-3.408-3.215s-2.168-2.267-3.092-3.245a1.878,1.878,0,0,0-1.758.7,9.353,9.353,0,0,1-2.356,1.877c-1.378-.691-2.01-2.228-3.5-2.983a23.922,23.922,0,0,0-3.512,3.018c-1.373-.953-2.282-2.386-3.536-3.457Z" transform="translate(-95.074 -4.605)" fill="#ffcb00"/>
        <path id="Path_6909" data-name="Path 6909" d="M57.77,45.335c3.3,3.517,6.608,7.028,9.8,10.421.133.889-.4,1.23-.78,1.65-.662.721-1.585,1.23-1.9,2.178.069,1.027.825,1.506,1.373,2.1,3.408,3.655,6.841,7.285,10.253,10.93.622.667,1.205,1.373,1.8,2.065-3.531,3.3-7.058,6.608-10.421,9.76a1.6,1.6,0,0,1-1.541-.657c-1.264-1.334-2.514-2.682-3.783-4.006a7.408,7.408,0,0,0-1.808-1.684c-.7-.128-1.082.361-1.516.736a13.776,13.776,0,0,1-2.223,1.911,1.812,1.812,0,0,1-1.635-.612q-6.09-6.482-12.165-12.98a3.136,3.136,0,0,1-.361-.751c.741-1.487,2.484-2.168,3.309-3.813a26.488,26.488,0,0,0-3.255-3.719c-1.116-1.245-2.277-2.445-3.413-3.665A7.023,7.023,0,0,1,41.2,53.386q5.527-5.216,11.063-10.416c.6-.568,1.146-1.2,1.719-1.793a.394.394,0,0,0,.291-.277c.059.252.119.5.178.751a20.253,20.253,0,0,0,3.319,3.68Z" transform="translate(-20 -20.699)" fill="#ffcb00"/>
        <path id="Path_6910" data-name="Path 6910" d="M73.079,46.11a20.253,20.253,0,0,1-3.319-3.68,6.76,6.76,0,0,1,1.773,1.62,7.32,7.32,0,0,0,1.808,1.59c-.084.158-.173.311-.257.469Z" transform="translate(-35.309 -21.474)" fill="#cdb13f"/>
        <path id="Path_6911" data-name="Path 6911" d="M373.789,153.792c-.035-.222-.064-.449-.1-.672.138.1.277.2.415.3-.109.123-.212.247-.321.37Z" transform="translate(-189.127 -77.493)" fill="#973311"/>
        <path id="Path_6912" data-name="Path 6912" d="M199.154,210.5c-.183.094-.365.188-.553.282a44.817,44.817,0,0,1-3.141-3.571c.766-1.462,2.257-2.129,3.067-3.5-.5-1.467-2.015-2.173-2.677-3.507-.1-.583.3-.914.642-1.269a15.2,15.2,0,0,0,2.262-2.371c-.553-1.59-2.242-2.292-2.84-3.843.42-1.709,2.391-2.247,3.062-3.857-.622-1.4-2.1-2.144-2.776-3.6.756-1.418,2.119-2.287,3.22-3.388s2.3-2.173,3.289-3.107a1.519,1.519,0,0,0-.5-1.561,13.442,13.442,0,0,1-2.1-2.534c.607-1.526,2.381-2.1,3.008-3.62-.736-1.343-2.055-2.247-2.558-3.823.815-1.408,2.223-2.341,3.408-3.482a31.053,31.053,0,0,1,3.368,3.719c-.484,1.625-2.307,2.158-2.954,3.709.558,1.408,2.065,2.124,2.751,3.556-.548,1.511-2.3,2.094-3.018,3.694.929,1.116,1.872,2.242,2.712,3.255a1.643,1.643,0,0,1-.746,1.413c-1.571,1.492-3.161,2.968-4.732,4.465a3.611,3.611,0,0,0-1.3,1.645c.5,1.353,2.035,2.05,2.667,3.408.054.687-.479,1.017-.879,1.422-.691.7-1.4,1.383-2.139,2.114.687,1.526,2.134,2.287,2.855,3.7-.617,1.482-2.3,2.119-3.028,3.561.642,1.437,2.129,2.173,2.815,3.709-.785,1.348-2.218,2.158-3.186,3.373Z" transform="translate(-98.926 -82.878)" fill="#9fb9ad"/>
        <path id="Path_6913" data-name="Path 6913" d="M209.385,137.832c-1.077-1.146-2.153-2.287-3.235-3.438.543-1.7,2.435-2.208,2.934-3.823-.578-1.511-2.2-2.252-2.8-3.605a1.753,1.753,0,0,1,.79-1.338c1.571-1.492,3.161-2.963,4.727-4.46a3.171,3.171,0,0,0,1.255-1.645c-.5-1.363-2.05-2.05-2.7-3.531.761-1.487,2.213-2.371,3.363-3.531a22.074,22.074,0,0,1,3.467,3.877c-.761,1.417-2.242,2.089-3.038,3.443.5,1.526,2.188,2.223,2.82,3.872-2.05,2.351-4.6,4.238-6.589,6.465-.158.859.37,1.215.731,1.645a11.433,11.433,0,0,1,1.936,2.4,23.235,23.235,0,0,1-3.665,3.675Z" transform="translate(-104.336 -56.916)" fill="#9fb9ad"/>
        <path id="Path_6914" data-name="Path 6914" d="M217.9,101.852q-1.734-1.815-3.462-3.63c1.205-1.131,2.4-2.282,3.62-3.393a29.868,29.868,0,0,1,3.788-3.329c1.19,1.215,2.277,2.326,3.363,3.438v.04a76.331,76.331,0,0,1-7.315,6.87Z" transform="translate(-108.531 -46.308)" fill="#060404"/>
        <path id="Path_6915" data-name="Path 6915" d="M176.652,83.464c-1.087-1.111-2.173-2.223-3.363-3.438a29.527,29.527,0,0,0-3.788,3.329c-1.225,1.111-2.415,2.257-3.62,3.393l.059-.015c-1.255-1.037-2.114-2.509-3.507-3.339-2.321,1.566-6.119,5.26-6.994,6.791.938,1.106,1.892,2.232,2.85,3.359a22.466,22.466,0,0,1-3.329-3.314c-1.171-1.175-2.341-2.351-3.423-3.443-.948-.148-1.348.464-1.818.9-2.5,2.331-4.984,4.682-7.483,7.013a6.789,6.789,0,0,1-1.911,1.551c-.706.069-1.052-.445-1.467-.835a10.933,10.933,0,0,0-2.3-2.1c-2.786,1.985-4.924,4.687-7.6,6.771q-4.482-4.764-8.959-9.522a6.767,6.767,0,0,1-1.516-1.926c2.46-2.228,4.8-4.593,7.325-6.786,1.719.79,2.4,2.529,3.788,3.265.884,0,1.279-.593,1.753-1.037,2.563-2.39,5.107-4.806,7.67-7.191a5.073,5.073,0,0,1,2.06-1.541c1.427.469,1.946,2.173,3.294,2.781a1.606,1.606,0,0,0,1.324-.647c1.343-1.25,2.672-2.519,4.02-3.764a6.76,6.76,0,0,1,2.035-1.605c1.462.435,2.01,2.089,3.314,2.786.588.123.953-.232,1.319-.573,1.343-1.25,2.682-2.509,4.02-3.764.6-.568,1.21-1.136,1.734-1.63,1.946.074,2.825,1.566,3.912,2.45,1.052.054,1.467-.667,2.015-1.141.691-.6,1.284-1.334,2.287-1.422,1.259,1.072,2.163,2.5,3.536,3.457,1.027,1.171,2.055,2.341,3,3.418.1.83-.415,1.171-.81,1.566-.687.691-1.393,1.363-1.961,1.921-.069.9.459,1.23.815,1.664a9.766,9.766,0,0,1,2,2.474l-.094.148h-.173Z" transform="translate(-59.966 -34.83)" fill="#b0003d"/>
        <path id="Path_6916" data-name="Path 6916" d="M124.365,157.854a12.5,12.5,0,0,1,4.025-3.754q3.341,3.519,6.658,7.078c-.632,1.689-2.361,2.282-3.087,3.833,1.9,2.687,4.549,4.746,6.549,7.409-.85,1.541-2.4,2.262-3.186,3.546a1.524,1.524,0,0,0,.622,1.358c1.363,1.462,2.736,2.909,4.094,4.371a5.9,5.9,0,0,1,1.422,1.872,18.014,18.014,0,0,1-3.423,3.487c-2.376-2.42-4.672-4.914-6.964-7.369.77-1.64,2.321-2.257,3.013-3.526.044-.736-.459-1.1-.845-1.516-1.358-1.467-2.741-2.909-4.094-4.376a3.422,3.422,0,0,1-1.18-1.768c.617-1.25,2.119-1.906,2.875-3.161-.687-1.576-1.5-2.5-6.485-7.483Z" transform="translate(-62.942 -77.989)" fill="#9fb9ad"/>
        <path id="Path_6917" data-name="Path 6917" d="M155.433,242.7l-7.171-7.616c1.027-1.082,2.055-2.163,3-3.166a1.419,1.419,0,0,0-.573-1.413c-1.363-1.467-2.741-2.919-4.1-4.381a6.094,6.094,0,0,1-1.427-1.872,17.625,17.625,0,0,1,3.418-3.5q3.238,3.438,6.475,6.88a3.227,3.227,0,0,1,.37.721c-.637,1.373-2.144,2.015-2.9,3.28-.1.7.41,1.062.79,1.477,1.294,1.4,2.613,2.776,3.907,4.178a5.823,5.823,0,0,1,1.457,1.9c-.706,1.417-2.252,2.223-3.245,3.507Z" transform="translate(-73.469 -111.726)" fill="#9fb9ad"/>
        <path id="Path_6918" data-name="Path 6918" d="M196.16,108.47c-.958-1.126-1.911-2.257-2.85-3.359.874-1.531,4.672-5.221,6.994-6.791,1.393.83,2.252,2.3,3.507,3.339-2.025,1.906-4.045,3.813-6.08,5.71-.469.435-.859,1-1.571,1.106Z" transform="translate(-97.837 -49.759)" fill="#060404"/>
        <path id="Path_6919" data-name="Path 6919" d="M175.157,309.88a27.19,27.19,0,0,1,3.447,3.665q-1.83,1.726-3.665,3.447c-1.077-1.146-2.153-2.287-3.289-3.5A13.608,13.608,0,0,1,175.157,309.88Z" transform="translate(-86.875 -156.829)" fill="#9fb9ad"/>
        <path id="Path_6920" data-name="Path 6920" d="M120.681,171.992c-.929-1.012-1.852-2.03-2.786-3.038-.227-.247-.39-.5-.212-.845.958,1,1.916,2,2.87,3.008a.686.686,0,0,1,.133.874Z" transform="translate(-59.525 -85.08)" fill="#e2a071"/>
        <path id="Path_6921" data-name="Path 6921" d="M111.778,223.046a16.789,16.789,0,0,1-2.825-2.884c-.133-.153-.109-.44-.153-.662.864.889,1.729,1.783,2.6,2.672a1.174,1.174,0,0,1,.38.879Z" transform="translate(-55.067 -111.088)" fill="#973311"/>
      </g>
      <g id="Group_3020" data-name="Group 3020" transform="translate(61.324 180.275)">
        <g id="Group_3018" data-name="Group 3018">
          <path id="Path_6922" data-name="Path 6922" d="M188.586,375.975l7.092.217.035-1.18-9.458-.291-.035,1.18C186.813,375.92,187.993,375.955,188.586,375.975Z" transform="translate(-155.573 -369.919)" fill="#f58c10"/>
          <path id="Path_6923" data-name="Path 6923" d="M181.326,378.145l1.18.035.035-1.18c-1.062-.035-2.484-.079-3.546-.109l-.035,1.18C179.553,378.09,180.733,378.125,181.326,378.145Z" transform="translate(-151.899 -371.018)" fill="#f58c10"/>
          <path id="Path_6924" data-name="Path 6924" d="M206.48,378.925c.593.02,1.773.054,2.366.074l.035-1.18c-1.062-.035-2.484-.079-3.546-.109l-.035,1.18Z" transform="translate(-165.23 -371.432)" fill="#f58c10"/>
          <path id="Path_6925" data-name="Path 6925" d="M174.076,380.315l1.18.035.035-1.18c-1.062-.035-2.484-.079-3.546-.109l-.035,1.18C172.3,380.26,173.483,380.295,174.076,380.315Z" transform="translate(-148.23 -372.116)" fill="#f58c10"/>
          <path id="Path_6926" data-name="Path 6926" d="M213.58,381.535c.593.02,1.773.054,2.366.074l.035-1.18c-1.062-.035-2.484-.079-3.546-.109l-.035,1.18Z" transform="translate(-168.823 -372.753)" fill="#f58c10"/>
          <path id="Path_6927" data-name="Path 6927" d="M169.216,382.555l.035-1.18c-.593-.02-1.773-.054-2.366-.074l-.035,1.18Z" transform="translate(-145.77 -373.249)" fill="#f58c10"/>
          <path id="Path_6928" data-name="Path 6928" d="M220.685,384.15l1.18.035L221.9,383c-.593-.02-1.773-.054-2.366-.074l-.035,1.18,1.18.035Z" transform="translate(-172.416 -374.074)" fill="#f58c10"/>
          <rect id="Rectangle_87296" data-name="Rectangle 87296" width="1.18" height="1.18" transform="translate(19.862 10.382) rotate(-88.23)" fill="#f58c10"/>
          <rect id="Rectangle_87297" data-name="Rectangle 87297" width="1.18" height="1.18" transform="translate(49.416 11.294) rotate(-88.23)" fill="#f58c10"/>
          <path id="Path_6929" data-name="Path 6929" d="M161.886,387.125l.035-1.18-2.366-.074-.035,1.18C160.113,387.07,161.293,387.1,161.886,387.125Z" transform="translate(-142.061 -375.562)" fill="#f58c10"/>
          <path id="Path_6930" data-name="Path 6930" d="M227.715,389.16l1.18.035.035-1.18c-.593-.02-1.773-.054-2.366-.074l-.035,1.18,1.18.035Z" transform="translate(-175.974 -376.61)" fill="#f58c10"/>
          <rect id="Rectangle_87298" data-name="Rectangle 87298" width="1.18" height="1.18" transform="translate(16.243 12.633) rotate(-88.23)" fill="#f58c10"/>
          <rect id="Rectangle_87299" data-name="Rectangle 87299" width="1.18" height="1.18" transform="translate(52.886 13.767) rotate(-88.23)" fill="#f58c10"/>
          <rect id="Rectangle_87300" data-name="Rectangle 87300" width="1.18" height="1.18" transform="translate(15.024 13.779) rotate(-88.23)" fill="#f58c10"/>
          <rect id="Rectangle_87301" data-name="Rectangle 87301" width="1.18" height="1.18" transform="translate(54.032 14.986) rotate(-88.23)" fill="#f58c10"/>
          <rect id="Rectangle_87302" data-name="Rectangle 87302" width="1.18" height="1.18" transform="translate(13.805 14.925) rotate(-88.23)" fill="#f58c10"/>
          <rect id="Rectangle_87303" data-name="Rectangle 87303" width="1.18" height="1.18" transform="translate(55.178 16.204) rotate(-88.23)" fill="#f58c10"/>
          <rect id="Rectangle_87304" data-name="Rectangle 87304" width="1.18" height="1.18" transform="translate(12.587 16.071) rotate(-88.23)" fill="#f58c10"/>
          <rect id="Rectangle_87305" data-name="Rectangle 87305" width="1.18" height="1.18" transform="translate(56.324 17.423) rotate(-88.23)" fill="#f58c10"/>
          <rect id="Rectangle_87306" data-name="Rectangle 87306" width="2.366" height="1.18" transform="translate(11.329 18.401) rotate(-88.23)" fill="#f58c10"/>
          <rect id="Rectangle_87307" data-name="Rectangle 87307" width="2.366" height="1.18" transform="translate(57.436 19.825) rotate(-88.23)" fill="#f58c10"/>
          <rect id="Rectangle_87308" data-name="Rectangle 87308" width="1.18" height="1.185" transform="translate(10.108 19.541) rotate(-88.23)" fill="#f58c10"/>
          <rect id="Rectangle_87309" data-name="Rectangle 87309" width="1.18" height="1.18" transform="translate(58.575 21.043) rotate(-88.23)" fill="#f58c10"/>
          <rect id="Rectangle_87310" data-name="Rectangle 87310" width="2.366" height="1.18" transform="translate(8.856 21.875) rotate(-88.23)" fill="#f58c10"/>
          <path id="Path_6931" data-name="Path 6931" d="M245.01,410.036l1.18.035.074-2.366-1.18-.035C245.064,408.263,245.03,409.443,245.01,410.036Z" transform="translate(-185.327 -386.595)" fill="#f58c10"/>
          <path id="Path_6932" data-name="Path 6932" d="M247.225,414.9l-.035,1.18,1.18.035c.035-1.062.079-2.484.109-3.546l-1.18-.035c-.02.593-.054,1.773-.074,2.366Z" transform="translate(-186.43 -389.055)" fill="#f58c10"/>
          <rect id="Rectangle_87311" data-name="Rectangle 87311" width="3.546" height="1.18" transform="translate(7.567 25.382) rotate(-88.23)" fill="#f58c10"/>
          <path id="Path_6933" data-name="Path 6933" d="M249.395,422.156l-.035,1.18,1.18.035c.035-1.062.079-2.484.109-3.546l-1.18-.035C249.449,420.383,249.414,421.563,249.395,422.156Z" transform="translate(-187.528 -392.729)" fill="#f58c10"/>
          <rect id="Rectangle_87312" data-name="Rectangle 87312" width="3.546" height="1.185" transform="translate(6.276 28.893) rotate(-88.23)" fill="#f58c10"/>
          <path id="Path_6934" data-name="Path 6934" d="M252.449,432.987c.059-1.892.123-4.02.183-5.912l-1.18-.035c-.094,3.072-.2,6.381-.291,9.458l1.18.035C252.375,435.471,252.419,434.048,252.449,432.987Z" transform="translate(-188.439 -396.398)" fill="#f58c10"/>
          <rect id="Rectangle_87313" data-name="Rectangle 87313" width="9.458" height="1.18" transform="translate(4.8 38.307) rotate(-88.23)" fill="#f58c10"/>
          <path id="Path_6935" data-name="Path 6935" d="M248.614,447.3l-.074,2.366,1.18.035c.035-1.062.079-2.484.109-3.546l-1.18-.035Z" transform="translate(-187.113 -406.055)" fill="#f58c10"/>
          <path id="Path_6936" data-name="Path 6936" d="M193.316,401.766l-.291,9.458-1.19-.039-.109,3.546-1.18-.035-.109,3.546-1.185-.04-.074,2.366-1.18-.035-.035,1.18-1.18-.039-.069,2.366-1.19-.035-.035,1.185-1.18-.035-.035,1.176-1.185-.035-.039,1.18-1.18-.04-.035,1.19-2.366-.074-.035,1.18-1.18-.04-.04,1.18-2.366-.074-.035,1.185-3.546-.109-.035,1.18-3.546-.109-.035,1.185-9.458-.291.04-1.185-3.546-.114.035-1.176-3.546-.114.04-1.185L149.848,430l.035-1.175-1.176-.04.035-1.18-2.366-.069.035-1.185-1.185-.039.04-1.18-1.18-.035.035-1.18-1.18-.035.039-1.185-1.185-.04.069-2.366-1.175-.035.035-1.18-1.185-.035.074-2.366-1.18-.04.109-3.546-1.18-.035.109-3.546-1.185-.035.291-9.458,1.19.04.109-3.546,1.175.035.114-3.541,1.175.035.074-2.366,1.185.035.04-1.175,1.18.035.069-2.366,1.19.04.035-1.19,1.18.04.035-1.18,1.18.035.035-1.18,1.19.04.035-1.185,2.366.074.035-1.18,1.18.035.035-1.18,2.366.074.04-1.185,3.546.109.035-1.18,3.546.114.035-1.19,9.458.291-.04,1.19,3.546.109-.035,1.18,3.541.109-.035,1.185,2.366.074-.035,1.18,1.176.035-.035,1.18,2.366.074-.035,1.185,1.175.035-.035,1.18,1.185.035-.035,1.18,1.18.04-.04,1.185,1.185.035-.069,2.366,1.175.035-.035,1.18,1.18.04-.074,2.366,1.185.035-.109,3.546,1.18.035-.109,3.546Z" transform="translate(-130.299 -371.124)" fill="#f6ca0e"/>
          <rect id="Rectangle_87314" data-name="Rectangle 87314" width="3.546" height="1.185" transform="translate(5.872 41.894) rotate(-88.23)" fill="#f58c10"/>
          <path id="Path_6937" data-name="Path 6937" d="M246,454.4c-.02.593-.054,1.773-.074,2.366l1.18.035.109-3.546-1.18-.035Z" transform="translate(-185.792 -409.648)" fill="#f58c10"/>
          <rect id="Rectangle_87315" data-name="Rectangle 87315" width="3.546" height="1.18" transform="translate(6.945 45.477) rotate(-88.23)" fill="#f58c10"/>
          <rect id="Rectangle_87316" data-name="Rectangle 87316" width="2.366" height="1.18" transform="translate(8.053 47.877) rotate(-88.23)" fill="#f58c10"/>
          <path id="Path_6938" data-name="Path 6938" d="M243.425,461.505l-.035,1.18,1.18.035.074-2.366-1.18-.035-.035,1.18Z" transform="translate(-184.507 -413.241)" fill="#f58c10"/>
          <rect id="Rectangle_87317" data-name="Rectangle 87317" width="1.18" height="1.185" transform="translate(9.202 49.09) rotate(-88.23)" fill="#f58c10"/>
          <rect id="Rectangle_87318" data-name="Rectangle 87318" width="1.18" height="1.18" transform="translate(57.663 50.586) rotate(-88.23)" fill="#f58c10"/>
          <rect id="Rectangle_87319" data-name="Rectangle 87319" width="2.366" height="1.18" transform="translate(10.314 51.492) rotate(-88.23)" fill="#f58c10"/>
          <rect id="Rectangle_87320" data-name="Rectangle 87320" width="2.366" height="1.18" transform="translate(56.411 52.916) rotate(-88.23)" fill="#f58c10"/>
          <rect id="Rectangle_87321" data-name="Rectangle 87321" width="1.185" height="1.185" transform="translate(11.453 52.714) rotate(-88.23)" fill="#f58c10"/>
          <rect id="Rectangle_87322" data-name="Rectangle 87322" width="1.185" height="1.185" transform="translate(55.185 54.066) rotate(-88.23)" fill="#f58c10"/>
          <rect id="Rectangle_87323" data-name="Rectangle 87323" width="1.18" height="1.18" transform="translate(12.604 53.933) rotate(-88.23)" fill="#f58c10"/>
          <rect id="Rectangle_87324" data-name="Rectangle 87324" width="1.18" height="1.18" transform="translate(53.971 55.212) rotate(-88.23)" fill="#f58c10"/>
          <rect id="Rectangle_87325" data-name="Rectangle 87325" width="1.18" height="1.18" transform="translate(13.75 55.147) rotate(-88.23)" fill="#f58c10"/>
          <rect id="Rectangle_87326" data-name="Rectangle 87326" width="1.18" height="1.185" transform="translate(52.748 56.353) rotate(-88.23)" fill="#f58c10"/>
          <rect id="Rectangle_87327" data-name="Rectangle 87327" width="1.185" height="1.185" transform="translate(14.891 56.375) rotate(-88.23)" fill="#f58c10"/>
          <rect id="Rectangle_87328" data-name="Rectangle 87328" width="1.185" height="1.18" transform="translate(51.534 57.504) rotate(-88.23)" fill="#f58c10"/>
          <rect id="Rectangle_87329" data-name="Rectangle 87329" width="1.18" height="2.366" transform="translate(16.041 57.591) rotate(-88.23)" fill="#f58c10"/>
          <rect id="Rectangle_87330" data-name="Rectangle 87330" width="1.18" height="2.366" transform="translate(49.132 58.611) rotate(-88.23)" fill="#f58c10"/>
          <rect id="Rectangle_87331" data-name="Rectangle 87331" width="1.18" height="1.18" transform="translate(18.37 58.839) rotate(-88.23)" fill="#f58c10"/>
          <rect id="Rectangle_87332" data-name="Rectangle 87332" width="1.18" height="1.18" transform="translate(47.914 59.755) rotate(-88.23)" fill="#f58c10"/>
          <rect id="Rectangle_87333" data-name="Rectangle 87333" width="1.185" height="2.366" transform="translate(19.51 60.059) rotate(-88.23)" fill="#f58c10"/>
          <rect id="Rectangle_87334" data-name="Rectangle 87334" width="1.185" height="2.366" transform="translate(45.512 60.867) rotate(-88.23)" fill="#f58c10"/>
          <rect id="Rectangle_87335" data-name="Rectangle 87335" width="1.18" height="3.546" transform="translate(41.932 61.938) rotate(-88.23)" fill="#f58c10"/>
          <rect id="Rectangle_87336" data-name="Rectangle 87336" width="1.185" height="3.546" transform="translate(25.353 62.608) rotate(-88.23)" fill="#f58c10"/>
          <rect id="Rectangle_87337" data-name="Rectangle 87337" width="1.185" height="3.546" transform="translate(38.349 63.012) rotate(-88.23)" fill="#f58c10"/>
          <rect id="Rectangle_87338" data-name="Rectangle 87338" width="1.18" height="9.458" transform="translate(28.858 63.901) rotate(-88.23)" fill="#f58c10"/>
          <g id="Group_3017" data-name="Group 3017">
            <path id="Path_6939" data-name="Path 6939" d="M184.1,366.254c3.9.119,7.917.247,11.819.366l.035-1.18q-7.09-.222-14.185-.44l-.035,1.18C182.323,366.2,183.5,366.235,184.1,366.254Z" transform="translate(-153.301 -365)" fill="#f4f558"/>
            <path id="Path_6940" data-name="Path 6940" d="M176.836,368.425l1.18.035.035-1.18c-1.062-.035-2.484-.079-3.546-.109l-.035,1.18C175.063,368.37,176.243,368.4,176.836,368.425Z" transform="translate(-149.627 -366.098)" fill="#f4f558"/>
            <path id="Path_6941" data-name="Path 6941" d="M169.586,370.595l1.18.035.035-1.18c-1.062-.035-2.484-.079-3.546-.109l-.035,1.18C167.813,370.54,168.993,370.575,169.586,370.595Z" transform="translate(-145.957 -367.196)" fill="#f4f558"/>
            <path id="Path_6942" data-name="Path 6942" d="M164.726,372.835l.035-1.18c-.593-.02-1.773-.054-2.366-.074l-.035,1.18C162.953,372.78,164.133,372.815,164.726,372.835Z" transform="translate(-143.498 -368.33)" fill="#f4f558"/>
            <rect id="Rectangle_87339" data-name="Rectangle 87339" width="1.18" height="1.18" transform="translate(17.648 5.58) rotate(-88.23)" fill="#f4f558"/>
            <path id="Path_6943" data-name="Path 6943" d="M157.4,377.4l.035-1.18c-.593-.02-1.773-.054-2.366-.074l-.035,1.18Z" transform="translate(-139.788 -370.643)" fill="#f4f558"/>
            <rect id="Rectangle_87340" data-name="Rectangle 87340" width="1.18" height="1.18" transform="translate(14.023 7.836) rotate(-88.23)" fill="#f4f558"/>
            <rect id="Rectangle_87341" data-name="Rectangle 87341" width="1.18" height="1.18" transform="translate(12.804 8.977) rotate(-88.23)" fill="#f4f558"/>
            <rect id="Rectangle_87342" data-name="Rectangle 87342" width="1.18" height="1.18" transform="translate(11.586 10.123) rotate(-88.23)" fill="#f4f558"/>
            <rect id="Rectangle_87343" data-name="Rectangle 87343" width="1.18" height="1.18" transform="translate(10.372 11.274) rotate(-88.23)" fill="#f4f558"/>
            <rect id="Rectangle_87344" data-name="Rectangle 87344" width="1.18" height="1.18" transform="translate(9.154 12.415) rotate(-88.23)" fill="#f4f558"/>
            <rect id="Rectangle_87345" data-name="Rectangle 87345" width="1.18" height="1.18" transform="translate(7.935 13.561) rotate(-88.23)" fill="#f4f558"/>
            <path id="Path_6944" data-name="Path 6944" d="M138.91,393.605l.035-1.18-1.18-.035c-.02.593-.054,1.773-.074,2.366l1.18.035.035-1.18Z" transform="translate(-131.012 -378.862)" fill="#f4f558"/>
            <rect id="Rectangle_87346" data-name="Rectangle 87346" width="1.18" height="1.18" transform="translate(5.461 17.036) rotate(-88.23)" fill="#f4f558"/>
            <path id="Path_6945" data-name="Path 6945" d="M133.9,400.635l.035-1.18-1.18-.035c-.02.593-.054,1.773-.074,2.366l1.18.035.035-1.18Z" transform="translate(-128.477 -382.42)" fill="#f4f558"/>
            <path id="Path_6946" data-name="Path 6946" d="M131.295,406.53c.02-.593.054-1.773.074-2.366l-1.18-.035c-.035,1.062-.079,2.484-.109,3.546l1.18.035.035-1.18Z" transform="translate(-127.161 -384.804)" fill="#f4f558"/>
            <path id="Path_6947" data-name="Path 6947" d="M128.675,413.63l.074-2.366-1.18-.035c-.035,1.062-.079,2.484-.109,3.546l1.18.035Z" transform="translate(-125.835 -388.397)" fill="#f4f558"/>
            <path id="Path_6948" data-name="Path 6948" d="M125.425,430.194c.119-3.9.247-7.917.365-11.819l-1.18-.035-.44,14.185,1.18.035C125.37,431.967,125.4,430.786,125.425,430.194Z" transform="translate(-124.17 -391.995)" fill="#f4f558"/>
            <path id="Path_6949" data-name="Path 6949" d="M127.595,448.355l.035-1.18-1.18-.035c-.035,1.062-.079,2.484-.109,3.546l1.18.035C127.54,450.128,127.575,448.948,127.595,448.355Z" transform="translate(-125.268 -406.571)" fill="#f4f558"/>
            <path id="Path_6950" data-name="Path 6950" d="M129.775,455.605l.035-1.18-1.18-.035c-.035,1.062-.079,2.484-.109,3.546l1.18.035C129.72,457.378,129.755,456.2,129.775,455.605Z" transform="translate(-126.372 -410.24)" fill="#f4f558"/>
            <path id="Path_6951" data-name="Path 6951" d="M132.015,461.675l-1.18-.035c-.02.593-.054,1.773-.074,2.366l1.18.035C131.96,463.448,131.995,462.267,132.015,461.675Z" transform="translate(-127.505 -413.909)" fill="#f4f558"/>
            <rect id="Rectangle_87347" data-name="Rectangle 87347" width="1.18" height="1.18" transform="translate(4.4 51.309) rotate(-88.23)" fill="#f4f558"/>
            <path id="Path_6952" data-name="Path 6952" d="M136.585,469l-1.18-.035c-.02.593-.054,1.773-.074,2.366l1.18.035C136.53,470.778,136.565,469.6,136.585,469Z" transform="translate(-129.818 -417.619)" fill="#f4f558"/>
            <rect id="Rectangle_87348" data-name="Rectangle 87348" width="1.18" height="1.18" transform="translate(6.656 54.934) rotate(-88.23)" fill="#f4f558"/>
            <rect id="Rectangle_87349" data-name="Rectangle 87349" width="1.18" height="1.18" transform="translate(7.802 56.148) rotate(-88.23)" fill="#f4f558"/>
            <rect id="Rectangle_87350" data-name="Rectangle 87350" width="1.18" height="1.18" transform="translate(8.943 57.366) rotate(-88.23)" fill="#f4f558"/>
            <rect id="Rectangle_87351" data-name="Rectangle 87351" width="1.18" height="1.18" transform="translate(10.089 58.585) rotate(-88.23)" fill="#f4f558"/>
            <rect id="Rectangle_87352" data-name="Rectangle 87352" width="1.18" height="1.18" transform="translate(11.235 59.803) rotate(-88.23)" fill="#f4f558"/>
            <rect id="Rectangle_87353" data-name="Rectangle 87353" width="1.18" height="1.18" transform="translate(12.386 61.022) rotate(-88.23)" fill="#f4f558"/>
            <path id="Path_6953" data-name="Path 6953" d="M152.785,488.665l-1.18-.035-.035,1.18,2.366.074.035-1.18-1.18-.035Z" transform="translate(-138.037 -427.569)" fill="#f4f558"/>
            <rect id="Rectangle_87354" data-name="Rectangle 87354" width="1.18" height="1.18" transform="translate(15.851 63.495) rotate(-88.23)" fill="#f4f558"/>
            <path id="Path_6954" data-name="Path 6954" d="M159.815,493.675l-1.18-.034-.035,1.18c.593.02,1.773.054,2.366.074l.035-1.18-1.18-.035Z" transform="translate(-141.595 -430.104)" fill="#f4f558"/>
            <path id="Path_6955" data-name="Path 6955" d="M165.7,496.244c-.593-.02-1.773-.054-2.366-.074l-.035,1.18c1.062.035,2.484.079,3.546.109l.035-1.18Z" transform="translate(-143.974 -431.385)" fill="#f4f558"/>
            <path id="Path_6956" data-name="Path 6956" d="M172.81,498.864c-.593-.02-1.773-.054-2.366-.074l-.035,1.18,3.546.109.035-1.18Z" transform="translate(-147.572 -432.711)" fill="#f4f558"/>
            <g id="Group_3015" data-name="Group 3015" transform="translate(24.451 35.522)">
              <rect id="Rectangle_87355" data-name="Rectangle 87355" width="7.092" height="1.19" transform="translate(42.922 7.089) rotate(-88.23)" fill="#ae033d"/>
              <rect id="Rectangle_87356" data-name="Rectangle 87356" width="3.551" height="1.18" transform="translate(41.629 10.596) rotate(-88.23)" fill="#ae033d"/>
              <rect id="Rectangle_87357" data-name="Rectangle 87357" width="3.551" height="1.18" transform="translate(40.343 14.107) rotate(-88.23)" fill="#ae033d"/>
              <rect id="Rectangle_87358" data-name="Rectangle 87358" width="2.361" height="1.18" transform="translate(39.091 16.429) rotate(-88.23)" fill="#ae033d"/>
              <rect id="Rectangle_87359" data-name="Rectangle 87359" width="1.19" height="1.19" transform="translate(37.864 17.579) rotate(-88.23)" fill="#ae033d"/>
              <rect id="Rectangle_87360" data-name="Rectangle 87360" width="2.361" height="1.18" transform="translate(36.612 19.909) rotate(-88.23)" fill="#ae033d"/>
              <rect id="Rectangle_87361" data-name="Rectangle 87361" width="1.18" height="1.18" transform="translate(35.396 21.049) rotate(-88.23)" fill="#ae033d"/>
              <rect id="Rectangle_87362" data-name="Rectangle 87362" width="1.19" height="1.18" transform="translate(34.177 22.205) rotate(-88.23)" fill="#ae033d"/>
              <rect id="Rectangle_87363" data-name="Rectangle 87363" width="1.18" height="1.19" transform="translate(32.954 23.346) rotate(-88.23)" fill="#ae033d"/>
              <rect id="Rectangle_87364" data-name="Rectangle 87364" width="1.18" height="1.18" transform="translate(31.735 24.487) rotate(-88.23)" fill="#ae033d"/>
              <rect id="Rectangle_87365" data-name="Rectangle 87365" width="1.18" height="1.18" transform="translate(30.521 25.633) rotate(-88.23)" fill="#ae033d"/>
              <rect id="Rectangle_87366" data-name="Rectangle 87366" width="1.18" height="1.18" transform="translate(29.303 26.779) rotate(-88.23)" fill="#ae033d"/>
              <rect id="Rectangle_87367" data-name="Rectangle 87367" width="1.19" height="2.371" transform="translate(26.901 27.891) rotate(-88.23)" fill="#ae033d"/>
              <rect id="Rectangle_87368" data-name="Rectangle 87368" width="1.18" height="1.18" transform="translate(25.678 29.035) rotate(-88.23)" fill="#ae033d"/>
              <rect id="Rectangle_87369" data-name="Rectangle 87369" width="1.18" height="2.361" transform="translate(23.286 30.142) rotate(-88.23)" fill="#ae033d"/>
              <rect id="Rectangle_87370" data-name="Rectangle 87370" width="1.18" height="3.551" transform="translate(19.702 31.213) rotate(-88.23)" fill="#ae033d"/>
              <rect id="Rectangle_87371" data-name="Rectangle 87371" width="1.19" height="3.551" transform="translate(16.118 32.292) rotate(-88.23)" fill="#ae033d"/>
              <rect id="Rectangle_87372" data-name="Rectangle 87372" width="1.18" height="16.294" transform="translate(0 32.977) rotate(-88.23)" fill="#ae033d"/>
              <rect id="Rectangle_87373" data-name="Rectangle 87373" width="7.804" height="1.19" transform="translate(43.614 7.817) rotate(-88.23)" fill="#ae033d"/>
              <rect id="Rectangle_87374" data-name="Rectangle 87374" width="0.711" height="0.711" transform="translate(42.904 7.796) rotate(-88.23)" fill="#ae033d"/>
              <rect id="Rectangle_87375" data-name="Rectangle 87375" width="3.551" height="1.18" transform="translate(42.322 11.326) rotate(-88.23)" fill="#ae033d"/>
              <rect id="Rectangle_87376" data-name="Rectangle 87376" width="0.711" height="0.711" transform="translate(41.613 11.307) rotate(-88.23)" fill="#ae033d"/>
              <rect id="Rectangle_87377" data-name="Rectangle 87377" width="3.551" height="1.18" transform="translate(41.03 14.841) rotate(-88.23)" fill="#ae033d"/>
              <rect id="Rectangle_87378" data-name="Rectangle 87378" width="0.711" height="0.711" transform="translate(40.322 14.823) rotate(-88.23)" fill="#ae033d"/>
              <rect id="Rectangle_87379" data-name="Rectangle 87379" width="2.361" height="1.18" transform="translate(39.778 17.169) rotate(-88.23)" fill="#ae033d"/>
              <rect id="Rectangle_87380" data-name="Rectangle 87380" width="0.711" height="0.711" transform="translate(39.067 17.141) rotate(-88.23)" fill="#ae033d"/>
              <rect id="Rectangle_87381" data-name="Rectangle 87381" width="1.19" height="1.19" transform="translate(38.557 18.318) rotate(-88.23)" fill="#ae033d"/>
              <rect id="Rectangle_87382" data-name="Rectangle 87382" width="0.711" height="0.711" transform="translate(37.843 18.292) rotate(-88.23)" fill="#ae033d"/>
              <rect id="Rectangle_87383" data-name="Rectangle 87383" width="2.361" height="1.18" transform="translate(37.3 20.638) rotate(-88.23)" fill="#ae033d"/>
              <rect id="Rectangle_87384" data-name="Rectangle 87384" width="0.711" height="0.711" transform="translate(36.588 20.621) rotate(-88.23)" fill="#ae033d"/>
              <rect id="Rectangle_87385" data-name="Rectangle 87385" width="1.18" height="1.18" transform="translate(36.084 21.783) rotate(-88.23)" fill="#ae033d"/>
              <rect id="Rectangle_87386" data-name="Rectangle 87386" width="0.711" height="0.711" transform="translate(35.37 21.762) rotate(-88.23)" fill="#ae033d"/>
              <rect id="Rectangle_87387" data-name="Rectangle 87387" width="1.19" height="1.18" transform="translate(34.87 22.934) rotate(-88.23)" fill="#ae033d"/>
              <rect id="Rectangle_87388" data-name="Rectangle 87388" width="0.711" height="0.711" transform="translate(34.156 22.913) rotate(-88.23)" fill="#ae033d"/>
              <rect id="Rectangle_87389" data-name="Rectangle 87389" width="1.18" height="1.19" transform="translate(33.641 24.075) rotate(-88.23)" fill="#ae033d"/>
              <rect id="Rectangle_87390" data-name="Rectangle 87390" width="0.711" height="0.711" transform="translate(32.932 24.059) rotate(-88.23)" fill="#ae033d"/>
              <rect id="Rectangle_87391" data-name="Rectangle 87391" width="1.18" height="1.18" transform="translate(32.423 25.226) rotate(-88.23)" fill="#ae033d"/>
              <rect id="Rectangle_87392" data-name="Rectangle 87392" width="0.711" height="0.711" transform="translate(31.719 25.2) rotate(-88.23)" fill="#ae033d"/>
              <rect id="Rectangle_87393" data-name="Rectangle 87393" width="1.18" height="1.18" transform="translate(31.209 26.367) rotate(-88.23)" fill="#ae033d"/>
              <rect id="Rectangle_87394" data-name="Rectangle 87394" width="0.711" height="0.711" transform="translate(30.495 26.341) rotate(-88.23)" fill="#ae033d"/>
              <rect id="Rectangle_87395" data-name="Rectangle 87395" width="1.18" height="1.18" transform="translate(29.996 27.508) rotate(-88.23)" fill="#ae033d"/>
              <rect id="Rectangle_87396" data-name="Rectangle 87396" width="0.711" height="0.711" transform="translate(29.282 27.492) rotate(-88.23)" fill="#ae033d"/>
              <rect id="Rectangle_87397" data-name="Rectangle 87397" width="1.19" height="2.371" transform="translate(27.588 28.625) rotate(-88.23)" fill="#ae033d"/>
              <rect id="Rectangle_87398" data-name="Rectangle 87398" width="0.711" height="0.711" transform="translate(26.876 28.607) rotate(-88.23)" fill="#ae033d"/>
              <rect id="Rectangle_87399" data-name="Rectangle 87399" width="1.18" height="1.18" transform="translate(26.371 29.769) rotate(-88.23)" fill="#ae033d"/>
              <rect id="Rectangle_87400" data-name="Rectangle 87400" width="0.711" height="0.711" transform="translate(25.662 29.748) rotate(-88.23)" fill="#ae033d"/>
              <rect id="Rectangle_87401" data-name="Rectangle 87401" width="1.18" height="2.361" transform="translate(23.974 30.877) rotate(-88.23)" fill="#ae033d"/>
              <rect id="Rectangle_87402" data-name="Rectangle 87402" width="0.711" height="0.711" transform="translate(23.261 30.853) rotate(-88.23)" fill="#ae033d"/>
              <rect id="Rectangle_87403" data-name="Rectangle 87403" width="1.18" height="3.551" transform="translate(20.389 31.947) rotate(-88.23)" fill="#ae033d"/>
              <rect id="Rectangle_87404" data-name="Rectangle 87404" width="0.711" height="0.711" transform="translate(19.678 31.926) rotate(-88.23)" fill="#ae033d"/>
              <rect id="Rectangle_87405" data-name="Rectangle 87405" width="1.19" height="3.551" transform="translate(16.806 33.021) rotate(-88.23)" fill="#ae033d"/>
              <rect id="Rectangle_87406" data-name="Rectangle 87406" width="0.711" height="0.711" transform="translate(16.094 33.005) rotate(-88.23)" fill="#ae033d"/>
              <rect id="Rectangle_87407" data-name="Rectangle 87407" width="1.18" height="14.195" transform="translate(2.585 33.765) rotate(-88.23)" fill="#ae033d"/>
            </g>
            <g id="Group_3016" data-name="Group 3016" transform="translate(42.578 0.901)">
              <rect id="Rectangle_87408" data-name="Rectangle 87408" width="7.092" height="1.19" transform="translate(25.017 34.616) rotate(-88.23)" fill="#ae033d"/>
              <rect id="Rectangle_87409" data-name="Rectangle 87409" width="3.551" height="1.18" transform="translate(24.05 27.492) rotate(-88.23)" fill="#ae033d"/>
              <rect id="Rectangle_87410" data-name="Rectangle 87410" width="3.551" height="1.18" transform="translate(22.987 23.909) rotate(-88.23)" fill="#ae033d"/>
              <rect id="Rectangle_87411" data-name="Rectangle 87411" width="2.361" height="1.18" transform="translate(21.911 20.319) rotate(-88.23)" fill="#ae033d"/>
              <rect id="Rectangle_87412" data-name="Rectangle 87412" width="1.19" height="1.19" transform="translate(20.798 17.927) rotate(-88.23)" fill="#ae033d"/>
              <rect id="Rectangle_87413" data-name="Rectangle 87413" width="2.361" height="1.18" transform="translate(19.655 16.7) rotate(-88.23)" fill="#ae033d"/>
              <rect id="Rectangle_87414" data-name="Rectangle 87414" width="1.18" height="1.18" transform="translate(18.548 14.308) rotate(-88.23)" fill="#ae033d"/>
              <rect id="Rectangle_87415" data-name="Rectangle 87415" width="1.19" height="1.18" transform="translate(17.401 13.089) rotate(-88.23)" fill="#ae033d"/>
              <rect id="Rectangle_87416" data-name="Rectangle 87416" width="1.18" height="1.19" transform="translate(16.25 11.865) rotate(-88.23)" fill="#ae033d"/>
              <rect id="Rectangle_87417" data-name="Rectangle 87417" width="1.18" height="1.18" transform="translate(15.104 10.647) rotate(-88.23)" fill="#ae033d"/>
              <rect id="Rectangle_87418" data-name="Rectangle 87418" width="1.18" height="1.18" transform="translate(13.963 9.428) rotate(-88.23)" fill="#ae033d"/>
              <rect id="Rectangle_87419" data-name="Rectangle 87419" width="1.18" height="1.18" transform="translate(12.822 8.215) rotate(-88.23)" fill="#ae033d"/>
              <rect id="Rectangle_87420" data-name="Rectangle 87420" width="1.19" height="2.371" transform="translate(10.487 6.962) rotate(-88.23)" fill="#ae033d"/>
              <rect id="Rectangle_87421" data-name="Rectangle 87421" width="1.18" height="1.18" transform="translate(9.343 5.736) rotate(-88.23)" fill="#ae033d"/>
              <rect id="Rectangle_87422" data-name="Rectangle 87422" width="1.18" height="2.361" transform="translate(7.018 4.483) rotate(-88.23)" fill="#ae033d"/>
              <rect id="Rectangle_87423" data-name="Rectangle 87423" width="1.18" height="3.551" transform="translate(3.511 3.19) rotate(-88.23)" fill="#ae033d"/>
              <rect id="Rectangle_87424" data-name="Rectangle 87424" width="1.19" height="3.551" transform="translate(0 1.899) rotate(-88.23)" fill="#ae033d"/>
              <rect id="Rectangle_87425" data-name="Rectangle 87425" width="7.804" height="1.19" transform="translate(25.725 34.641) rotate(-88.23)" fill="#ae033d"/>
              <rect id="Rectangle_87426" data-name="Rectangle 87426" width="0.711" height="0.711" transform="translate(25.232 27.526) rotate(-88.23)" fill="#ae033d"/>
              <rect id="Rectangle_87427" data-name="Rectangle 87427" width="3.551" height="1.18" transform="translate(24.784 26.805) rotate(-88.23)" fill="#ae033d"/>
              <rect id="Rectangle_87428" data-name="Rectangle 87428" width="0.711" height="0.711" transform="translate(24.159 23.942) rotate(-88.23)" fill="#ae033d"/>
              <rect id="Rectangle_87429" data-name="Rectangle 87429" width="3.551" height="1.18" transform="translate(23.716 23.216) rotate(-88.23)" fill="#ae033d"/>
              <rect id="Rectangle_87430" data-name="Rectangle 87430" width="0.711" height="0.711" transform="translate(23.09 20.359) rotate(-88.23)" fill="#ae033d"/>
              <rect id="Rectangle_87431" data-name="Rectangle 87431" width="2.361" height="1.18" transform="translate(22.64 19.637) rotate(-88.23)" fill="#ae033d"/>
              <rect id="Rectangle_87432" data-name="Rectangle 87432" width="0.711" height="0.711" transform="translate(21.985 17.963) rotate(-88.23)" fill="#ae033d"/>
              <rect id="Rectangle_87433" data-name="Rectangle 87433" width="1.19" height="1.19" transform="translate(21.528 17.234) rotate(-88.23)" fill="#ae033d"/>
              <rect id="Rectangle_87434" data-name="Rectangle 87434" width="0.711" height="0.711" transform="translate(20.834 16.739) rotate(-88.23)" fill="#ae033d"/>
              <rect id="Rectangle_87435" data-name="Rectangle 87435" width="2.361" height="1.18" transform="translate(20.384 16.012) rotate(-88.23)" fill="#ae033d"/>
              <rect id="Rectangle_87436" data-name="Rectangle 87436" width="0.711" height="0.711" transform="translate(19.725 14.338) rotate(-88.23)" fill="#ae033d"/>
              <rect id="Rectangle_87437" data-name="Rectangle 87437" width="1.18" height="1.18" transform="translate(19.277 13.615) rotate(-88.23)" fill="#ae033d"/>
              <rect id="Rectangle_87438" data-name="Rectangle 87438" width="0.711" height="0.711" transform="translate(18.578 13.125) rotate(-88.23)" fill="#ae033d"/>
              <rect id="Rectangle_87439" data-name="Rectangle 87439" width="1.19" height="1.18" transform="translate(18.136 12.401) rotate(-88.23)" fill="#ae033d"/>
              <rect id="Rectangle_87440" data-name="Rectangle 87440" width="0.711" height="0.711" transform="translate(17.442 11.896) rotate(-88.23)" fill="#ae033d"/>
              <rect id="Rectangle_87441" data-name="Rectangle 87441" width="1.18" height="1.19" transform="translate(16.98 11.172) rotate(-88.23)" fill="#ae033d"/>
              <rect id="Rectangle_87442" data-name="Rectangle 87442" width="0.711" height="0.711" transform="translate(16.286 10.682) rotate(-88.23)" fill="#ae033d"/>
              <rect id="Rectangle_87443" data-name="Rectangle 87443" width="1.18" height="1.18" transform="translate(15.844 9.954) rotate(-88.23)" fill="#ae033d"/>
              <rect id="Rectangle_87444" data-name="Rectangle 87444" width="0.711" height="0.711" transform="translate(15.145 9.464) rotate(-88.23)" fill="#ae033d"/>
              <rect id="Rectangle_87445" data-name="Rectangle 87445" width="1.18" height="1.18" transform="translate(14.693 8.74) rotate(-88.23)" fill="#ae033d"/>
              <rect id="Rectangle_87446" data-name="Rectangle 87446" width="0.711" height="0.711" transform="translate(14.004 8.245) rotate(-88.23)" fill="#ae033d"/>
              <rect id="Rectangle_87447" data-name="Rectangle 87447" width="1.18" height="1.18" transform="translate(13.551 7.527) rotate(-88.23)" fill="#ae033d"/>
              <rect id="Rectangle_87448" data-name="Rectangle 87448" width="0.711" height="0.711" transform="translate(12.853 7.032) rotate(-88.23)" fill="#ae033d"/>
              <rect id="Rectangle_87449" data-name="Rectangle 87449" width="1.19" height="2.371" transform="translate(11.222 6.269) rotate(-88.23)" fill="#ae033d"/>
              <rect id="Rectangle_87450" data-name="Rectangle 87450" width="0.711" height="0.711" transform="translate(10.524 5.772) rotate(-88.23)" fill="#ae033d"/>
              <rect id="Rectangle_87451" data-name="Rectangle 87451" width="1.18" height="1.18" transform="translate(10.077 5.043) rotate(-88.23)" fill="#ae033d"/>
              <rect id="Rectangle_87452" data-name="Rectangle 87452" width="0.711" height="0.711" transform="translate(9.383 4.558) rotate(-88.23)" fill="#ae033d"/>
              <rect id="Rectangle_87453" data-name="Rectangle 87453" width="1.18" height="2.361" transform="translate(7.752 3.791) rotate(-88.23)" fill="#ae033d"/>
              <rect id="Rectangle_87454" data-name="Rectangle 87454" width="0.711" height="0.711" transform="translate(7.06 3.298) rotate(-88.23)" fill="#ae033d"/>
              <rect id="Rectangle_87455" data-name="Rectangle 87455" width="1.18" height="3.551" transform="translate(4.24 2.502) rotate(-88.23)" fill="#ae033d"/>
              <rect id="Rectangle_87456" data-name="Rectangle 87456" width="0.711" height="0.711" transform="translate(3.544 2.012) rotate(-88.23)" fill="#ae033d"/>
              <rect id="Rectangle_87457" data-name="Rectangle 87457" width="1.19" height="3.551" transform="translate(0.729 1.216) rotate(-88.23)" fill="#ae033d"/>
              <rect id="Rectangle_87458" data-name="Rectangle 87458" width="0.711" height="0.711" transform="translate(0.033 0.711) rotate(-88.23)" fill="#ae033d"/>
            </g>
          </g>
        </g>
        <path id="Path_6957" data-name="Path 6957" d="M168.256,427.273h0v.01h.01l-.04,1.23c.449.015.84.025,1.23.04v.01h.01c-.015.4-.025.805-.039,1.23l1.23.039v.01h.01c-.015.4-.025.805-.04,1.23.449.015.84.025,1.23.039v.01h.01c-.015.4-.025.805-.04,1.23l1.23.04v.01h.01l-.04,1.23c.449.015-3.428-.1-3.038-.094v.01H170c-.015.4-.025.805-.04,1.23.864.025,1.669.049,2.47.074v.01h.01c-.015.4-.025.805-.04,1.2l14.876.459c.015-.42.025-.81.04-1.2h.01v-.01l2.47.074c.015-.449.025-.84.039-1.23h.01v-.01c.4.015.805.025,1.23.039.015-.449.025-.84.04-1.23h.01v-.01c.4.015.805.025,1.23.039.015-.449.025-.84.04-1.23h.01v-.01l1.23.039c.015-.449.025-.84.04-1.23h.01v-.01c.4.015.805.025,1.23.039.015-.449.025-.84.04-1.23h.01v-.01c.4.015.805.025,1.23.039l.04-1.23h.01v-.01c.4.015.805.025,1.235.039.025-.864.049-1.669.074-2.469h0v0l1.205.039c.064-2.1.128-4.134.193-6.194-.425-.015-.815-.025-1.205-.039h0a0,0,0,0,0,0,0c.025-.815.049-1.63.074-2.474l-1.235-.039h0a0,0,0,0,0,0,0l.04-1.235c-.454-.015-.845-.025-1.235-.039h0a0,0,0,0,0,0-.005c.025-.815.049-1.63.074-2.474-.454-.015-.845-.025-1.235-.04h0a0,0,0,0,0,0,0l.074-2.474h0v0l1.235.039c.025-.864.049-1.669.074-2.474h.01v-.005c.405.015.805.025,1.235.04.015-.454.025-.845.04-1.235h0v0l1.205.039c.089-2.924.178-5.784.267-8.673-.425-.015-.815-.025-1.205-.039h0a0,0,0,0,0,0,0c.015-.4.025-.805.04-1.2-.859-.025-1.655-.049-2.474-.074-.015.425-.025.815-.039,1.2h0v0l-2.474-.074-.04,1.235h0v0c-.405-.015-.805-.025-1.235-.04-.015.454-.025.845-.04,1.235h0v.005c-.4-.015-.805-.025-1.235-.04l-.04,1.235h0v0c-.4-.015-.805-.025-1.235-.039l-.04,1.235h0v0c-.825-.025-1.65-.049-2.474-.079h0a0,0,0,0,0,0-.005c.015-.4-.731.9-.721.509-3.339-.1-1.768,3.907-5.072,3.8-.015.425-.025.815-.04,1.205h0v0l-2.474-.074h0a0,0,0,0,0,0,0l.04-1.235c-.454-.015-.845-.025-1.235-.039h0s0-.01,0-.01c.015-.405.025-.805.04-1.235-.454-.015-.845-.025-1.235-.039h0a0,0,0,0,0,0,0c.015-.405.025-.805.04-1.235-.454-.015-.845-.025-1.235-.039h0a0,0,0,0,0,0,0l.04-1.235-2.474-.074h0a0,0,0,0,0,0-.005l.039-1.2c-.859-.025-1.655-.049-2.474-.074l-.04,1.2h0v0l-1.205-.039c-.089,2.924-.178,5.789-.267,8.673.425.015.815.025,1.205.04v.01h0l-.04,1.235c.454.015.845.025,1.235.04h0a0,0,0,0,0,0,0c-.025.815-.049,1.63-.074,2.474.454.015.845.025,1.235.039h0s0,.01,0,.01c-.025.825-.049,1.65-.079,2.474h0v0c-.4-.015-.805-.025-1.235-.039-.025.869-.049,1.669-.074,2.474h0v.005c-.4-.015,3.462.109,3.033.094l-.04,1.235h0v0c-.4-.015-.805-.025-1.235-.039-.025.869-.049,1.674-.074,2.474h0v.005l-1.205-.04c-.064,2.1-4.218-1.689-4.282.37.425.015.815.025,1.205.04v.01h0l-.074,2.47c.454.015.84.025,1.23.039h0Z" transform="translate(-145.284 -381.256)" fill="#ae033d"/>
        <path id="Path_6958" data-name="Path 6958" d="M192.032,394.629l.109-3.546-1.18-.035.109-3.546-1.18-.035.074-2.361-1.18-.035.035-1.18-1.185-.035.074-2.366-1.18-.035.035-1.18-1.185-.035.035-1.185-1.18-.035.035-1.176-1.175-.035.035-1.18-1.185-.035.035-1.185-1.18-.035.035-1.18-2.366-.074.035-1.185-1.18-.035.035-1.18-2.361-.074.035-1.18-3.546-.109.035-1.18-3.546-.109.035-1.18-14.185-.44-.035,1.18-3.541-.109-.035,1.18-3.546-.109-.035,1.18-2.366-.074-.035,1.18-1.175-.035-.035,1.185-2.366-.074-.035,1.18-1.18-.035-.035,1.185-1.185-.035-.035,1.18L137,376.4l-.035,1.176-1.185-.035-.035,1.185-1.175-.035-.035,1.18-1.18-.035-.074,2.366-1.185-.035-.035,1.18-1.18-.035-.074,2.361-1.18-.035-.109,3.546-1.185-.035-.109,3.546-1.18-.035-.44,14.185,1.18.035-.109,3.541,1.185.035-.109,3.546,1.18.035-.074,2.366,1.18.035L131,417.616l1.185.035-.074,2.366,1.18.035-.035,1.18,1.176.035-.035,1.185,1.185.035-.035,1.18,1.18.035-.035,1.18,1.185.035-.035,1.18,1.18.035-.035,1.18,2.366.074-.035,1.185,1.176.035-.035,1.18,2.366.074-.035,1.18,3.546.109-.035,1.185,3.541.109-.035,1.18,14.185.44.035-1.18,3.546.109.035-1.185,3.546.109.035-1.18,2.361.074.035-1.18,1.18.035.035-1.185,2.366.074.035-1.18,1.18.035.035-1.18,1.185.035.035-1.18,1.175.035.035-1.18,1.18.035.035-1.185,1.185.035.035-1.18,1.18.035.074-2.366,1.185.035.035-1.176,1.18.035.074-2.366,1.18.035.109-3.546,1.18.035.109-3.541,1.18.035.44-14.185Zm-2.726,11.745-1.18-.035-.109,3.546-1.185-.035-.109,3.541-1.18-.035-.074,2.366-1.185-.035-.035,1.18-1.18-.035-.074,2.361-1.175-.035-.035,1.185-1.185-.035-.035,1.18-1.18-.035-.035,1.18-1.185-.035-.035,1.185-1.18-.035-.035,1.18-2.366-.074-.035,1.18-1.175-.035-.035,1.18-2.366-.074-.035,1.18-3.546-.109-.035,1.185-3.541-.109-.035,1.18-9.458-.291.035-1.18-3.546-.109.035-1.185-3.541-.109.035-1.18-2.366-.074.035-1.18-1.18-.035.035-1.18-2.361-.074.035-1.18-1.185-.035.035-1.185-1.18-.035.035-1.18-1.18-.035.035-1.18-1.185-.035.035-1.185-1.18-.035.074-2.361-1.185-.035.035-1.18-1.175-.035.074-2.366-1.18-.035.109-3.541-1.185-.035.109-3.546-1.18-.035.291-9.458,1.18.035.109-3.541,1.185.035.109-3.546,1.18.035.074-2.366,1.175.035.035-1.176,1.185.035.074-2.366,1.18.035.035-1.185,1.185.035.035-1.18,1.18.035.035-1.18,1.18.035.035-1.185,1.185.035.035-1.176,2.361.074.035-1.18,1.18.035.035-1.185,2.366.074.035-1.18,3.541.109.035-1.185,3.546.109.035-1.18,9.458.291-.035,1.18,3.541.109L169,373.831l3.546.109-.035,1.18,2.366.074-.035,1.185,1.175.035-.035,1.18,2.366.074-.035,1.176,1.18.035-.035,1.185,1.185.035-.035,1.18,1.18.035-.035,1.18,1.185.035-.035,1.185,1.175.035-.074,2.366,1.18.035-.035,1.175,1.185.035-.074,2.366,1.18.035-.109,3.546,1.185.035-.109,3.541,1.18.035Z" transform="translate(-125.4 -366.24)" fill="#f6ca0e"/>
        <rect id="Rectangle_87459" data-name="Rectangle 87459" width="1.18" height="3.546" transform="translate(21.842 61.317) rotate(-88.23)" fill="#f58c10"/>
        <g id="Group_3019" data-name="Group 3019" transform="translate(15.652 14.19)">
          <path id="Path_6959" data-name="Path 6959" d="M192.636,472.489l-.04,1.215-14.876-.459c.015-.4.025-.805.04-1.215l-.01.01,14.9.459-.01-.01Z" transform="translate(-166.923 -433.357)" fill="#ae033d"/>
          <path id="Path_6960" data-name="Path 6960" d="M184.82,405.68c.01-.4.025-.785.04-1.21,3.3.1,6.579.2,9.918.306-.015.4-.025.805-.04,1.21h0q-4.964-.163-9.932-.316h0Z" transform="translate(-170.511 -399.165)" fill="#f4f558"/>
          <path id="Path_6961" data-name="Path 6961" d="M160.75,404.8c-.4-.01-.785-.025-1.21-.039.089-2.884.178-5.749.267-8.673l1.21.04v-.01q-.141,4.341-.277,8.688v-.01Z" transform="translate(-157.722 -394.924)" fill="#f4f558"/>
          <path id="Path_6962" data-name="Path 6962" d="M227.567,398.18c.4.01.785.025,1.21.039-.089,2.889-.178,5.749-.267,8.673-.4-.015-.805-.025-1.21-.039h0q.133-4.334.267-8.683h0Z" transform="translate(-192.016 -395.977)" fill="#ae033d"/>
          <path id="Path_6963" data-name="Path 6963" d="M157.07,444.933c-.4-.01-.785-.025-1.21-.04.064-2.06.128-4.094.193-6.194.4.015.805.025,1.21.039v-.01q-.1,3.1-.2,6.208h.01Z" transform="translate(-155.86 -416.489)" fill="#f4f558"/>
          <path id="Path_6964" data-name="Path 6964" d="M228.833,440.95c.39.01.785.025,1.21.039-.064,2.06-.128,4.094-.193,6.194l-1.21-.039h0q.1-3.1.193-6.2h0Z" transform="translate(-192.694 -417.623)" fill="#ae033d"/>
          <path id="Path_6965" data-name="Path 6965" d="M159.395,453.839c-.4-.01-.785-.025-1.245-.039l.079-2.479h-.01c.41.02.82.03,1.225.039-.02.83-.044,1.66-.064,2.489l.01-.01Z" transform="translate(-157.019 -422.876)" fill="#f4f558"/>
          <path id="Path_6966" data-name="Path 6966" d="M165.51,418.839c-.4-.01-.785-.025-1.24-.039.025-.845.049-1.66.079-2.479h0c.405.02.81.03,1.24.044-.025.874-.049,1.674-.079,2.479h.01Z" transform="translate(-160.116 -405.163)" fill="#f4f558"/>
          <path id="Path_6967" data-name="Path 6967" d="M223.349,418.16c-.025.805-.049,1.61-.079,2.479-.43-.015-.835-.025-1.24-.04v.01c.035-.815.059-1.635.084-2.479.454.015.85.025,1.24.04h0Z" transform="translate(-189.348 -406.079)" fill="#ae033d"/>
          <path id="Path_6968" data-name="Path 6968" d="M227.289,453.465c-.025.805-.049,1.61-.074,2.474-.435-.015-.84-.025-1.245-.039l.01.01c.03-.825.059-1.655.084-2.479.41.01.82.025,1.23.035h0Z" transform="translate(-191.342 -423.944)" fill="#ae033d"/>
          <path id="Path_6969" data-name="Path 6969" d="M166.615,423.909c.025-.83.049-1.659.079-2.489h-.01c.405.02.805.03,1.21.044-.025.859-.049,1.655-.074,2.474-.425-.015-.82-.025-1.21-.039h0Z" transform="translate(-161.301 -407.744)" fill="#f4f558"/>
          <path id="Path_6970" data-name="Path 6970" d="M220.719,423.1l-.074,2.489h0c-.405-.02-.805-.03-1.21-.044.025-.859.049-1.655.074-2.474l1.21.04v-.01Z" transform="translate(-188.038 -408.579)" fill="#ae033d"/>
          <path id="Path_6971" data-name="Path 6971" d="M179.75,406.75c.83.025,1.66.049,2.489.079h0c-.015.4-.025.8-.04,1.23l-2.484-.079.01.01c.015-.415.025-.835.04-1.25h0Z" transform="translate(-167.93 -400.314)" fill="#f4f558"/>
          <path id="Path_6972" data-name="Path 6972" d="M175.244,470.679c-.805-.025-1.615-.049-2.484-.079.015-.43.025-.835.04-1.24l-.01.01c.825.025,1.655.049,2.479.079-.015.459-.025.849-.039,1.24l.01-.01Z" transform="translate(-164.413 -432.006)" fill="#ae033d"/>
          <path id="Path_6973" data-name="Path 6973" d="M204.875,407.53c.83.025,1.66.049,2.489.079v-.01c-.02.415-.035.835-.049,1.25l.01-.01c-.815-.025-1.635-.049-2.484-.079l.04-1.24h0Z" transform="translate(-180.649 -400.709)" fill="#f4f558"/>
          <path id="Path_6974" data-name="Path 6974" d="M226.594,435.855l1.24.04c-.025.845-.049,1.664-.079,2.479h0c-.405-.02-.81-.03-1.24-.044.025-.869.049-1.674.079-2.479h0Z" transform="translate(-191.621 -415.047)" fill="#ae033d"/>
          <path id="Path_6975" data-name="Path 6975" d="M210.434,470.529c-.01.4-.025.785-.04,1.24-.845-.025-1.664-.049-2.484-.079l.01.01c.015-.4.025-.805.04-1.24l2.479.079-.01-.01Z" transform="translate(-182.202 -432.563)" fill="#ae033d"/>
          <path id="Path_6976" data-name="Path 6976" d="M163.955,428.869c.025-.805.049-1.61.079-2.479.43.015.835.025,1.24.04h0c-.025.81-.049,1.63-.079,2.474l-1.24-.039h0Z" transform="translate(-159.954 -410.259)" fill="#f4f558"/>
          <path id="Path_6977" data-name="Path 6977" d="M217.715,399.12c.01-.4.025-.785.039-1.24.845.025,1.664.049,2.484.079v-.01c-.02.405-.03.81-.044,1.24-.874-.025-1.679-.049-2.484-.079h0Z" transform="translate(-187.162 -395.83)" fill="#f4f558"/>
          <path id="Path_6978" data-name="Path 6978" d="M167.5,396.325c.805.025,1.61.049,2.479.079-.015.43-.025.835-.04,1.24h0c-.82-.03-1.635-.059-2.479-.084.015-.454.025-.849.04-1.24h0Z" transform="translate(-161.736 -395.041)" fill="#f4f558"/>
          <path id="Path_6979" data-name="Path 6979" d="M221.8,428.165l1.24.039c-.025.845-.049,1.664-.079,2.479h0c-.4-.02-.81-.03-1.24-.044.025-.874.049-1.674.079-2.479h0Z" transform="translate(-189.197 -411.155)" fill="#ae033d"/>
          <path id="Path_6980" data-name="Path 6980" d="M222.82,396.8c.01-.39.025-.785.04-1.21.82.025,1.615.049,2.474.074-.015.4-.025.805-.04,1.21h0c-.83-.035-1.66-.059-2.489-.084v.01Z" transform="translate(-189.743 -394.671)" fill="#f4f558"/>
          <path id="Path_6981" data-name="Path 6981" d="M158.695,436.239c.025-.805.049-1.61.079-2.479l1.24.04h0c-.025.81-.049,1.63-.079,2.474-.454-.015-.85-.025-1.24-.039v.01Z" transform="translate(-157.292 -413.989)" fill="#f4f558"/>
          <path id="Path_6982" data-name="Path 6982" d="M162.52,394.94c.01-.39.025-.785.04-1.21.82.025,1.615.049,2.474.074l-.04,1.21h0c-.83-.035-1.66-.059-2.489-.084v.01Z" transform="translate(-159.226 -393.73)" fill="#f4f558"/>
          <path id="Path_6983" data-name="Path 6983" d="M161.355,432.57l.04-1.24c.43.015.835.025,1.24.039h0c-.015.4-.025.8-.04,1.235-.459-.015-.85-.025-1.24-.039h0Z" transform="translate(-158.638 -412.759)" fill="#f4f558"/>
          <path id="Path_6984" data-name="Path 6984" d="M224.2,433.265c.39.01.785.025,1.24.039-.015.43-.025.835-.04,1.24h0c-.4-.02-.81-.03-1.24-.044.015-.459.025-.849.04-1.24h0Z" transform="translate(-190.431 -413.736)" fill="#ae033d"/>
          <path id="Path_6985" data-name="Path 6985" d="M225.979,415.715c-.01.39-.025.785-.04,1.24-.43-.015-.835-.025-1.24-.039h0c.015-.4.025-.8.039-1.235l1.24.04h0Z" transform="translate(-190.7 -404.839)" fill="#ae033d"/>
          <path id="Path_6986" data-name="Path 6986" d="M163.15,415.019c-.4-.01-.785-.025-1.24-.039.015-.43.025-.835.04-1.24v.01c.4.015.8.025,1.235.039-.015.459-.025.85-.04,1.24h0Z" transform="translate(-158.922 -403.857)" fill="#f4f558"/>
          <path id="Path_6987" data-name="Path 6987" d="M161.84,457.689c-.4-.01-.785-.025-1.24-.04.015-.43.025-.835.04-1.24l-.01.01,1.24.04c-.015.44-.025.84-.04,1.24Z" transform="translate(-158.259 -425.452)" fill="#f4f558"/>
          <path id="Path_6988" data-name="Path 6988" d="M224.659,458.4l-.04,1.24-1.24-.039.01.015c.015-.4.025-.8.04-1.24.44.015.84.025,1.24.04l-.01-.01Z" transform="translate(-190.032 -426.449)" fill="#ae033d"/>
          <path id="Path_6989" data-name="Path 6989" d="M164.27,460.279c-.4-.01-.785-.025-1.24-.039.015-.43.025-.835.04-1.24l-.01.01c.4.015.805.025,1.24.039-.015.435-.025.84-.04,1.24Z" transform="translate(-159.489 -426.763)" fill="#f4f558"/>
          <path id="Path_6990" data-name="Path 6990" d="M222.069,460.84c-.01.4-.025.785-.039,1.24-.43-.015-.835-.025-1.24-.04l.01.01c.015-.4.025-.805.04-1.24l1.24.039-.01-.015Z" transform="translate(-188.721 -427.679)" fill="#ae033d"/>
          <path id="Path_6991" data-name="Path 6991" d="M209.945,406.42c.01-.39.025-.785.04-1.24.43.015.835.025,1.24.04h0c-.015.4-.025.8-.04,1.235-.454-.015-.85-.025-1.24-.04v.01Z" transform="translate(-183.23 -399.525)" fill="#f4f558"/>
          <path id="Path_6992" data-name="Path 6992" d="M166.71,462.869l-1.24-.039c.015-.43.025-.835.04-1.24l-.01.01,1.24.039c-.015.44-.025.84-.04,1.24Z" transform="translate(-160.724 -428.074)" fill="#f4f558"/>
          <path id="Path_6993" data-name="Path 6993" d="M219.479,463.27c-.01.4-.025.785-.04,1.24-.43-.015-.835-.025-1.24-.039l.01.01c.015-.4.025-.805.04-1.24l1.24.039Z" transform="translate(-187.41 -428.909)" fill="#ae033d"/>
          <path id="Path_6994" data-name="Path 6994" d="M169.14,465.459l-1.24-.04c.015-.43.025-.835.04-1.24l-.01.01c.4.015.805.025,1.24.04l-.04,1.24Z" transform="translate(-161.953 -429.384)" fill="#f4f558"/>
          <path id="Path_6995" data-name="Path 6995" d="M216.889,465.7c-.01.4-.025.785-.039,1.24l-1.24-.039.01.01c.015-.4.025-.805.04-1.24l1.24.039Z" transform="translate(-186.099 -430.139)" fill="#ae033d"/>
          <path id="Path_6996" data-name="Path 6996" d="M171.58,468.049l-1.24-.039c.015-.43.025-.835.04-1.24l-.01.01,1.24.039c-.015.44-.025.84-.04,1.24Z" transform="translate(-163.188 -430.695)" fill="#f4f558"/>
          <path id="Path_6997" data-name="Path 6997" d="M214.3,468.14c-.01.4-.025.785-.04,1.24-.43-.015-.835-.025-1.24-.04l.01.01c.015-.4.025-.8.04-1.24l1.24.039Z" transform="translate(-184.788 -431.373)" fill="#ae033d"/>
          <path id="Path_6998" data-name="Path 6998" d="M177.325,404.165c.39.01.785.025,1.24.039-.015.43-.025.835-.04,1.24h0c-.405-.02-.81-.03-1.24-.044.015-.459.025-.85.04-1.24h0Z" transform="translate(-166.706 -399.009)" fill="#f4f558"/>
          <path id="Path_6999" data-name="Path 6999" d="M212.535,403.99c.01-.39.025-.785.04-1.24l1.24.04h0c-.015.4-.025.8-.04,1.235-.454-.015-.85-.025-1.24-.04h0Z" transform="translate(-184.54 -398.295)" fill="#f4f558"/>
          <path id="Path_7000" data-name="Path 7000" d="M174.885,401.575c.39.01.785.025,1.24.039-.015.43-.025.835-.04,1.24h0c-.405-.02-.81-.03-1.24-.044.015-.459.025-.85.04-1.24h0Z" transform="translate(-165.471 -397.698)" fill="#f4f558"/>
          <path id="Path_7001" data-name="Path 7001" d="M215.125,401.56c.01-.39.025-.785.04-1.24.43.015.835.025,1.24.039h0c-.015.4-.025.8-.04,1.235l-1.24-.039h0Z" transform="translate(-185.851 -397.065)" fill="#f4f558"/>
          <path id="Path_7002" data-name="Path 7002" d="M172.455,398.985l1.24.039-.04,1.24h0c-.405-.02-.81-.03-1.24-.044.015-.459.025-.849.04-1.24h0Z" transform="translate(-164.241 -396.387)" fill="#f4f558"/>
          <path id="Path_7003" data-name="Path 7003" d="M187.82,452.182l-1.24-.039c-.015.44-.025.84-.04,1.24l-2.479-.079c-.015.435-.025.835-.04,1.24l-14.9-.459c.01-.39.025-.78.04-1.24-.83-.025-1.655-.049-2.479-.079.015-.4.025-.805.04-1.24l-1.24-.039.04-1.24c-.44-.015-.84-.025-1.24-.04.015-.4.025-.805.04-1.24l-1.24-.04c.015-.4.025-.805.04-1.24-.44-.015-.84-.025-1.24-.039.015-.4.025-.805.04-1.24l-1.24-.039c.02-.83.044-1.66.064-2.489.049-1.645.1-3.289.153-4.983.474.015.845.025,1.264.039.015-.42.025-.8.04-1.225.43.015.815.025,1.245.039.015-.435.025-.805.035-1.19,1.255.04,2.465.074,3.724.114-.025.825-.049,1.61-.074,2.455.43.015.815.025,1.25.039-.015.435-.025.805-.035,1.185.85.025,1.645.049,2.484.079.015-.415.025-.785.04-1.22.43.015.815.025,1.24.04.015-.44.025-.81.04-1.245.43.015.815.025,1.24.039.015-.435.025-.805.035-1.176,2.494.079,4.949.153,7.443.232-.015.415-.025.79-.039,1.22.43.015.815.025,1.24.04-.015.435-.025.81-.04,1.24.43.015.815.025,1.245.04l-.035,1.19,2.47.074.039-1.23c.435.015.805.025,1.245.04.025-.845.049-1.645.074-2.43,1.269.039,2.465.074,3.724.114-.015.42-.025.805-.04,1.23.435.015.81.025,1.24.04l-.04,1.24,1.235.04c-.049,1.679-.1,3.309-.153,4.944-.03.825-.059,1.655-.084,2.479-.4-.015-.805-.025-1.24-.04-.015.44-.025.84-.04,1.24l-1.24-.04c-.015.435-.025.84-.04,1.24l-1.24-.039c-.015.44-.025.84-.039,1.24l-1.24-.04c-.015.435-.025.84-.039,1.24Zm-8.559-3.991,2.5.079.039-1.259,2.455.074c.015-.41.025-.8.04-1.23.43.015.82.025,1.21.04.025-.845.049-1.645.074-2.445-.415-.015-.8-.025-1.23-.04l-.039,1.23c-.43-.015-.82-.025-1.25-.04-.015.43-.025.82-.035,1.18-1.259-.039-2.474-.074-3.709-.114.015-.41.025-.785.035-1.18-1.655-.049-3.28-.1-4.954-.153l-.035,1.19-3.729-.114c.015-.41.025-.8.04-1.23-.43-.015-.82-.025-1.25-.04.015-.43.025-.82.035-1.19-.435-.015-.82-.025-1.19-.035l-.074,2.474c.42.015.81.025,1.24.039-.015.43-.025.815-.04,1.23l2.455.074c-.015.41-.025.8-.04,1.225l2.465.074c-.025.815-.049,1.635-.079,2.5.464.015.85.025,1.284.039-.015.435-.025.82-.035,1.2l2.46.074.04-1.23c.435.015.825.025,1.255.04l.074-2.465Zm-5.932-8.856c-.025.825-.049,1.625-.074,2.47.41.015.8.025,1.225.039-.015.43-.025.815-.04,1.21,1.674.049,3.3.1,4.969.153.015-.415.025-.8.04-1.23.43.015.82.025,1.2.035.025-.845.049-1.645.079-2.489-.42-.015-.805-.025-1.235-.04.015-.43.025-.815.035-1.18-1.674-.049-3.3-.1-4.969-.153-.015.425-.025.81-.04,1.22Z" transform="translate(-158.299 -415.406)" fill="#f6ca0e"/>
          <path id="Path_7004" data-name="Path 7004" d="M191.821,424.446c.049-1.635.1-3.265.153-4.944l-1.235-.039.04-1.24-1.24-.04c.015-.43.025-.81.04-1.23-1.259-.039-2.46-.074-3.724-.114-.025.785-.049,1.585-.074,2.43-.435-.015-.81-.025-1.245-.04l-.04,1.23-2.47-.074.035-1.19c-.435-.015-.82-.025-1.245-.039.015-.43.025-.805.04-1.24-.43-.015-.81-.025-1.24-.039.015-.435.025-.805.04-1.22-2.494-.079-4.949-.153-7.443-.232-.01.365-.025.741-.035,1.176-.425-.015-.81-.025-1.24-.04-.015.435-.025.805-.04,1.245-.43-.015-.81-.025-1.24-.039-.015.435-.025.81-.04,1.22-.845-.025-1.64-.049-2.484-.079.01-.38.025-.751.035-1.185-.43-.015-.82-.025-1.25-.04.025-.845.049-1.63.074-2.455-1.259-.04-2.47-.074-3.724-.114-.01.385-.025.756-.035,1.19-.425-.015-.81-.025-1.245-.04-.015.435-.025.805-.04,1.225-.42-.015-.79-.025-1.264-.04-.054,1.694-.1,3.339-.153,4.983-.41-.01-.82-.02-1.225-.035l.193-6.208c.39.01.785.025,1.24.04.025-.845.049-1.664.079-2.479.39.01.78.025,1.24.04.015-.435.025-.835.04-1.24l1.24.039c.025-.845.049-1.664.079-2.479.39.01.78.025,1.21.039.025-.82.049-1.615.074-2.474-.4-.015-.805-.025-1.21-.039.025-.805.049-1.605.079-2.479l-1.24-.04c.01-.39.025-.785.04-1.24-.43-.015-.835-.025-1.24-.04q.133-4.341.267-8.688c.83.025,1.66.049,2.489.079-.01.39-.025.785-.04,1.24.845.025,1.664.049,2.479.079-.01.39-.025.785-.04,1.24l1.24.039c-.01.39-.025.78-.04,1.24.435.015.835.025,1.24.039-.01.39-.025.785-.039,1.24.43.015.835.025,1.24.039-.015.415-.025.835-.039,1.25-.405-.015-.81-.025-1.22-.04-.015.44-.025.815-.04,1.205.41.015.8.025,1.21.04.015-.425.025-.82.04-1.21l2.484.079.04-1.24q4.964.156,9.932.306l-.04,1.24c.85.025,1.664.049,2.484.079-.015.4-.025.81-.04,1.22.445.015.815.025,1.205.039.015-.41.025-.8.04-1.21-.425-.015-.82-.025-1.215-.04.015-.415.025-.835.04-1.25.39.01.785.025,1.24.039.015-.43.025-.835.04-1.24.39.01.785.025,1.24.039l.04-1.24,1.24.04c.015-.43.025-.835.04-1.24.805.025,1.61.049,2.484.079.015-.43.025-.835.04-1.24.83.025,1.66.049,2.489.079q-.133,4.341-.267,8.688l-1.24-.039-.04,1.24c-.39-.01-.785-.025-1.24-.04-.025.845-.049,1.664-.079,2.479l-1.21-.04c-.025.82-.049,1.61-.074,2.474.4.015.805.025,1.21.04-.025.805-.049,1.61-.079,2.479.43.015.835.025,1.24.039-.01.39-.025.78-.039,1.24.435.015.835.025,1.24.039-.025.805-.049,1.61-.079,2.479.43.015.835.025,1.24.039l-.193,6.208c-.41-.01-.82-.025-1.23-.035Zm-3.166-18.729c.4.015.81.025,1.264.04.015-.444.025-.815.04-1.255.43.015.81.025,1.185.035.054-1.679.1-3.289.153-4.914l-2.455-.074-.04,1.225-1.24-.04c-.015.43-.025.815-.04,1.245-.435-.015-.805-.025-1.19-.035-.025.84-.049,1.64-.074,2.435l1.22.039.035-1.175c.435.015.805.025,1.23.039-.025.84-.049,1.645-.074,2.45-.405-.015-.805-.025-1.215-.039-.015.444-.025.81-.04,1.2.41.015.79.025,1.21.039.015-.425.025-.815.039-1.205Zm-24.809-.766-.04,1.215c.445.015.815.025,1.2.04.015-.41.025-.79.04-1.205-.43-.015-.82-.025-1.21-.04.025-.82.049-1.635.074-2.455.464.015.835.025,1.269.039-.015.415-.025.8-.035,1.176l1.19.035c.025-.82.049-1.605.074-2.455l-1.225-.04c.015-.435.025-.81.04-1.245-.43-.015-.815-.025-1.245-.04l.035-1.185c-.845-.025-1.64-.049-2.435-.074-.049,1.655-.1,3.265-.153,4.939.415.015.8.025,1.23.04l-.039,1.22c.44.015.83.025,1.225.039Zm19.554,9.285.074-2.43-2.465-.074c-.015.41-.025.78-.04,1.21-.425-.015-.81-.025-1.19-.035-.025.854-.049,1.65-.074,2.44.415.015.785.025,1.215.039l.04-1.22c.845.025,1.63.049,2.435.074Zm-14.748-2.914c-.025.84-.049,1.635-.079,2.494l2.47.074c-.015.435-.025.805-.035,1.175l1.2.035c.025-.825.049-1.61.074-2.45-.41-.015-.8-.025-1.235-.04.015-.444.025-.825.04-1.22l-2.425-.074Zm11.187-.948c.85.025,1.645.049,2.43.074.025-.825.049-1.61.074-2.4l-2.43-.074C179.889,408.794,179.864,409.564,179.839,410.374Zm-7.5-.2c.025-.845.049-1.64.074-2.435l-2.4-.074c-.025.83-.049,1.625-.074,2.435Z" transform="translate(-157.1 -394.955)" fill="#f58c10"/>
          <path id="Path_7005" data-name="Path 7005" d="M181.95,454.547c-.805-.025-1.61-.049-2.465-.074.015-.425.025-.81.04-1.225l-2.455-.074c.015-.41.025-.8.04-1.23-.43-.015-.815-.025-1.24-.04l.074-2.474c.37.01.756.025,1.19.035-.01.375-.025.761-.035,1.19.43.015.82.025,1.25.04-.015.43-.025.815-.04,1.23l3.729.114.035-1.19c1.674.049,3.3.1,4.954.153-.01.4-.025.771-.035,1.18,1.24.04,2.45.074,3.709.114.01-.366.025-.751.035-1.18.43.015.815.025,1.25.04l.04-1.23c.43.015.815.025,1.23.04-.025.8-.049,1.6-.074,2.445-.39-.01-.775-.025-1.21-.04-.015.43-.025.82-.04,1.23l-2.455-.074-.04,1.259c-.864-.025-1.679-.054-2.5-.079.015-.4.025-.805.04-1.21-1.709-.054-3.319-.1-5-.153-.015.425-.025.815-.04,1.21Z" transform="translate(-165.987 -421.92)" fill="#ae033d"/>
          <path id="Path_7006" data-name="Path 7006" d="M186.214,440.955l1.185.035c.015-.41.025-.8.04-1.22,1.669.049,3.3.1,4.969.153-.01.361-.025.751-.035,1.18.43.015.815.025,1.235.039-.025.845-.049,1.645-.079,2.489-.375-.01-.766-.025-1.2-.035-.015.43-.025.815-.039,1.23-1.669-.049-3.3-.1-4.969-.153.01-.39.025-.78.039-1.21-.43-.015-.82-.025-1.225-.039.025-.845.049-1.645.074-2.47Z" transform="translate(-171.185 -417.031)" fill="#ae033d"/>
          <path id="Path_7007" data-name="Path 7007" d="M188.1,458.55c.01-.39.025-.78.04-1.21,1.679.054,3.284.1,5,.153-.015.405-.025.805-.04,1.21-.025.805-.049,1.61-.074,2.465-.43-.015-.815-.025-1.255-.039l-.04,1.23-2.46-.074c.01-.375.025-.761.035-1.2-.435-.015-.82-.025-1.284-.04C188.045,460.185,188.074,459.365,188.1,458.55Z" transform="translate(-172.136 -425.923)" fill="#f58c10"/>
          <path id="Path_7008" data-name="Path 7008" d="M167.045,407.578l-1.225-.04.04-1.22c-.43-.015-.815-.025-1.23-.04.049-1.674.1-3.284.153-4.939.79.025,1.585.049,2.435.074l-.035,1.185c.43.015.815.025,1.245.04-.015.435-.025.805-.039,1.245l1.225.04c-.025.849-.049,1.635-.074,2.455l-1.19-.035c.01-.37.025-.756.035-1.176-.435-.015-.805-.025-1.269-.039-.025.82-.049,1.635-.074,2.455l.01-.01Z" transform="translate(-160.298 -397.581)" fill="#f6ca0e"/>
          <path id="Path_7009" data-name="Path 7009" d="M217.3,409.2l.074-2.45c-.425-.015-.8-.025-1.23-.04l-.035,1.176-1.22-.04c.025-.8.049-1.6.074-2.435.38.01.756.025,1.19.035.015-.425.025-.81.039-1.245l1.24.04.04-1.225,2.455.074c-.049,1.625-.1,3.235-.153,4.914-.375-.01-.756-.025-1.185-.035-.015.44-.025.81-.04,1.255-.449-.015-.854-.025-1.264-.039l.01.01Z" transform="translate(-185.735 -398.432)" fill="#f6ca0e"/>
          <path id="Path_7010" data-name="Path 7010" d="M205.329,430.2c-.805-.025-1.59-.049-2.435-.074l-.04,1.22c-.43-.015-.8-.025-1.215-.039.025-.79.049-1.585.074-2.44.38.01.766.025,1.19.035.015-.43.025-.8.04-1.21l2.465.074-.074,2.43Z" transform="translate(-179.029 -410.917)" fill="#ae033d"/>
          <path id="Path_7011" data-name="Path 7011" d="M179.164,426.87l2.425.074c-.01.4-.025.775-.04,1.22.44.015.825.025,1.235.039-.025.84-.049,1.625-.074,2.45l-1.2-.035c.01-.375.025-.746.035-1.175l-2.47-.074c.025-.854.049-1.655.079-2.494Z" transform="translate(-167.612 -410.502)" fill="#ae033d"/>
          <path id="Path_7012" data-name="Path 7012" d="M201.9,422.5c.025-.81.049-1.581.074-2.4l2.43.074c-.025.785-.049,1.571-.074,2.4C203.545,422.545,202.749,422.52,201.9,422.5Z" transform="translate(-179.161 -407.076)" fill="#f6ca0e"/>
          <path id="Path_7013" data-name="Path 7013" d="M184.255,421.959l-2.4-.074c.025-.81.049-1.605.074-2.435l2.4.074C184.3,420.314,184.28,421.11,184.255,421.959Z" transform="translate(-169.018 -406.747)" fill="#f6ca0e"/>
          <path id="Path_7014" data-name="Path 7014" d="M218.47,415.485c-.01.39-.025.78-.04,1.205-.42-.015-.8-.025-1.21-.039.01-.385.025-.756.04-1.2.41.015.815.025,1.215.04l-.01-.01Z" transform="translate(-186.914 -404.722)" fill="#f6ca0e"/>
          <path id="Path_7015" data-name="Path 7015" d="M169.48,413.98c.39.01.78.025,1.21.039-.015.415-.025.8-.04,1.205-.385-.01-.756-.025-1.2-.039.015-.41.025-.81.04-1.215Z" transform="translate(-162.738 -403.973)" fill="#f6ca0e"/>
          <path id="Path_7016" data-name="Path 7016" d="M209.83,410.2c.4.01.785.025,1.215.04-.015.415-.025.8-.04,1.21-.39-.01-.761-.025-1.205-.039.015-.405.025-.81.04-1.22Z" transform="translate(-183.159 -402.06)" fill="#f4f558"/>
          <path id="Path_7017" data-name="Path 7017" d="M178.43,409.225c-.01.4-.025.785-.04,1.21-.415-.015-.8-.025-1.21-.04.01-.39.025-.761.04-1.205.41.015.815.025,1.22.039l-.01-.01Z" transform="translate(-166.65 -401.554)" fill="#f4f558"/>
        </g>
      </g>
    </g>
  </g>
</svg>
