<?xml version="1.0" encoding="UTF-8"?><svg xmlns="http://www.w3.org/2000/svg" xmlns:xlink="http://www.w3.org/1999/xlink" viewBox="0 0 248.81 187.98"><defs><style>.cls-1{fill:url(#radial-gradient-3);}.cls-1,.cls-2,.cls-3,.cls-4{mix-blend-mode:multiply;}.cls-5{fill:url(#linear-gradient);}.cls-6{fill:url(#linear-gradient-8);}.cls-7{fill:url(#linear-gradient-9);}.cls-8{fill:url(#linear-gradient-3);}.cls-9{fill:url(#linear-gradient-4);}.cls-10{fill:url(#linear-gradient-2);}.cls-11{fill:url(#linear-gradient-6);}.cls-12{fill:url(#linear-gradient-7);}.cls-13{fill:url(#linear-gradient-5);}.cls-2{fill:url(#radial-gradient);}.cls-3{fill:url(#radial-gradient-4);}.cls-3,.cls-4{opacity:.8;}.cls-4{fill:url(#radial-gradient-2);}.cls-14{fill:url(#linear-gradient-14);}.cls-15{fill:url(#linear-gradient-18);}.cls-16{fill:url(#linear-gradient-20);}.cls-17{fill:url(#linear-gradient-21);}.cls-18{fill:url(#linear-gradient-15);}.cls-19{fill:url(#linear-gradient-19);}.cls-20{fill:url(#linear-gradient-16);}.cls-21{fill:url(#linear-gradient-17);}.cls-22{fill:url(#linear-gradient-13);}.cls-23{fill:url(#linear-gradient-12);}.cls-24{fill:url(#linear-gradient-10);}.cls-25{fill:url(#linear-gradient-11);}.cls-26{isolation:isolate;}</style><linearGradient id="linear-gradient" x1="198.55" y1="86.52" x2="212.75" y2="106.44" gradientUnits="userSpaceOnUse"><stop offset="0" stop-color="#2f93d7"/><stop offset="1" stop-color="#195c9b"/></linearGradient><radialGradient id="radial-gradient" cx="198.77" cy="106.79" fx="198.77" fy="106.79" r="14.53" gradientUnits="userSpaceOnUse"><stop offset="0" stop-color="#22607e"/><stop offset=".08" stop-color="#3d738e"/><stop offset=".26" stop-color="#779db0"/><stop offset=".44" stop-color="#a8c0cc"/><stop offset=".61" stop-color="#cddbe2"/><stop offset=".76" stop-color="#e8eff2"/><stop offset=".9" stop-color="#f9fafb"/><stop offset="1" stop-color="#fff"/></radialGradient><linearGradient id="linear-gradient-2" x1="195.53" y1="60.58" x2="187.09" y2="102.45" gradientUnits="userSpaceOnUse"><stop offset="0" stop-color="#4cb8f8"/><stop offset="1" stop-color="#236ea9"/></linearGradient><linearGradient id="linear-gradient-3" x1="198.18" y1="58.48" x2="224.42" y2="90.4" gradientUnits="userSpaceOnUse"><stop offset="0" stop-color="#62bcf8"/><stop offset="1" stop-color="#37b2f8"/></linearGradient><radialGradient id="radial-gradient-2" cx="207.24" cy="66.1" fx="207.24" fy="66.1" r="21.7" gradientUnits="userSpaceOnUse"><stop offset="0" stop-color="#23719a"/><stop offset=".08" stop-color="#3d82a6"/><stop offset=".26" stop-color="#77a7c0"/><stop offset=".44" stop-color="#a8c6d7"/><stop offset=".61" stop-color="#cddfe8"/><stop offset=".76" stop-color="#e8f0f4"/><stop offset=".9" stop-color="#f9fbfc"/><stop offset="1" stop-color="#fff"/></radialGradient><linearGradient id="linear-gradient-4" x1="350.8" y1="-107.36" x2="353.44" y2="-103.66" gradientTransform="translate(-62.38 221.86) rotate(-16.99)" gradientUnits="userSpaceOnUse"><stop offset="0" stop-color="#919191"/><stop offset="1" stop-color="#878787"/></linearGradient><linearGradient id="linear-gradient-5" x1="224.77" y1=".86" x2="246.9" y2="11.59" gradientUnits="userSpaceOnUse"><stop offset="0" stop-color="#e9e9e9"/><stop offset="1" stop-color="#b0b0b0"/></linearGradient><linearGradient id="linear-gradient-6" x1="343.03" y1="-118.37" x2="338.78" y2="-97.25" gradientTransform="translate(-62.38 221.86) rotate(-16.99)" gradientUnits="userSpaceOnUse"><stop offset="0" stop-color="#cecece"/><stop offset="1" stop-color="#979797"/></linearGradient><linearGradient id="linear-gradient-7" x1="200.3" y1="46.57" x2="196.3" y2="66.43" xlink:href="#linear-gradient-2"/><linearGradient id="linear-gradient-8" x1="199.63" y1="35.47" x2="208.27" y2="45.98" xlink:href="#linear-gradient-3"/><linearGradient id="linear-gradient-9" x1="207.68" y1="47.12" x2="216.69" y2="59.76" xlink:href="#linear-gradient"/><linearGradient id="linear-gradient-10" x1="91.2" y1="99.84" x2="79.52" y2="157.78" xlink:href="#linear-gradient-2"/><radialGradient id="radial-gradient-3" cx="91.75" cy="98.94" fx="91.75" fy="98.94" r="27.12" gradientUnits="userSpaceOnUse"><stop offset="0" stop-color="#2780b1"/><stop offset=".07" stop-color="#3d8db9"/><stop offset=".25" stop-color="#77afce"/><stop offset=".43" stop-color="#a8cbdf"/><stop offset=".6" stop-color="#cde2ed"/><stop offset=".76" stop-color="#e8f1f7"/><stop offset=".89" stop-color="#f9fbfc"/><stop offset="1" stop-color="#fff"/></radialGradient><linearGradient id="linear-gradient-11" x1="37.67" y1="131.05" x2="62.45" y2="165.81" xlink:href="#linear-gradient"/><linearGradient id="linear-gradient-12" x1="26.27" y1="88.91" x2="69.6" y2="141.61" xlink:href="#linear-gradient-3"/><radialGradient id="radial-gradient-4" cx="30.92" cy="83.07" fx="30.92" fy="83.07" r="31.61" xlink:href="#radial-gradient-2"/><linearGradient id="linear-gradient-13" x1="33.9" y1="73.97" x2="40.61" y2="96.1" xlink:href="#linear-gradient"/><linearGradient id="linear-gradient-14" x1="-76.65" y1="388.29" x2="-59.18" y2="409.54" gradientTransform="translate(375.35 -159.27) rotate(46.97)" xlink:href="#linear-gradient-3"/><linearGradient id="linear-gradient-15" x1="22.12" y1="53.77" x2="16.08" y2="99.72" gradientUnits="userSpaceOnUse"><stop offset="0" stop-color="#4cb8f8"/><stop offset="1" stop-color="#1e6aad"/></linearGradient><linearGradient id="linear-gradient-16" x1="63.96" y1="173.34" x2="70.85" y2="183" gradientUnits="userSpaceOnUse"><stop offset="0" stop-color="#919191"/><stop offset="1" stop-color="#787878"/></linearGradient><linearGradient id="linear-gradient-17" x1="56.83" y1="163.93" x2="65.36" y2="174.3" xlink:href="#linear-gradient-5"/><linearGradient id="linear-gradient-18" x1="57.66" y1="171.31" x2="54.64" y2="186.32" gradientTransform="matrix(1, 0, 0, 1, 0, 0)" xlink:href="#linear-gradient-6"/><linearGradient id="linear-gradient-19" x1="111.97" y1="50.99" x2="105.64" y2="82.42" gradientTransform="translate(-13.08 4.5) rotate(-.65) scale(1.03 1) skewX(-1.29)" xlink:href="#linear-gradient-6"/><linearGradient id="linear-gradient-20" x1="121.45" y1="66.25" x2="130.73" y2="79.26" gradientTransform="translate(-13.08 4.5) rotate(-.65) scale(1.03 1) skewX(-1.29)" gradientUnits="userSpaceOnUse"><stop offset="0" stop-color="#919191"/><stop offset="1" stop-color="#979797"/></linearGradient><linearGradient id="linear-gradient-21" x1="112.4" y1="42.34" x2="131.62" y2="65.71" gradientTransform="translate(-13.08 4.5) rotate(-.65) scale(1.03 1) skewX(-1.29)" xlink:href="#linear-gradient-5"/></defs><g class="cls-26"><g id="Layer_2"><g id="Layer_1-2"><g><g><polygon class="cls-5" points="227.7 92.45 218.6 110.54 185.95 103.8 193.69 85.25 227.7 92.45"/><polygon class="cls-2" points="227.7 92.45 218.6 110.54 185.95 103.8 193.69 85.25 227.7 92.45"/><polygon class="cls-10" points="193.69 85.25 185.95 103.8 189.17 76.57 196.81 57.44 193.69 85.25"/><polygon class="cls-8" points="229.74 64.64 227.7 92.45 193.69 85.25 196.81 57.44 229.74 64.64"/><polygon class="cls-4" points="229.74 64.64 227.7 92.45 193.69 85.25 196.81 57.44 229.74 64.64"/></g><g><polygon class="cls-9" points="243.1 13.74 248.81 6.37 244.48 22.62 238.76 30.11 243.1 13.74"/><polygon class="cls-13" points="225.38 7.3 231.24 0 248.81 6.37 243.1 13.74 225.38 7.3"/><polygon class="cls-11" points="243.1 13.74 238.76 30.11 221.13 23.66 225.38 7.3 243.1 13.74"/></g><g><polygon class="cls-12" points="206.97 69.33 198.15 61.29 189.8 42.84 198.55 50.62 206.97 69.33"/><polygon class="cls-6" points="198.55 50.62 189.8 42.84 209.43 31.58 218.52 39.11 198.55 50.62"/><polygon class="cls-7" points="218.52 39.11 226.69 57.87 206.97 69.33 198.55 50.62 218.52 39.11"/></g><g><polygon class="cls-24" points="82.99 93.49 102.98 105.8 88.37 161.74 67.95 150.79 82.99 93.49"/><polygon class="cls-1" points="82.99 93.49 102.98 105.8 88.37 161.74 67.95 150.79 82.99 93.49"/><polygon class="cls-25" points="67.95 150.79 88.37 161.74 36.14 150.3 14.65 139.18 67.95 150.79"/><polygon class="cls-23" points="82.99 93.49 67.95 150.79 14.65 139.18 29.69 82.51 82.99 93.49"/><polygon class="cls-3" points="82.99 93.49 67.95 150.79 14.65 139.18 29.69 82.51 82.99 93.49"/></g><g><polygon class="cls-22" points="38.27 79.45 55.32 72.41 36.55 91.23 19.42 98.42 38.27 79.45"/><polygon class="cls-14" points="18.66 54.43 35.88 47.68 55.32 72.41 38.27 79.45 18.66 54.43"/><polygon class="cls-18" points="38.27 79.45 19.42 98.42 0 73.53 18.66 54.43 38.27 79.45"/></g><g><polygon class="cls-20" points="63.62 171.3 72.95 169.6 72.07 186.12 62.75 187.98 63.62 171.3"/><polygon class="cls-21" points="49.65 169.13 59.06 167.47 72.95 169.6 63.62 171.3 49.65 169.13"/><polygon class="cls-15" points="63.62 171.3 62.75 187.98 48.82 185.71 49.65 169.13 63.62 171.3"/></g><g><polygon class="cls-19" points="103.34 72.34 102.8 88.61 94.28 66.85 94.72 50.46 103.34 72.34"/><polygon class="cls-16" points="131.22 65.14 130.38 81.46 102.8 88.61 103.34 72.34 131.22 65.14"/><polygon class="cls-17" points="103.34 72.34 94.72 50.46 122.42 43.37 131.22 65.14 103.34 72.34"/></g></g></g></g></g></svg>