<?xml version="1.0" encoding="UTF-8"?><svg id="Layer_2" xmlns="http://www.w3.org/2000/svg" viewBox="0 0 137.51 113.1"><defs><style>.cls-1{fill:#f0903b;}.cls-2{fill:#fff;}.cls-3{fill:#246db5;}.cls-4{fill:#1f2437;}</style></defs><g id="Layer_1-2"><g><g><path class="cls-4" d="M78,3.9V0h-7.8V3.9h7.8Z"/><path class="cls-4" d="M124.8,3.9V0h-7.8V3.9h7.8Z"/><path class="cls-4" d="M70.2,3.9h-3.9v7.8h3.9V3.9Z"/><path class="cls-4" d="M81.9,7.8h3.9V3.9h-7.8v3.9h3.9Z"/><rect class="cls-4" x="113.1" y="3.9" width="3.9" height="3.9"/><path class="cls-1" d="M120.9,7.8h3.9V3.9h-7.8v3.9h3.9Z"/><path class="cls-1" d="M74.1,7.8h3.9V3.9h-7.8v7.8h3.9v-3.9Z"/><rect class="cls-1" x="81.9" y="7.8" width="3.9" height="3.9"/><rect class="cls-1" x="113.1" y="7.8" width="3.9" height="3.9"/><path class="cls-2" d="M124.8,7.8h-7.8v3.9h3.9v3.9h3.9V7.8Z"/><path class="cls-4" d="M124.8,11.7v3.9h3.9V3.9h-3.9v7.8Z"/><path class="cls-4" d="M74.1,11.7h-3.9v7.8h3.9v-7.8Z"/><path class="cls-2" d="M81.9,11.7v-3.9h-7.8v7.8h3.9v3.9h3.9v-3.9h3.9v-3.9h-3.9Z"/><path class="cls-4" d="M85.8,15.6h3.9v-3.9h23.4v-3.9h-27.3v7.8Z"/><rect class="cls-4" x="113.1" y="11.7" width="3.9" height="3.9"/><rect class="cls-1" x="74.1" y="15.6" width="3.9" height="3.9"/><path class="cls-4" d="M78,23.4v-3.9h-3.9v7.8h3.9v-3.9Z"/><rect class="cls-2" x="97.5" y="23.4" width="3.9" height="3.9"/><rect class="cls-2" x="113.1" y="23.4" width="3.9" height="3.9"/><path class="cls-4" d="M27.3,31.2h11.7v-3.9H19.5v3.9h7.8Z"/><rect class="cls-4" x="70.2" y="27.3" width="3.9" height="3.9"/><rect class="cls-4" x="93.6" y="27.3" width="3.9" height="3.9"/><rect class="cls-4" x="15.6" y="31.2" width="3.9" height="3.9"/><rect class="cls-4" x="39" y="31.2" width="3.9" height="3.9"/><rect class="cls-4" x="97.5" y="31.2" width="3.9" height="3.9"/><rect class="cls-4" x="113.1" y="31.2" width="3.9" height="3.9"/><rect class="cls-1" x="117" y="31.2" width="3.9" height="3.9"/><rect class="cls-4" x="11.7" y="35.1" width="3.9" height="3.9"/><path class="cls-4" d="M70.2,35.1v-3.9h-3.9v7.8h3.9v-3.9Z"/><path class="cls-4" d="M128.7,35.1v-3.9h-3.9V15.6h-3.9v11.7h-3.9v3.9h3.9v3.9h-3.9v11.7h3.9v3.9h3.9v-3.9h3.9v3.9h3.9v-15.6h-3.9Z"/><rect class="cls-2" x="39" y="39" width="3.9" height="3.9"/><path class="cls-4" d="M42.9,42.9h-15.6v3.9H62.4v7.8h3.9v-15.6h-3.9v3.9h-15.6v-7.8h-3.9v7.8Z"/><rect class="cls-4" x="23.4" y="46.8" width="3.9" height="3.9"/><rect class="cls-4" x="101.4" y="46.8" width="3.9" height="3.9"/><rect class="cls-2" x="124.8" y="46.8" width="3.9" height="3.9"/><path class="cls-4" d="M113.1,50.7h-7.8v3.9h15.6v-3.9h-7.8Z"/><rect class="cls-2" x="120.9" y="50.7" width="3.9" height="3.9"/><rect class="cls-4" x="124.8" y="50.7" width="3.9" height="3.9"/><rect class="cls-4" x="66.3" y="54.6" width="3.9" height="3.9"/><path class="cls-2" d="M117,54.6h-11.7v-3.9h-3.9v-3.9h3.9v3.9h15.6v-3.9h-3.9v-11.7h-15.6v3.9h-3.9v3.9h-7.8v-3.9h-11.7v3.9h-3.9v11.7h3.9v3.9h3.9v3.9h3.9v3.9h-3.9v3.9h-3.9v7.8h-3.9v3.9h-3.9v3.9h-7.8v3.9h3.9v15.6h3.9v3.9h15.6v-7.8h-3.9v-7.8h3.9v-3.9h7.8v3.9h-3.9v11.7h3.9v3.9h15.6v-7.8h-3.9v-19.5h3.9v-7.8h3.9v-11.7h-11.7v-3.9h19.5v-3.9h-3.9Z"/><rect class="cls-4" x="120.9" y="54.6" width="3.9" height="3.9"/><path class="cls-4" d="M11.7,58.5v-19.5h-3.9v23.4h3.9v-3.9Z"/><rect class="cls-4" x="70.2" y="58.5" width="3.9" height="3.9"/><path class="cls-4" d="M113.1,58.5h-11.7v3.9h11.7v11.7h3.9v-11.7h3.9v-3.9h-7.8Z"/><path class="cls-4" d="M7.8,66.3v-3.9H3.9v7.8h3.9v-3.9Z"/><path class="cls-4" d="M109.2,78v3.9h3.9v-7.8h-3.9v3.9Z"/><path class="cls-4" d="M3.9,81.9v-11.7H0v19.5H3.9v-7.8Z"/><path class="cls-4" d="M105.3,85.8v15.6h3.9v-19.5h-3.9v3.9Z"/><path class="cls-4" d="M50.7,85.8h-3.9v15.6h3.9v-11.7h3.9v-3.9h-3.9Z"/><path class="cls-1" d="M62.4,89.7v-3.9h7.8v-3.9h3.9v-3.9h3.9v-7.8h3.9v-3.9h3.9v-3.9h-3.9v-3.9h-3.9v-3.9h-3.9v-11.7h3.9v-3.9h11.7v3.9h7.8v-3.9h3.9v-3.9h-3.9v-3.9h-3.9v-3.9h3.9v-3.9h3.9v3.9h-3.9v3.9h3.9v3.9h11.7v-3.9h3.9v-3.9h-3.9v-3.9h3.9v3.9h3.9V11.7h-3.9v3.9h-3.9v-3.9h-23.4v3.9h-7.8v3.9h-3.9v7.8h-3.9v3.9h-3.9v7.8h-3.9v15.6h3.9v3.9h3.9v3.9h-3.9v-3.9h-3.9v-3.9h-3.9v-7.8H27.3v3.9h-3.9v-3.9h3.9v-3.9h11.7v-3.9h3.9v-3.9h-3.9v-3.9H19.5v3.9h-3.9v3.9h-3.9v23.4h-3.9v7.8H3.9v15.6H15.6v-3.9h11.7v-3.9h7.8v3.9h7.8v3.9h11.7v3.9h7.8Z"/><path class="cls-4" d="M7.8,97.5v-7.8H3.9v15.6h3.9v-7.8Z"/><path class="cls-2" d="M46.8,97.5v-11.7h-3.9v-3.9h-7.8v-3.9h-7.8v3.9H15.6v3.9H3.9v3.9h3.9v15.6h3.9v3.9h15.6v-7.8h-3.9v-11.7h3.9v-3.9h11.7v3.9h-7.8v15.6h3.9v3.9h15.6v-7.8h-3.9v-3.9Z"/><path class="cls-4" d="M66.3,97.5v-7.8h-11.7v3.9h7.8v11.7h3.9v-7.8Z"/><rect class="cls-4" x="7.8" y="105.3" width="3.9" height="3.9"/><path class="cls-4" d="M31.2,105.3v-15.6h7.8v-3.9h-11.7v3.9h-3.9v11.7h3.9v7.8H11.7v3.9H31.2v-3.9h3.9v-3.9h-3.9Z"/><path class="cls-4" d="M50.7,109.2h-15.6v3.9h19.5v-11.7h-3.9v7.8Z"/><rect class="cls-4" x="66.3" y="105.3" width="3.9" height="3.9"/><path class="cls-4" d="M89.7,105.3v-11.7h3.9v-3.9h-7.8v3.9h-3.9v7.8h3.9v7.8h-15.6v3.9h19.5v-3.9h3.9v-3.9h-3.9Z"/><path class="cls-4" d="M109.2,109.2h-15.6v3.9h19.5v-11.7h-3.9v7.8Z"/></g><g><rect class="cls-3" x="134.87" y="35.28" width="2.61" height="2.61" transform="translate(-.68 2.63) rotate(-1.1)"/><rect class="cls-3" x="134.82" y="32.68" width="2.61" height="2.6" transform="translate(-.63 2.62) rotate(-1.1)"/><rect class="cls-3" x="134.77" y="30.07" width="2.61" height="2.61" transform="translate(-.58 2.62) rotate(-1.1)"/><rect class="cls-3" x="134.72" y="27.46" width="2.61" height="2.61" transform="translate(-.53 2.62) rotate(-1.1)"/><rect class="cls-3" x="134.67" y="24.86" width="2.61" height="2.6" transform="translate(-.48 2.62) rotate(-1.1)"/><rect class="cls-3" x="134.62" y="22.25" width="2.61" height="2.61" transform="translate(-.43 2.62) rotate(-1.1)"/><rect class="cls-2" x="132.27" y="35.33" width="2.61" height="2.61" transform="translate(-.68 2.58) rotate(-1.1)"/><rect class="cls-2" x="132.22" y="32.73" width="2.61" height="2.6" transform="translate(-.63 2.57) rotate(-1.1)"/><rect class="cls-2" x="132.17" y="30.12" width="2.61" height="2.61" transform="translate(-.58 2.57) rotate(-1.1)"/><rect class="cls-2" x="132.12" y="27.51" width="2.61" height="2.61" transform="translate(-.53 2.57) rotate(-1.1)"/><rect class="cls-2" x="132.07" y="24.91" width="2.61" height="2.6" transform="translate(-.48 2.57) rotate(-1.1)"/><rect class="cls-2" x="132.02" y="22.3" width="2.61" height="2.61" transform="translate(-.43 2.57) rotate(-1.1)"/><rect class="cls-2" x="129.66" y="35.38" width="2.6" height="2.61" transform="translate(-.68 2.53) rotate(-1.1)"/><rect class="cls-2" x="129.61" y="32.78" width="2.6" height="2.6" transform="translate(-.63 2.52) rotate(-1.1)"/><rect class="cls-2" x="129.56" y="30.17" width="2.6" height="2.61" transform="translate(-.58 2.52) rotate(-1.1)"/><rect class="cls-2" x="129.51" y="27.56" width="2.6" height="2.61" transform="translate(-.53 2.52) rotate(-1.1)"/><rect class="cls-2" x="129.46" y="24.96" width="2.6" height="2.6" transform="translate(-.48 2.52) rotate(-1.1)"/><rect class="cls-2" x="129.41" y="22.35" width="2.6" height="2.61" transform="translate(-.43 2.52) rotate(-1.1)"/><rect class="cls-2" x="127.06" y="35.43" width="2.61" height="2.61" transform="translate(-.68 2.48) rotate(-1.1)"/><rect class="cls-2" x="127.01" y="32.83" width="2.61" height="2.6" transform="translate(-.63 2.47) rotate(-1.1)"/><rect class="cls-2" x="126.96" y="30.22" width="2.61" height="2.61" transform="translate(-.58 2.47) rotate(-1.1)"/><rect class="cls-2" x="126.91" y="27.61" width="2.61" height="2.61" transform="translate(-.53 2.47) rotate(-1.1)"/><rect class="cls-2" x="126.86" y="25.01" width="2.61" height="2.6" transform="translate(-.48 2.47) rotate(-1.1)"/><rect class="cls-2" x="126.81" y="22.4" width="2.61" height="2.61" transform="translate(-.43 2.47) rotate(-1.1)"/><rect class="cls-2" x="126.75" y="19.8" width="8.01" height="2.55" transform="translate(-.38 2.52) rotate(-1.1)"/><rect class="cls-2" x="124.45" y="35.48" width="2.61" height="2.61" transform="translate(-.68 2.43) rotate(-1.1)"/><rect class="cls-2" x="124.4" y="32.88" width="2.61" height="2.6" transform="translate(-.63 2.42) rotate(-1.1)"/><rect class="cls-2" x="124.35" y="30.27" width="2.61" height="2.61" transform="translate(-.58 2.42) rotate(-1.1)"/><rect class="cls-2" x="124.3" y="27.66" width="2.61" height="2.61" transform="translate(-.53 2.42) rotate(-1.1)"/><rect class="cls-2" x="124.25" y="25.06" width="2.61" height="2.6" transform="translate(-.48 2.42) rotate(-1.1)"/><rect class="cls-2" x="124.2" y="22.45" width="2.61" height="2.61" transform="translate(-.43 2.42) rotate(-1.1)"/><rect class="cls-2" x="124.15" y="19.85" width="2.61" height="2.61" transform="translate(-.38 2.42) rotate(-1.1)"/><rect class="cls-2" x="121.84" y="35.53" width="2.61" height="2.61" transform="translate(-.69 2.37) rotate(-1.1)"/><rect class="cls-2" x="121.79" y="32.93" width="2.61" height="2.6" transform="translate(-.64 2.37) rotate(-1.1)"/><rect class="cls-2" x="121.74" y="30.32" width="2.61" height="2.61" transform="translate(-.59 2.37) rotate(-1.1)"/><rect class="cls-2" x="121.69" y="27.71" width="2.61" height="2.61" transform="translate(-.54 2.37) rotate(-1.1)"/><rect class="cls-2" x="121.64" y="25.11" width="2.61" height="2.6" transform="translate(-.49 2.37) rotate(-1.1)"/><rect class="cls-2" x="121.59" y="22.5" width="2.61" height="2.61" transform="translate(-.44 2.37) rotate(-1.1)"/><rect class="cls-2" x="121.54" y="19.9" width="2.61" height="2.61" transform="translate(-.38 2.37) rotate(-1.1)"/><rect class="cls-2" x="119.24" y="35.58" width="2.6" height="2.61" transform="translate(-.69 2.32) rotate(-1.1)"/><rect class="cls-2" x="119.19" y="32.98" width="2.6" height="2.6" transform="translate(-.64 2.32) rotate(-1.1)"/><rect class="cls-2" x="119.14" y="30.37" width="2.6" height="2.61" transform="translate(-.59 2.32) rotate(-1.1)"/><rect class="cls-2" x="119.09" y="27.76" width="2.6" height="2.61" transform="translate(-.54 2.32) rotate(-1.1)"/><rect class="cls-2" x="119.04" y="25.16" width="2.6" height="2.6" transform="translate(-.49 2.32) rotate(-1.1)"/><rect class="cls-2" x="118.99" y="22.55" width="2.6" height="2.61" transform="translate(-.44 2.32) rotate(-1.1)"/><rect class="cls-2" x="118.94" y="19.95" width="2.6" height="2.61" transform="translate(-.39 2.32) rotate(-1.1)"/><rect class="cls-2" x="116.58" y="33.03" width="2.61" height="2.6" transform="translate(-.64 2.27) rotate(-1.1)"/><rect class="cls-2" x="116.53" y="30.42" width="2.61" height="2.61" transform="translate(-.59 2.27) rotate(-1.1)"/><rect class="cls-2" x="116.48" y="27.81" width="2.61" height="2.61" transform="translate(-.54 2.27) rotate(-1.1)"/><rect class="cls-2" x="116.43" y="25.21" width="2.61" height="2.6" transform="translate(-.49 2.27) rotate(-1.1)"/><rect class="cls-2" x="116.38" y="22.6" width="2.61" height="2.61" transform="translate(-.44 2.27) rotate(-1.1)"/><rect class="cls-2" x="116.33" y="20" width="2.61" height="2.61" transform="translate(-.39 2.27) rotate(-1.1)"/><rect class="cls-2" x="113.95" y="30.47" width="2.61" height="5.27" transform="translate(-.62 2.22) rotate(-1.1)"/><rect class="cls-2" x="113.88" y="27.86" width="2.61" height="2.61" transform="translate(-.54 2.22) rotate(-1.1)"/><rect class="cls-2" x="113.83" y="25.26" width="2.61" height="2.6" transform="translate(-.49 2.22) rotate(-1.1)"/><rect class="cls-2" x="113.78" y="22.65" width="2.61" height="2.61" transform="translate(-.44 2.22) rotate(-1.1)"/><rect class="cls-2" x="113.73" y="20.05" width="2.61" height="2.61" transform="translate(-.39 2.22) rotate(-1.1)"/><rect class="cls-2" x="111.35" y="30.52" width="2.6" height="5.27" transform="translate(-.62 2.17) rotate(-1.1)"/><rect class="cls-2" x="111.28" y="27.91" width="2.6" height="2.61" transform="translate(-.54 2.17) rotate(-1.1)"/><rect class="cls-2" x="111.23" y="25.31" width="2.6" height="2.6" transform="translate(-.49 2.17) rotate(-1.1)"/><rect class="cls-2" x="111.18" y="22.7" width="2.6" height="2.61" transform="translate(-.44 2.17) rotate(-1.1)"/><rect class="cls-2" x="111.13" y="20.1" width="2.6" height="2.61" transform="translate(-.39 2.17) rotate(-1.1)"/><rect class="cls-2" x="108.77" y="33.18" width="2.61" height="2.6" transform="translate(-.64 2.12) rotate(-1.1)"/><rect class="cls-2" x="108.72" y="30.57" width="2.61" height="2.61" transform="translate(-.59 2.12) rotate(-1.1)"/><rect class="cls-2" x="108.67" y="27.96" width="2.61" height="2.61" transform="translate(-.54 2.12) rotate(-1.1)"/><rect class="cls-2" x="108.62" y="25.36" width="2.61" height="2.6" transform="translate(-.49 2.12) rotate(-1.1)"/><rect class="cls-2" x="108.57" y="22.75" width="2.61" height="2.61" transform="translate(-.44 2.12) rotate(-1.1)"/><rect class="cls-2" x="108.52" y="20.15" width="2.61" height="2.61" transform="translate(-.39 2.12) rotate(-1.1)"/><rect class="cls-2" x="106.21" y="35.83" width="2.61" height="2.61" transform="translate(-.69 2.07) rotate(-1.1)"/><rect class="cls-2" x="108.33" y="35.56" width="13.15" height="2.61" transform="translate(-.69 2.22) rotate(-1.1)"/><rect class="cls-2" x="106.16" y="33.23" width="2.61" height="2.6" transform="translate(-.64 2.07) rotate(-1.1)"/><rect class="cls-2" x="106.11" y="30.62" width="2.61" height="2.61" transform="translate(-.59 2.07) rotate(-1.1)"/><rect class="cls-2" x="106.06" y="28.01" width="2.61" height="2.61" transform="translate(-.54 2.07) rotate(-1.1)"/><rect class="cls-2" x="106.01" y="25.41" width="2.61" height="2.6" transform="translate(-.49 2.07) rotate(-1.1)"/><rect class="cls-2" x="105.96" y="22.8" width="2.61" height="2.61" transform="translate(-.44 2.07) rotate(-1.1)"/><rect class="cls-2" x="105.91" y="20.2" width="2.61" height="2.61" transform="translate(-.39 2.07) rotate(-1.1)"/><rect class="cls-2" x="103.61" y="35.88" width="2.6" height="2.61" transform="translate(-.7 2.02) rotate(-1.1)"/><rect class="cls-2" x="103.56" y="33.28" width="2.6" height="2.6" transform="translate(-.65 2.02) rotate(-1.1)"/><rect class="cls-2" x="103.51" y="30.67" width="2.6" height="2.61" transform="translate(-.6 2.02) rotate(-1.1)"/><rect class="cls-2" x="103.46" y="28.06" width="2.6" height="2.61" transform="translate(-.55 2.02) rotate(-1.1)"/><rect class="cls-2" x="103.41" y="25.46" width="2.6" height="2.6" transform="translate(-.5 2.02) rotate(-1.1)"/><rect class="cls-2" x="103.36" y="22.86" width="2.6" height="2.61" transform="translate(-.45 2.02) rotate(-1.1)"/><rect class="cls-2" x="103.31" y="20.25" width="2.6" height="2.61" transform="translate(-.4 2.02) rotate(-1.1)"/><rect class="cls-2" x="101" y="35.93" width="2.61" height="2.61" transform="translate(-.7 1.97) rotate(-1.1)"/><rect class="cls-2" x="100.95" y="33.33" width="2.61" height="2.6" transform="translate(-.65 1.97) rotate(-1.1)"/><rect class="cls-2" x="100.9" y="30.72" width="2.61" height="2.61" transform="translate(-.6 1.97) rotate(-1.1)"/><rect class="cls-2" x="100.85" y="28.11" width="2.61" height="2.61" transform="translate(-.55 1.97) rotate(-1.1)"/><rect class="cls-2" x="100.8" y="25.51" width="2.61" height="2.6" transform="translate(-.5 1.97) rotate(-1.1)"/><rect class="cls-2" x="100.75" y="22.91" width="2.61" height="2.61" transform="translate(-.45 1.97) rotate(-1.1)"/><rect class="cls-2" x="100.7" y="20.3" width="2.61" height="2.61" transform="translate(-.4 1.97) rotate(-1.1)"/><rect class="cls-2" x="98.4" y="35.98" width="2.61" height="2.61" transform="translate(-.7 1.92) rotate(-1.1)"/><rect class="cls-2" x="98.35" y="33.38" width="2.61" height="2.6" transform="translate(-.65 1.92) rotate(-1.1)"/><rect class="cls-2" x="98.3" y="30.77" width="2.61" height="2.61" transform="translate(-.6 1.92) rotate(-1.1)"/><rect class="cls-2" x="98.25" y="28.16" width="2.61" height="2.61" transform="translate(-.55 1.92) rotate(-1.1)"/><rect class="cls-2" x="98.2" y="25.56" width="2.61" height="2.6" transform="translate(-.5 1.92) rotate(-1.1)"/><rect class="cls-2" x="98.15" y="22.96" width="2.61" height="2.61" transform="translate(-.45 1.92) rotate(-1.1)"/><rect class="cls-2" x="98.1" y="20.35" width="2.61" height="2.61" transform="translate(-.4 1.92) rotate(-1.1)"/><rect class="cls-3" x="98.04" y="17.42" width="36.49" height="2.66" transform="translate(-.34 2.24) rotate(-1.1)"/><rect class="cls-2" x="95.79" y="36.03" width="2.61" height="2.61" transform="translate(-.7 1.87) rotate(-1.1)"/><rect class="cls-3" x="104.15" y="38.03" width="30.72" height="2.65" transform="translate(-.73 2.31) rotate(-1.1)"/><rect class="cls-3" x="101.55" y="38.39" width="2.61" height="2.61" transform="translate(-.74 1.99) rotate(-1.1)"/><rect class="cls-3" x="98.94" y="38.44" width="2.61" height="2.61" transform="translate(-.75 1.94) rotate(-1.1)"/><rect class="cls-3" x="96.34" y="38.49" width="2.61" height="2.61" transform="translate(-.75 1.88) rotate(-1.1)"/><rect class="cls-2" x="95.74" y="33.43" width="2.61" height="2.6" transform="translate(-.65 1.87) rotate(-1.1)"/><rect class="cls-2" x="95.69" y="30.82" width="2.61" height="2.61" transform="translate(-.6 1.87) rotate(-1.1)"/><rect class="cls-2" x="95.64" y="28.21" width="2.61" height="2.61" transform="translate(-.55 1.87) rotate(-1.1)"/><rect class="cls-2" x="95.59" y="25.61" width="2.61" height="2.6" transform="translate(-.5 1.87) rotate(-1.1)"/><rect class="cls-2" x="95.54" y="23.01" width="2.61" height="2.61" transform="translate(-.45 1.87) rotate(-1.1)"/><rect class="cls-2" x="95.49" y="20.4" width="2.61" height="2.61" transform="translate(-.4 1.87) rotate(-1.1)"/><rect class="cls-3" x="95.44" y="17.79" width="2.61" height="2.61" transform="translate(-.35 1.86) rotate(-1.1)"/><rect class="cls-3" x="92.83" y="17.84" width="2.61" height="2.61" transform="translate(-.35 1.81) rotate(-1.1)"/><rect class="cls-3" x="93.19" y="36.08" width="2.6" height="2.61" transform="translate(-.7 1.82) rotate(-1.1)"/><rect class="cls-2" x="93.14" y="33.48" width="2.6" height="2.6" transform="translate(-.65 1.82) rotate(-1.1)"/><rect class="cls-2" x="93.09" y="30.87" width="2.6" height="2.61" transform="translate(-.6 1.82) rotate(-1.1)"/><rect class="cls-2" x="93.04" y="28.26" width="2.6" height="2.61" transform="translate(-.55 1.82) rotate(-1.1)"/><rect class="cls-2" x="92.99" y="25.66" width="2.6" height="2.6" transform="translate(-.5 1.82) rotate(-1.1)"/><rect class="cls-2" x="92.94" y="23.06" width="2.6" height="2.61" transform="translate(-.45 1.82) rotate(-1.1)"/><rect class="cls-2" x="92.89" y="20.45" width="2.6" height="2.61" transform="translate(-.4 1.82) rotate(-1.1)"/><rect class="cls-3" x="134.58" y="19.67" width="2.6" height="2.61" transform="translate(-.38 2.62) rotate(-1.1)"/><rect class="cls-3" x="90.53" y="33.53" width="2.61" height="2.6" transform="translate(-.65 1.77) rotate(-1.1)"/><rect class="cls-3" x="87.76" y="22.34" width="2.61" height="2.6" transform="translate(-.44 1.72) rotate(-1.1)"/><rect class="cls-3" x="87.81" y="24.95" width="2.61" height="2.6" transform="translate(-.49 1.72) rotate(-1.1)"/><rect class="cls-3" x="68.35" y="22.56" width="19.41" height="2.6" transform="translate(-.44 1.51) rotate(-1.1)"/><rect class="cls-3" x="68.4" y="25.16" width="19.41" height="2.6" transform="translate(-.49 1.51) rotate(-1.1)"/><rect class="cls-3" x="68.47" y="27.7" width="19.58" height="2.6" transform="translate(-.54 1.51) rotate(-1.1)"/><rect class="cls-3" x="68.51" y="30.3" width="19.58" height="2.6" transform="translate(-.59 1.51) rotate(-1.1)"/><rect class="cls-2" x="90.48" y="30.92" width="2.61" height="2.61" transform="translate(-.6 1.77) rotate(-1.1)"/><rect class="cls-2" x="90.43" y="28.31" width="2.61" height="2.61" transform="translate(-.55 1.77) rotate(-1.1)"/><rect class="cls-2" x="90.38" y="25.71" width="2.61" height="2.6" transform="translate(-.5 1.77) rotate(-1.1)"/><rect class="cls-2" x="90.33" y="23.11" width="2.61" height="2.61" transform="translate(-.45 1.77) rotate(-1.1)"/><rect class="cls-3" x="90.28" y="20.5" width="2.61" height="2.61" transform="translate(-.4 1.77) rotate(-1.1)"/><rect class="cls-3" x="88.1" y="33.58" width="2.61" height="2.6" transform="translate(-.65 1.73) rotate(-1.1)"/><rect class="cls-3" x="88.05" y="30.98" width="2.61" height="2.61" transform="translate(-.6 1.72) rotate(-1.1)"/><rect class="cls-3" x="88" y="28.37" width="2.61" height="2.61" transform="translate(-.55 1.72) rotate(-1.1)"/><rect class="cls-3" x="87.95" y="25.77" width="2.61" height="2.6" transform="translate(-.5 1.72) rotate(-1.1)"/><rect class="cls-3" x="87.9" y="23.16" width="2.61" height="2.61" transform="translate(-.45 1.72) rotate(-1.1)"/><rect class="cls-3" x="87.85" y="20.55" width="2.61" height="2.61" transform="translate(-.4 1.72) rotate(-1.1)"/></g></g></g></svg>