<?xml version="1.0" encoding="UTF-8"?><svg id="Layer_2" xmlns="http://www.w3.org/2000/svg" viewBox="0 0 323.79 103.23"><defs><style>.cls-1{fill:#f9cd2c;}.cls-2{fill:#072e54;}</style></defs><g id="Layer_1-2"><path class="cls-2" d="M19.56,6.73c-.33,.07-.66,.15-.99,.22-1.89,.42-3.07,2.3-2.65,4.18,.42,1.89,2.3,3.07,4.18,2.65,.32-.07,.64-.14,.96-.21,1.89-.42,3.08-2.28,2.66-4.17-.42-1.89-2.28-3.08-4.17-2.66h0Zm16.87-3.12c-.33,.05-.66,.1-1,.15-1.91,.3-3.22,2.09-2.92,4,.3,1.91,2.09,3.22,4,2.92,.32-.05,.65-.1,.97-.15,1.91-.29,3.23-2.07,2.94-3.99-.29-1.91-2.07-3.23-3.99-2.93h0ZM53.42,1.53c-.33,.03-.67,.06-1,.1-1.92,.19-3.33,1.9-3.14,3.82,.19,1.92,1.9,3.33,3.82,3.14,.33-.03,.65-.06,.98-.09,1.92-.18,3.34-1.89,3.15-3.81-.18-1.92-1.89-3.34-3.81-3.15h0ZM70.48,.36c-.34,.01-.67,.03-1,.05-1.93,.09-3.42,1.73-3.33,3.66,.09,1.93,1.73,3.42,3.66,3.33,.33-.02,.66-.03,.98-.05,1.93-.09,3.43-1.72,3.34-3.65-.09-1.93-1.72-3.43-3.65-3.34h0ZM87.56,0c-.29,0-.59,0-.88,0h-.13c-1.93,0-3.5,1.57-3.5,3.5,0,1.93,1.57,3.5,3.5,3.5h.12c.29,0,.57,0,.86,0,1.93,0,3.5-1.56,3.51-3.49,0-1.93-1.56-3.5-3.49-3.51Zm17.07,.42c-.33-.02-.67-.03-1-.05-1.93-.09-3.57,1.41-3.65,3.34-.09,1.93,1.41,3.57,3.34,3.65,.33,.01,.66,.03,.99,.04,1.93,.09,3.57-1.4,3.66-3.33,.09-1.93-1.4-3.57-3.33-3.66h0Zm17.03,1.17c-.33-.03-.67-.06-1-.09-1.93-.17-3.62,1.25-3.79,3.18-.17,1.93,1.25,3.62,3.18,3.79,.33,.03,.65,.06,.98,.09,1.93,.17,3.63-1.24,3.8-3.17,.17-1.93-1.24-3.63-3.17-3.8h0Zm16.97,1.91c-.33-.04-.67-.09-1-.13-1.92-.25-3.68,1.09-3.93,3.01-.25,1.92,1.09,3.68,3.01,3.93,.33,.04,.65,.09,.98,.13,1.92,.26,3.68-1.08,3.94-3,.26-1.92-1.08-3.68-3-3.94h0Zm16.87,2.66c-.33-.06-.66-.12-.99-.18-1.9-.34-3.72,.93-4.06,2.83-.34,1.9,.93,3.72,2.83,4.06,.32,.06,.65,.12,.97,.17,1.9,.34,3.72-.92,4.07-2.82,.34-1.9-.92-3.72-2.82-4.07h0Zm16.74,3.4c-.33-.07-.66-.15-.98-.22-1.89-.42-3.76,.76-4.18,2.65-.42,1.89,.76,3.76,2.65,4.18,.32,.07,.64,.14,.96,.22,1.88,.43,3.76-.75,4.19-2.64,.43-1.89-.75-3.76-2.64-4.19h0Zm16.57,4.17c-.32-.09-.65-.18-.97-.27-1.86-.51-3.79,.59-4.3,2.45-.51,1.86,.59,3.79,2.45,4.3,.32,.09,.63,.17,.95,.26,1.86,.52,3.79-.58,4.31-2.44,.52-1.86-.58-3.79-2.44-4.31h0Zm16.36,4.95c-.32-.11-.64-.21-.96-.31-1.84-.6-3.81,.4-4.41,2.24-.6,1.84,.4,3.81,2.24,4.41,.31,.1,.63,.2,.94,.31,1.84,.61,3.81-.39,4.42-2.23,.61-1.84-.39-3.81-2.23-4.42h0Zm16.11,5.86c-.31-.13-.62-.25-.94-.38-1.8-.72-3.83,.16-4.55,1.96-.72,1.8,.16,3.83,1.96,4.55,.3,.12,.61,.24,.91,.36,1.79,.72,3.83-.15,4.55-1.94,.72-1.79-.15-3.83-1.94-4.55h0Zm15.68,6.97c-.3-.15-.61-.29-.91-.44-1.74-.84-3.83-.11-4.67,1.63-.84,1.74-.11,3.83,1.63,4.67,.29,.14,.59,.28,.88,.43,1.74,.85,3.83,.12,4.68-1.62,.85-1.74,.12-3.83-1.62-4.68h0Zm15.16,8.04c-.29-.17-.58-.33-.88-.5-1.68-.96-3.82-.37-4.77,1.31-.96,1.68-.37,3.82,1.31,4.77,.28,.16,.57,.32,.85,.49,1.68,.96,3.82,.39,4.78-1.29,.96-1.68,.39-3.82-1.29-4.78h0Zm14.57,9.06c-.28-.19-.56-.37-.84-.56-1.61-1.07-3.78-.63-4.85,.98-1.07,1.61-.63,3.78,.98,4.85,.27,.18,.54,.36,.82,.54,1.61,1.08,3.78,.65,4.86-.96,1.08-1.61,.65-3.78-.96-4.86h0Zm13.92,10.02c-.27-.21-.53-.41-.8-.61-1.54-1.17-3.73-.88-4.91,.65-1.17,1.54-.88,3.73,.65,4.91,.26,.2,.52,.4,.78,.6,1.53,1.18,3.73,.9,4.91-.64,1.18-1.53,.9-3.73-.64-4.91h0Zm13.23,10.9c-.25-.22-.51-.44-.76-.66-1.46-1.27-3.67-1.12-4.94,.34-1.27,1.46-1.12,3.67,.34,4.94,.25,.22,.49,.43,.74,.65,1.45,1.28,3.66,1.13,4.94-.32,1.28-1.45,1.13-3.66-.32-4.94h0Zm12.52,11.7c-.24-.24-.48-.47-.72-.71-1.38-1.36-3.59-1.34-4.95,.03-1.36,1.38-1.34,3.59,.03,4.95,.23,.23,.47,.46,.7,.69,1.37,1.36,3.59,1.35,4.95-.02,1.36-1.37,1.35-3.59-.02-4.95Zm11.79,12.42c-.22-.25-.45-.5-.67-.75-1.29-1.44-3.51-1.55-4.94-.26-1.44,1.29-1.55,3.51-.26,4.94,.22,.24,.44,.49,.66,.73,1.29,1.44,3.5,1.56,4.94,.27,1.44-1.29,1.56-3.5,.27-4.94h0Z"/><path class="cls-2" d="M2.93,11.12c-.16,.05-.32,.1-.48,.15C.61,11.85-.42,13.82,.16,15.66c.58,1.84,2.55,2.87,4.39,2.29,.15-.05,.31-.1,.46-.15,1.85-.58,2.87-2.54,2.3-4.38-.58-1.85-2.54-2.87-4.38-2.3h0Z"/><polygon class="cls-1" points="318.87 95.66 320.6 93.7 318.64 91.98 320.36 90.02 318.4 88.3 318.4 88.3 318.39 88.3 318.4 88.29 318.4 88.29 320.13 86.33 318.17 84.6 319.9 82.65 317.94 80.92 316.21 82.88 316.21 82.88 314.49 84.84 312.76 86.8 302.96 78.16 301 76.43 299.28 78.38 297.55 80.34 297.55 80.35 295.82 82.3 295.82 82.31 307.58 92.68 305.86 94.63 304.13 96.59 302.4 98.55 304.36 100.28 306.08 98.32 306.09 98.31 308.04 100.04 309.77 98.08 309.77 98.08 309.78 98.07 309.78 98.08 309.77 98.09 311.73 99.81 313.46 97.86 313.46 97.86 315.41 99.58 317.14 97.62 317.15 97.62 319.11 99.35 320.83 97.39 318.87 95.66"/><path class="cls-2" d="M319.9,82.65l-1.72,1.96,1.96,1.72-1.73,1.96h0s-.01,.01-.01,.01h0s0,0,0,0l1.96,1.73-1.72,1.95,1.96,1.73-1.73,1.96,1.96,1.73-1.72,1.96-1.96-1.73h0s-1.73,1.97-1.73,1.97l-1.96-1.72h0s-1.72,1.95-1.72,1.95l-1.96-1.72h0s0-.02,0-.02h0s0,0,0,0l-1.73,1.96-1.96-1.72h0s-1.73,1.96-1.73,1.96l-1.96-1.72,1.73-1.96,1.73-1.96,1.72-1.95-11.76-10.37h0s1.72-1.96,1.72-1.96h0s1.72-1.96,1.72-1.96l1.72-1.96,1.96,1.73,9.8,8.64,1.72-1.96,1.73-1.96h0s1.73-1.96,1.73-1.96l1.96,1.72m2.96-.19l-1.57-1.39-1.96-1.72-1.57-1.39-1.39,1.57-1.73,1.96-1.73,1.96-.34,.38-8.23-7.25-1.96-1.73-1.57-1.39-1.39,1.57-1.72,1.96-1.72,1.96-1.73,1.96-1.39,1.57,1.57,1.39,10.19,8.98-.34,.38-1.73,1.96-1.73,1.96-1.39,1.57,1.57,1.39,1.96,1.72,1.57,1.39,1.39-1.57,.35-.39,.39,.34,1.57,1.39,1.39-1.57,.34-.38,.39,.35,1.57,1.39,1.39-1.57,.34-.39,.39,.34,1.57,1.39,1.39-1.57,.35-.39,.39,.34,1.57,1.39,1.39-1.57,1.72-1.96,1.39-1.57-1.57-1.39-.39-.34,.34-.39,1.39-1.57-1.57-1.39-.39-.34,.34-.38,1.39-1.57-1.57-1.39-.39-.35,.35-.39,1.39-1.57-1.57-1.39-.39-.34,.34-.38,1.39-1.57Z"/></g></svg>