<?xml version="1.0" encoding="UTF-8"?><svg id="Layer_2" xmlns="http://www.w3.org/2000/svg" viewBox="0 0 27.83 33.12"><defs><style>.cls-1{fill:#f9cd2c;}.cls-2{fill:#072e54;}</style></defs><g id="Layer_1-2"><g><polygon class="cls-1" points="15.42 28.31 18.03 28.26 17.97 25.65 20.57 25.59 20.52 22.98 20.51 22.98 20.51 22.97 20.53 22.97 20.53 22.97 23.14 22.92 23.09 20.31 25.69 20.26 25.64 17.65 23.03 17.7 23.02 17.7 20.41 17.76 17.81 17.81 17.53 4.75 17.48 2.14 14.87 2.19 12.26 2.25 12.26 2.25 9.65 2.3 9.64 2.3 9.97 17.98 7.36 18.03 4.75 18.09 2.14 18.14 2.19 20.75 4.81 20.69 4.81 20.69 4.86 23.3 7.48 23.25 7.48 23.25 7.48 23.25 7.48 23.26 7.47 23.26 7.53 25.86 10.13 25.81 10.13 25.81 10.19 28.42 12.8 28.37 12.81 28.37 12.86 30.98 15.47 30.92 15.42 28.31"/><path class="cls-2" d="M25.69,20.26l-2.61,.05,.05,2.61-2.61,.05h0s-.02,0-.02,0h0s.01,0,.01,0l.05,2.61-2.6,.05,.05,2.61-2.61,.05,.05,2.61-2.61,.05-.05-2.61h0s-2.61,.05-2.61,.05l-.05-2.61h0s-2.61,.05-2.61,.05l-.05-2.61h.01s0,0,0,0h0s0,0,0,0l-2.61,.05-.05-2.61h0s-2.61,.05-2.61,.05l-.05-2.61,2.61-.05,2.61-.05,2.61-.05-.33-15.67h0s2.61-.05,2.61-.05h0s2.61-.05,2.61-.05l2.61-.05,.05,2.61,.27,13.06,2.61-.05,2.61-.05h0s2.61-.05,2.61-.05l.05,2.61m2.14,2.05l-.04-2.09-.05-2.61-.04-2.09-2.09,.04-2.61,.05-2.61,.05h-.51s-.23-10.96-.23-10.96l-.05-2.61-.04-2.09-2.09,.04-2.61,.05-2.61,.05-2.61,.05-2.09,.04,.03,2.09,.28,13.58h-.51s-2.61,.07-2.61,.07l-2.61,.05-2.09,.04,.04,2.09,.05,2.61,.04,2.09,2.09-.04h.52s.01,.5,.01,.5l.04,2.09,2.09-.04h.51s.01,.51,.01,.51l.04,2.09,2.09-.04h.51s.01,.51,.01,.51l.04,2.09,2.09-.04h.53s.01,.51,.01,.51l.04,2.09,2.09-.04,2.61-.05,2.09-.04-.04-2.09v-.52s.51-.01,.51-.01l2.09-.04-.04-2.09v-.51s.5-.01,.5-.01l2.09-.04-.04-2.09v-.52s.51-.01,.51-.01l2.09-.04-.04-2.09v-.51s.5-.01,.5-.01l2.09-.04h0Z"/></g></g></svg>