<?xml version="1.0" encoding="UTF-8"?><svg id="Layer_2" xmlns="http://www.w3.org/2000/svg" viewBox="0 0 436.59 94.37"><defs><style>.cls-1{fill:#f9cd2c;}.cls-2{fill:#072e54;}</style></defs><g id="Layer_1-2"><path class="cls-2" d="M5.37,84.29c-.27,.22-.53,.45-.79,.68-1.46,1.27-1.61,3.48-.35,4.94,1.27,1.46,3.48,1.61,4.94,.35,.24-.21,.48-.41,.72-.62,1.48-1.25,1.66-3.46,.41-4.93-1.25-1.48-3.46-1.66-4.93-.41h0Zm14.23-10.04c-.29,.18-.58,.35-.87,.53-1.65,1.01-2.17,3.16-1.16,4.81,1.01,1.65,3.16,2.17,4.81,1.16,.27-.17,.55-.34,.83-.5,1.66-1,2.19-3.15,1.19-4.8-1-1.66-3.15-2.19-4.8-1.19h0Zm15.16-8.14c-.3,.15-.61,.29-.91,.44-1.74,.85-2.46,2.94-1.61,4.68,.85,1.74,2.94,2.46,4.68,1.61,.29-.14,.58-.28,.88-.43,1.74-.84,2.47-2.93,1.63-4.67-.84-1.74-2.93-2.47-4.67-1.63h0Zm15.63-6.93c-.31,.13-.62,.25-.93,.38-1.79,.74-2.64,2.78-1.9,4.57,.74,1.79,2.78,2.64,4.57,1.9,.3-.12,.6-.25,.91-.37,1.79-.73,2.65-2.78,1.91-4.56-.73-1.79-2.78-2.65-4.56-1.91h0Zm15.92-6.08c-.31,.11-.63,.23-.94,.34-1.82,.66-2.76,2.66-2.1,4.48,.66,1.82,2.66,2.76,4.48,2.1,.31-.11,.62-.22,.93-.33,1.82-.65,2.77-2.66,2.11-4.48-.65-1.82-2.66-2.77-4.48-2.11Zm16.1-5.46c-.32,.1-.63,.2-.95,.31-1.84,.59-2.85,2.57-2.25,4.41,.59,1.84,2.57,2.85,4.41,2.25,.31-.1,.63-.2,.94-.3,1.84-.59,2.85-2.56,2.26-4.4-.59-1.84-2.56-2.85-4.4-2.26Zm16.23-4.97c-.32,.09-.64,.19-.96,.28-1.85,.55-2.92,2.49-2.37,4.35,.55,1.85,2.49,2.92,4.35,2.37,.32-.09,.63-.19,.95-.28,1.86-.54,2.92-2.49,2.38-4.34-.54-1.86-2.49-2.92-4.34-2.38h0Zm16.33-4.59c-.32,.09-.64,.17-.96,.26-1.87,.51-2.97,2.43-2.46,4.29,.51,1.87,2.43,2.97,4.29,2.46,.32-.09,.64-.17,.95-.26,1.87-.5,2.97-2.42,2.47-4.29-.5-1.87-2.42-2.97-4.29-2.47h0Zm16.42-4.27c-.32,.08-.65,.16-.97,.24-1.87,.47-3.01,2.37-2.54,4.25,.47,1.87,2.37,3.01,4.25,2.54,.32-.08,.64-.16,.96-.24,1.87-.47,3.01-2.37,2.54-4.25-.47-1.87-2.37-3.01-4.25-2.54h0Zm16.46-4c-.32,.08-.65,.15-.97,.23-1.88,.44-3.05,2.33-2.6,4.21,.44,1.88,2.33,3.05,4.21,2.6,.32-.08,.64-.15,.96-.23,1.88-.44,3.05-2.33,2.6-4.21-.44-1.88-2.33-3.05-4.21-2.6Zm16.51-3.78c-.32,.07-.65,.14-.97,.22-1.89,.42-3.07,2.29-2.65,4.18,.42,1.89,2.29,3.07,4.18,2.65,.32-.07,.64-.14,.97-.22,1.89-.42,3.08-2.29,2.66-4.18-.42-1.89-2.29-3.08-4.18-2.66h0Zm16.54-3.58c-.32,.07-.65,.14-.97,.21-1.89,.4-3.1,2.26-2.7,4.15,.4,1.89,2.26,3.1,4.15,2.7,.32-.07,.65-.14,.97-.21,1.89-.4,3.1-2.26,2.7-4.15-.4-1.89-2.26-3.1-4.15-2.7h0Zm16.57-3.42c-.32,.07-.65,.13-.97,.2-1.89,.38-3.12,2.23-2.74,4.13,.38,1.89,2.23,3.12,4.13,2.74,.32-.07,.65-.13,.97-.2,1.89-.38,3.12-2.23,2.74-4.12-.38-1.89-2.23-3.12-4.12-2.74Zm16.59-3.29c-.32,.06-.65,.13-.98,.19-1.9,.37-3.14,2.21-2.77,4.11s2.21,3.14,4.11,2.77c.32-.06,.65-.13,.97-.19,1.9-.37,3.14-2.21,2.77-4.1-.37-1.9-2.21-3.14-4.1-2.77Zm16.6-3.18c-.32,.06-.65,.12-.98,.18-1.9,.36-3.15,2.19-2.79,4.09,.36,1.9,2.19,3.15,4.09,2.79,.33-.06,.65-.12,.97-.18,1.9-.36,3.15-2.19,2.79-4.09-.36-1.9-2.19-3.15-4.09-2.79h0Zm16.69-3.04c-.33,.05-.66,.11-.99,.16-1.91,.32-3.19,2.13-2.87,4.03,.32,1.91,2.13,3.19,4.03,2.87,.32-.05,.65-.11,.97-.16,1.91-.32,3.2-2.12,2.88-4.03-.32-1.91-2.12-3.2-4.03-2.88h0Zm16.81-2.49c-.33,.04-.66,.09-.99,.13-1.92,.26-3.26,2.02-3.01,3.93,.26,1.92,2.02,3.26,3.93,3.01,.33-.04,.65-.09,.98-.13,1.92-.25,3.27-2.01,3.01-3.93-.25-1.92-2.01-3.27-3.93-3.01h0Zm16.85-1.98c-.33,.03-.66,.07-.99,.1-1.92,.2-3.32,1.93-3.11,3.85,.2,1.92,1.93,3.32,3.85,3.11,.33-.03,.65-.07,.98-.1,1.92-.2,3.32-1.92,3.12-3.84-.2-1.92-1.92-3.32-3.84-3.12h0Zm16.88-1.57c-.33,.03-.66,.05-.99,.08-1.93,.16-3.36,1.85-3.2,3.78,.16,1.93,1.85,3.36,3.78,3.2,.33-.03,.66-.05,.98-.08,1.93-.16,3.36-1.85,3.2-3.78-.16-1.93-1.85-3.36-3.78-3.2h0Zm16.9-1.23c-.33,.02-.66,.04-.99,.06-1.93,.12-3.39,1.79-3.27,3.72,.12,1.93,1.79,3.39,3.72,3.27,.33-.02,.66-.04,.99-.06,1.93-.12,3.39-1.79,3.27-3.71-.12-1.93-1.79-3.39-3.71-3.27h0Zm16.91-.93c-.33,.02-.66,.03-.99,.05-1.93,.09-3.42,1.73-3.33,3.66,.09,1.93,1.73,3.42,3.66,3.33,.33-.02,.66-.03,.99-.05,1.93-.09,3.42-1.73,3.33-3.66-.09-1.93-1.73-3.42-3.66-3.33h0Zm16.92-.67c-.33,.01-.67,.02-1,.03-1.93,.06-3.45,1.68-3.38,3.61,.06,1.93,1.68,3.45,3.61,3.38,.33-.01,.66-.02,.99-.03,1.93-.06,3.45-1.68,3.39-3.61-.06-1.93-1.68-3.45-3.61-3.39h0Zm16.93-.43c-.33,0-.67,.01-1,.02-1.93,.04-3.47,1.64-3.43,3.57,.04,1.93,1.64,3.47,3.57,3.43,.33,0,.66-.01,.99-.02,1.93-.04,3.47-1.63,3.43-3.57-.04-1.93-1.63-3.47-3.57-3.43h0ZM382.45,.01c-.33,0-.66,0-1,0-1.93,.01-3.49,1.59-3.47,3.52,.01,1.93,1.59,3.49,3.52,3.47,.33,0,.66,0,.99,0,1.93-.01,3.49-1.59,3.48-3.52-.01-1.93-1.59-3.49-3.52-3.48h0Zm16.92,0c-.33,0-.66,0-.99,0-1.93,0-3.51,1.55-3.52,3.48,0,1.93,1.55,3.51,3.48,3.52,.33,0,.66,0,.99,0,1.93,.01,3.51-1.55,3.52-3.48,.01-1.93-1.55-3.51-3.48-3.52h0Zm16.91,.18c-.33,0-.66-.01-.99-.02-1.93-.03-3.52,1.51-3.55,3.44-.03,1.93,1.51,3.52,3.44,3.55,.33,0,.66,.01,.99,.02,1.93,.03,3.53-1.51,3.56-3.44,.03-1.93-1.51-3.53-3.44-3.56h0Zm16.91,.37c-.33,0-.66-.02-.99-.03-1.93-.05-3.54,1.47-3.59,3.41-.05,1.93,1.47,3.54,3.41,3.59,.33,0,.66,.02,.99,.03,1.93,.05,3.54-1.47,3.59-3.4,.05-1.93-1.47-3.54-3.4-3.59h0Z"/><g><polygon class="cls-1" points="6.41 86.29 7.7 88.56 9.97 87.28 11.26 89.54 13.53 88.25 13.52 88.24 13.53 88.24 13.54 88.25 13.54 88.26 14.83 90.53 17.1 89.24 18.38 91.51 20.65 90.22 19.36 87.95 19.36 87.95 18.07 85.68 16.79 83.41 28.15 76.97 30.43 75.68 29.14 73.41 27.86 71.14 27.85 71.14 26.57 68.87 26.56 68.86 12.92 76.59 11.64 74.32 10.35 72.05 9.06 69.78 6.79 71.06 8.08 73.34 8.08 73.34 5.81 74.63 7.1 76.9 7.1 76.9 7.1 76.91 7.1 76.91 7.09 76.9 4.82 78.19 6.11 80.45 6.1 80.46 3.84 81.74 5.12 84.02 5.13 84.02 2.86 85.31 4.14 87.58 6.41 86.29"/><path class="cls-2" d="M18.38,91.51l-1.29-2.27-2.27,1.29-1.29-2.27h0s0-.02,0-.02h0s0,.01,0,.01l-2.27,1.29-1.28-2.27-2.27,1.29-1.29-2.27-2.27,1.29-1.29-2.27,2.27-1.29h0s-1.29-2.28-1.29-2.28l2.27-1.29h0s-1.29-2.27-1.29-2.27l2.27-1.29h0s0,0,0,0h0s0,0,0,0l-1.29-2.27,2.27-1.29h0s-1.29-2.28-1.29-2.28l2.27-1.29,1.29,2.27,1.29,2.27,1.28,2.27,13.64-7.73h0s1.29,2.28,1.29,2.28h0s1.29,2.27,1.29,2.27l1.29,2.27-2.27,1.29-11.37,6.44,1.29,2.27,1.29,2.27h0s1.29,2.27,1.29,2.27l-2.27,1.29m-.79,2.86l1.82-1.03,2.27-1.29,1.82-1.03-1.03-1.82-1.29-2.27-1.29-2.27-.25-.45,9.54-5.41,2.27-1.29,1.82-1.03-1.03-1.82-1.29-2.27-1.29-2.27-1.29-2.27-1.03-1.82-1.83,1.03-11.82,6.7-.25-.44-1.29-2.27-1.29-2.27-1.03-1.82-1.82,1.03-2.27,1.29-1.82,1.03,1.03,1.82,.26,.45-.45,.25-1.82,1.03,1.03,1.82,.25,.45-.45,.26-1.82,1.03,1.03,1.82,.25,.45-.45,.25-1.82,1.03,1.03,1.82,.26,.46-.45,.25-1.82,1.03,1.03,1.82,1.29,2.27,1.03,1.82,1.82-1.03,.45-.25,.25,.45,1.03,1.82,1.82-1.03,.45-.25,.25,.44,1.03,1.82,1.82-1.03,.46-.26,.26,.46,1.03,1.82,1.82-1.03,.45-.25,.25,.45,1.03,1.82h0Z"/></g></g></svg>